%TF.GenerationSoftware,KiCad,Pcbnew,9.0.1*%
%TF.CreationDate,2025-10-26T23:50:52+01:00*%
%TF.ProjectId,onyks-iot-esp32-storage-rfid,6f6e796b-732d-4696-9f74-2d6573703332,rev?*%
%TF.SameCoordinates,Original*%
%TF.FileFunction,Legend,Top*%
%TF.FilePolarity,Positive*%
%FSLAX46Y46*%
G04 Gerber Fmt 4.6, Leading zero omitted, Abs format (unit mm)*
G04 Created by KiCad (PCBNEW 9.0.1) date 2025-10-26 23:50:52*
%MOMM*%
%LPD*%
G01*
G04 APERTURE LIST*
%ADD10C,0.150000*%
%ADD11C,0.120000*%
G04 APERTURE END LIST*
D10*
X154666666Y-102254819D02*
X154666666Y-102969104D01*
X154666666Y-102969104D02*
X154619047Y-103111961D01*
X154619047Y-103111961D02*
X154523809Y-103207200D01*
X154523809Y-103207200D02*
X154380952Y-103254819D01*
X154380952Y-103254819D02*
X154285714Y-103254819D01*
X155047619Y-102254819D02*
X155666666Y-102254819D01*
X155666666Y-102254819D02*
X155333333Y-102635771D01*
X155333333Y-102635771D02*
X155476190Y-102635771D01*
X155476190Y-102635771D02*
X155571428Y-102683390D01*
X155571428Y-102683390D02*
X155619047Y-102731009D01*
X155619047Y-102731009D02*
X155666666Y-102826247D01*
X155666666Y-102826247D02*
X155666666Y-103064342D01*
X155666666Y-103064342D02*
X155619047Y-103159580D01*
X155619047Y-103159580D02*
X155571428Y-103207200D01*
X155571428Y-103207200D02*
X155476190Y-103254819D01*
X155476190Y-103254819D02*
X155190476Y-103254819D01*
X155190476Y-103254819D02*
X155095238Y-103207200D01*
X155095238Y-103207200D02*
X155047619Y-103159580D01*
X137303833Y-94593580D02*
X137256214Y-94641200D01*
X137256214Y-94641200D02*
X137113357Y-94688819D01*
X137113357Y-94688819D02*
X137018119Y-94688819D01*
X137018119Y-94688819D02*
X136875262Y-94641200D01*
X136875262Y-94641200D02*
X136780024Y-94545961D01*
X136780024Y-94545961D02*
X136732405Y-94450723D01*
X136732405Y-94450723D02*
X136684786Y-94260247D01*
X136684786Y-94260247D02*
X136684786Y-94117390D01*
X136684786Y-94117390D02*
X136732405Y-93926914D01*
X136732405Y-93926914D02*
X136780024Y-93831676D01*
X136780024Y-93831676D02*
X136875262Y-93736438D01*
X136875262Y-93736438D02*
X137018119Y-93688819D01*
X137018119Y-93688819D02*
X137113357Y-93688819D01*
X137113357Y-93688819D02*
X137256214Y-93736438D01*
X137256214Y-93736438D02*
X137303833Y-93784057D01*
X137780024Y-94688819D02*
X137970500Y-94688819D01*
X137970500Y-94688819D02*
X138065738Y-94641200D01*
X138065738Y-94641200D02*
X138113357Y-94593580D01*
X138113357Y-94593580D02*
X138208595Y-94450723D01*
X138208595Y-94450723D02*
X138256214Y-94260247D01*
X138256214Y-94260247D02*
X138256214Y-93879295D01*
X138256214Y-93879295D02*
X138208595Y-93784057D01*
X138208595Y-93784057D02*
X138160976Y-93736438D01*
X138160976Y-93736438D02*
X138065738Y-93688819D01*
X138065738Y-93688819D02*
X137875262Y-93688819D01*
X137875262Y-93688819D02*
X137780024Y-93736438D01*
X137780024Y-93736438D02*
X137732405Y-93784057D01*
X137732405Y-93784057D02*
X137684786Y-93879295D01*
X137684786Y-93879295D02*
X137684786Y-94117390D01*
X137684786Y-94117390D02*
X137732405Y-94212628D01*
X137732405Y-94212628D02*
X137780024Y-94260247D01*
X137780024Y-94260247D02*
X137875262Y-94307866D01*
X137875262Y-94307866D02*
X138065738Y-94307866D01*
X138065738Y-94307866D02*
X138160976Y-94260247D01*
X138160976Y-94260247D02*
X138208595Y-94212628D01*
X138208595Y-94212628D02*
X138256214Y-94117390D01*
X161633333Y-96254819D02*
X161300000Y-95778628D01*
X161061905Y-96254819D02*
X161061905Y-95254819D01*
X161061905Y-95254819D02*
X161442857Y-95254819D01*
X161442857Y-95254819D02*
X161538095Y-95302438D01*
X161538095Y-95302438D02*
X161585714Y-95350057D01*
X161585714Y-95350057D02*
X161633333Y-95445295D01*
X161633333Y-95445295D02*
X161633333Y-95588152D01*
X161633333Y-95588152D02*
X161585714Y-95683390D01*
X161585714Y-95683390D02*
X161538095Y-95731009D01*
X161538095Y-95731009D02*
X161442857Y-95778628D01*
X161442857Y-95778628D02*
X161061905Y-95778628D01*
X162585714Y-96254819D02*
X162014286Y-96254819D01*
X162300000Y-96254819D02*
X162300000Y-95254819D01*
X162300000Y-95254819D02*
X162204762Y-95397676D01*
X162204762Y-95397676D02*
X162109524Y-95492914D01*
X162109524Y-95492914D02*
X162014286Y-95540533D01*
X133866666Y-130534819D02*
X133866666Y-131249104D01*
X133866666Y-131249104D02*
X133819047Y-131391961D01*
X133819047Y-131391961D02*
X133723809Y-131487200D01*
X133723809Y-131487200D02*
X133580952Y-131534819D01*
X133580952Y-131534819D02*
X133485714Y-131534819D01*
X134771428Y-130868152D02*
X134771428Y-131534819D01*
X134533333Y-130487200D02*
X134295238Y-131201485D01*
X134295238Y-131201485D02*
X134914285Y-131201485D01*
X138992800Y-121466667D02*
X138945180Y-121609524D01*
X138945180Y-121609524D02*
X138945180Y-121847619D01*
X138945180Y-121847619D02*
X138992800Y-121942857D01*
X138992800Y-121942857D02*
X139040419Y-121990476D01*
X139040419Y-121990476D02*
X139135657Y-122038095D01*
X139135657Y-122038095D02*
X139230895Y-122038095D01*
X139230895Y-122038095D02*
X139326133Y-121990476D01*
X139326133Y-121990476D02*
X139373752Y-121942857D01*
X139373752Y-121942857D02*
X139421371Y-121847619D01*
X139421371Y-121847619D02*
X139468990Y-121657143D01*
X139468990Y-121657143D02*
X139516609Y-121561905D01*
X139516609Y-121561905D02*
X139564228Y-121514286D01*
X139564228Y-121514286D02*
X139659466Y-121466667D01*
X139659466Y-121466667D02*
X139754704Y-121466667D01*
X139754704Y-121466667D02*
X139849942Y-121514286D01*
X139849942Y-121514286D02*
X139897561Y-121561905D01*
X139897561Y-121561905D02*
X139945180Y-121657143D01*
X139945180Y-121657143D02*
X139945180Y-121895238D01*
X139945180Y-121895238D02*
X139897561Y-122038095D01*
X139945180Y-122371429D02*
X138945180Y-122609524D01*
X138945180Y-122609524D02*
X139659466Y-122800000D01*
X139659466Y-122800000D02*
X138945180Y-122990476D01*
X138945180Y-122990476D02*
X139945180Y-123228572D01*
X139611847Y-124038095D02*
X138945180Y-124038095D01*
X139992800Y-123800000D02*
X139278514Y-123561905D01*
X139278514Y-123561905D02*
X139278514Y-124180952D01*
X157838095Y-109454819D02*
X157838095Y-110264342D01*
X157838095Y-110264342D02*
X157885714Y-110359580D01*
X157885714Y-110359580D02*
X157933333Y-110407200D01*
X157933333Y-110407200D02*
X158028571Y-110454819D01*
X158028571Y-110454819D02*
X158219047Y-110454819D01*
X158219047Y-110454819D02*
X158314285Y-110407200D01*
X158314285Y-110407200D02*
X158361904Y-110359580D01*
X158361904Y-110359580D02*
X158409523Y-110264342D01*
X158409523Y-110264342D02*
X158409523Y-109454819D01*
X159409523Y-110454819D02*
X158838095Y-110454819D01*
X159123809Y-110454819D02*
X159123809Y-109454819D01*
X159123809Y-109454819D02*
X159028571Y-109597676D01*
X159028571Y-109597676D02*
X158933333Y-109692914D01*
X158933333Y-109692914D02*
X158838095Y-109740533D01*
X154138333Y-126520319D02*
X153805000Y-126044128D01*
X153566905Y-126520319D02*
X153566905Y-125520319D01*
X153566905Y-125520319D02*
X153947857Y-125520319D01*
X153947857Y-125520319D02*
X154043095Y-125567938D01*
X154043095Y-125567938D02*
X154090714Y-125615557D01*
X154090714Y-125615557D02*
X154138333Y-125710795D01*
X154138333Y-125710795D02*
X154138333Y-125853652D01*
X154138333Y-125853652D02*
X154090714Y-125948890D01*
X154090714Y-125948890D02*
X154043095Y-125996509D01*
X154043095Y-125996509D02*
X153947857Y-126044128D01*
X153947857Y-126044128D02*
X153566905Y-126044128D01*
X154471667Y-125520319D02*
X155090714Y-125520319D01*
X155090714Y-125520319D02*
X154757381Y-125901271D01*
X154757381Y-125901271D02*
X154900238Y-125901271D01*
X154900238Y-125901271D02*
X154995476Y-125948890D01*
X154995476Y-125948890D02*
X155043095Y-125996509D01*
X155043095Y-125996509D02*
X155090714Y-126091747D01*
X155090714Y-126091747D02*
X155090714Y-126329842D01*
X155090714Y-126329842D02*
X155043095Y-126425080D01*
X155043095Y-126425080D02*
X154995476Y-126472700D01*
X154995476Y-126472700D02*
X154900238Y-126520319D01*
X154900238Y-126520319D02*
X154614524Y-126520319D01*
X154614524Y-126520319D02*
X154519286Y-126472700D01*
X154519286Y-126472700D02*
X154471667Y-126425080D01*
X161147833Y-102464580D02*
X161100214Y-102512200D01*
X161100214Y-102512200D02*
X160957357Y-102559819D01*
X160957357Y-102559819D02*
X160862119Y-102559819D01*
X160862119Y-102559819D02*
X160719262Y-102512200D01*
X160719262Y-102512200D02*
X160624024Y-102416961D01*
X160624024Y-102416961D02*
X160576405Y-102321723D01*
X160576405Y-102321723D02*
X160528786Y-102131247D01*
X160528786Y-102131247D02*
X160528786Y-101988390D01*
X160528786Y-101988390D02*
X160576405Y-101797914D01*
X160576405Y-101797914D02*
X160624024Y-101702676D01*
X160624024Y-101702676D02*
X160719262Y-101607438D01*
X160719262Y-101607438D02*
X160862119Y-101559819D01*
X160862119Y-101559819D02*
X160957357Y-101559819D01*
X160957357Y-101559819D02*
X161100214Y-101607438D01*
X161100214Y-101607438D02*
X161147833Y-101655057D01*
X162100214Y-102559819D02*
X161528786Y-102559819D01*
X161814500Y-102559819D02*
X161814500Y-101559819D01*
X161814500Y-101559819D02*
X161719262Y-101702676D01*
X161719262Y-101702676D02*
X161624024Y-101797914D01*
X161624024Y-101797914D02*
X161528786Y-101845533D01*
X166051833Y-102083580D02*
X166004214Y-102131200D01*
X166004214Y-102131200D02*
X165861357Y-102178819D01*
X165861357Y-102178819D02*
X165766119Y-102178819D01*
X165766119Y-102178819D02*
X165623262Y-102131200D01*
X165623262Y-102131200D02*
X165528024Y-102035961D01*
X165528024Y-102035961D02*
X165480405Y-101940723D01*
X165480405Y-101940723D02*
X165432786Y-101750247D01*
X165432786Y-101750247D02*
X165432786Y-101607390D01*
X165432786Y-101607390D02*
X165480405Y-101416914D01*
X165480405Y-101416914D02*
X165528024Y-101321676D01*
X165528024Y-101321676D02*
X165623262Y-101226438D01*
X165623262Y-101226438D02*
X165766119Y-101178819D01*
X165766119Y-101178819D02*
X165861357Y-101178819D01*
X165861357Y-101178819D02*
X166004214Y-101226438D01*
X166004214Y-101226438D02*
X166051833Y-101274057D01*
X166432786Y-101274057D02*
X166480405Y-101226438D01*
X166480405Y-101226438D02*
X166575643Y-101178819D01*
X166575643Y-101178819D02*
X166813738Y-101178819D01*
X166813738Y-101178819D02*
X166908976Y-101226438D01*
X166908976Y-101226438D02*
X166956595Y-101274057D01*
X166956595Y-101274057D02*
X167004214Y-101369295D01*
X167004214Y-101369295D02*
X167004214Y-101464533D01*
X167004214Y-101464533D02*
X166956595Y-101607390D01*
X166956595Y-101607390D02*
X166385167Y-102178819D01*
X166385167Y-102178819D02*
X167004214Y-102178819D01*
X166051833Y-100305580D02*
X166004214Y-100353200D01*
X166004214Y-100353200D02*
X165861357Y-100400819D01*
X165861357Y-100400819D02*
X165766119Y-100400819D01*
X165766119Y-100400819D02*
X165623262Y-100353200D01*
X165623262Y-100353200D02*
X165528024Y-100257961D01*
X165528024Y-100257961D02*
X165480405Y-100162723D01*
X165480405Y-100162723D02*
X165432786Y-99972247D01*
X165432786Y-99972247D02*
X165432786Y-99829390D01*
X165432786Y-99829390D02*
X165480405Y-99638914D01*
X165480405Y-99638914D02*
X165528024Y-99543676D01*
X165528024Y-99543676D02*
X165623262Y-99448438D01*
X165623262Y-99448438D02*
X165766119Y-99400819D01*
X165766119Y-99400819D02*
X165861357Y-99400819D01*
X165861357Y-99400819D02*
X166004214Y-99448438D01*
X166004214Y-99448438D02*
X166051833Y-99496057D01*
X166385167Y-99400819D02*
X167004214Y-99400819D01*
X167004214Y-99400819D02*
X166670881Y-99781771D01*
X166670881Y-99781771D02*
X166813738Y-99781771D01*
X166813738Y-99781771D02*
X166908976Y-99829390D01*
X166908976Y-99829390D02*
X166956595Y-99877009D01*
X166956595Y-99877009D02*
X167004214Y-99972247D01*
X167004214Y-99972247D02*
X167004214Y-100210342D01*
X167004214Y-100210342D02*
X166956595Y-100305580D01*
X166956595Y-100305580D02*
X166908976Y-100353200D01*
X166908976Y-100353200D02*
X166813738Y-100400819D01*
X166813738Y-100400819D02*
X166528024Y-100400819D01*
X166528024Y-100400819D02*
X166432786Y-100353200D01*
X166432786Y-100353200D02*
X166385167Y-100305580D01*
X140461905Y-110054819D02*
X140461905Y-109054819D01*
X140461905Y-109054819D02*
X140700000Y-109054819D01*
X140700000Y-109054819D02*
X140842857Y-109102438D01*
X140842857Y-109102438D02*
X140938095Y-109197676D01*
X140938095Y-109197676D02*
X140985714Y-109292914D01*
X140985714Y-109292914D02*
X141033333Y-109483390D01*
X141033333Y-109483390D02*
X141033333Y-109626247D01*
X141033333Y-109626247D02*
X140985714Y-109816723D01*
X140985714Y-109816723D02*
X140938095Y-109911961D01*
X140938095Y-109911961D02*
X140842857Y-110007200D01*
X140842857Y-110007200D02*
X140700000Y-110054819D01*
X140700000Y-110054819D02*
X140461905Y-110054819D01*
X141985714Y-110054819D02*
X141414286Y-110054819D01*
X141700000Y-110054819D02*
X141700000Y-109054819D01*
X141700000Y-109054819D02*
X141604762Y-109197676D01*
X141604762Y-109197676D02*
X141509524Y-109292914D01*
X141509524Y-109292914D02*
X141414286Y-109340533D01*
X130424819Y-123359166D02*
X129948628Y-123692499D01*
X130424819Y-123930594D02*
X129424819Y-123930594D01*
X129424819Y-123930594D02*
X129424819Y-123549642D01*
X129424819Y-123549642D02*
X129472438Y-123454404D01*
X129472438Y-123454404D02*
X129520057Y-123406785D01*
X129520057Y-123406785D02*
X129615295Y-123359166D01*
X129615295Y-123359166D02*
X129758152Y-123359166D01*
X129758152Y-123359166D02*
X129853390Y-123406785D01*
X129853390Y-123406785D02*
X129901009Y-123454404D01*
X129901009Y-123454404D02*
X129948628Y-123549642D01*
X129948628Y-123549642D02*
X129948628Y-123930594D01*
X129758152Y-122502023D02*
X130424819Y-122502023D01*
X129377200Y-122740118D02*
X130091485Y-122978213D01*
X130091485Y-122978213D02*
X130091485Y-122359166D01*
X157525761Y-126578057D02*
X157430523Y-126530438D01*
X157430523Y-126530438D02*
X157335285Y-126435200D01*
X157335285Y-126435200D02*
X157192428Y-126292342D01*
X157192428Y-126292342D02*
X157097190Y-126244723D01*
X157097190Y-126244723D02*
X157001952Y-126244723D01*
X157049571Y-126482819D02*
X156954333Y-126435200D01*
X156954333Y-126435200D02*
X156859095Y-126339961D01*
X156859095Y-126339961D02*
X156811476Y-126149485D01*
X156811476Y-126149485D02*
X156811476Y-125816152D01*
X156811476Y-125816152D02*
X156859095Y-125625676D01*
X156859095Y-125625676D02*
X156954333Y-125530438D01*
X156954333Y-125530438D02*
X157049571Y-125482819D01*
X157049571Y-125482819D02*
X157240047Y-125482819D01*
X157240047Y-125482819D02*
X157335285Y-125530438D01*
X157335285Y-125530438D02*
X157430523Y-125625676D01*
X157430523Y-125625676D02*
X157478142Y-125816152D01*
X157478142Y-125816152D02*
X157478142Y-126149485D01*
X157478142Y-126149485D02*
X157430523Y-126339961D01*
X157430523Y-126339961D02*
X157335285Y-126435200D01*
X157335285Y-126435200D02*
X157240047Y-126482819D01*
X157240047Y-126482819D02*
X157049571Y-126482819D01*
X157859095Y-125578057D02*
X157906714Y-125530438D01*
X157906714Y-125530438D02*
X158001952Y-125482819D01*
X158001952Y-125482819D02*
X158240047Y-125482819D01*
X158240047Y-125482819D02*
X158335285Y-125530438D01*
X158335285Y-125530438D02*
X158382904Y-125578057D01*
X158382904Y-125578057D02*
X158430523Y-125673295D01*
X158430523Y-125673295D02*
X158430523Y-125768533D01*
X158430523Y-125768533D02*
X158382904Y-125911390D01*
X158382904Y-125911390D02*
X157811476Y-126482819D01*
X157811476Y-126482819D02*
X158430523Y-126482819D01*
X130759580Y-106766666D02*
X130807200Y-106814285D01*
X130807200Y-106814285D02*
X130854819Y-106957142D01*
X130854819Y-106957142D02*
X130854819Y-107052380D01*
X130854819Y-107052380D02*
X130807200Y-107195237D01*
X130807200Y-107195237D02*
X130711961Y-107290475D01*
X130711961Y-107290475D02*
X130616723Y-107338094D01*
X130616723Y-107338094D02*
X130426247Y-107385713D01*
X130426247Y-107385713D02*
X130283390Y-107385713D01*
X130283390Y-107385713D02*
X130092914Y-107338094D01*
X130092914Y-107338094D02*
X129997676Y-107290475D01*
X129997676Y-107290475D02*
X129902438Y-107195237D01*
X129902438Y-107195237D02*
X129854819Y-107052380D01*
X129854819Y-107052380D02*
X129854819Y-106957142D01*
X129854819Y-106957142D02*
X129902438Y-106814285D01*
X129902438Y-106814285D02*
X129950057Y-106766666D01*
X130188152Y-105909523D02*
X130854819Y-105909523D01*
X129807200Y-106147618D02*
X130521485Y-106385713D01*
X130521485Y-106385713D02*
X130521485Y-105766666D01*
X150704761Y-127603057D02*
X150609523Y-127555438D01*
X150609523Y-127555438D02*
X150514285Y-127460200D01*
X150514285Y-127460200D02*
X150371428Y-127317342D01*
X150371428Y-127317342D02*
X150276190Y-127269723D01*
X150276190Y-127269723D02*
X150180952Y-127269723D01*
X150228571Y-127507819D02*
X150133333Y-127460200D01*
X150133333Y-127460200D02*
X150038095Y-127364961D01*
X150038095Y-127364961D02*
X149990476Y-127174485D01*
X149990476Y-127174485D02*
X149990476Y-126841152D01*
X149990476Y-126841152D02*
X150038095Y-126650676D01*
X150038095Y-126650676D02*
X150133333Y-126555438D01*
X150133333Y-126555438D02*
X150228571Y-126507819D01*
X150228571Y-126507819D02*
X150419047Y-126507819D01*
X150419047Y-126507819D02*
X150514285Y-126555438D01*
X150514285Y-126555438D02*
X150609523Y-126650676D01*
X150609523Y-126650676D02*
X150657142Y-126841152D01*
X150657142Y-126841152D02*
X150657142Y-127174485D01*
X150657142Y-127174485D02*
X150609523Y-127364961D01*
X150609523Y-127364961D02*
X150514285Y-127460200D01*
X150514285Y-127460200D02*
X150419047Y-127507819D01*
X150419047Y-127507819D02*
X150228571Y-127507819D01*
X151609523Y-127507819D02*
X151038095Y-127507819D01*
X151323809Y-127507819D02*
X151323809Y-126507819D01*
X151323809Y-126507819D02*
X151228571Y-126650676D01*
X151228571Y-126650676D02*
X151133333Y-126745914D01*
X151133333Y-126745914D02*
X151038095Y-126793533D01*
X135638095Y-103654819D02*
X135638095Y-104464342D01*
X135638095Y-104464342D02*
X135685714Y-104559580D01*
X135685714Y-104559580D02*
X135733333Y-104607200D01*
X135733333Y-104607200D02*
X135828571Y-104654819D01*
X135828571Y-104654819D02*
X136019047Y-104654819D01*
X136019047Y-104654819D02*
X136114285Y-104607200D01*
X136114285Y-104607200D02*
X136161904Y-104559580D01*
X136161904Y-104559580D02*
X136209523Y-104464342D01*
X136209523Y-104464342D02*
X136209523Y-103654819D01*
X136638095Y-103750057D02*
X136685714Y-103702438D01*
X136685714Y-103702438D02*
X136780952Y-103654819D01*
X136780952Y-103654819D02*
X137019047Y-103654819D01*
X137019047Y-103654819D02*
X137114285Y-103702438D01*
X137114285Y-103702438D02*
X137161904Y-103750057D01*
X137161904Y-103750057D02*
X137209523Y-103845295D01*
X137209523Y-103845295D02*
X137209523Y-103940533D01*
X137209523Y-103940533D02*
X137161904Y-104083390D01*
X137161904Y-104083390D02*
X136590476Y-104654819D01*
X136590476Y-104654819D02*
X137209523Y-104654819D01*
X130759580Y-101166666D02*
X130807200Y-101214285D01*
X130807200Y-101214285D02*
X130854819Y-101357142D01*
X130854819Y-101357142D02*
X130854819Y-101452380D01*
X130854819Y-101452380D02*
X130807200Y-101595237D01*
X130807200Y-101595237D02*
X130711961Y-101690475D01*
X130711961Y-101690475D02*
X130616723Y-101738094D01*
X130616723Y-101738094D02*
X130426247Y-101785713D01*
X130426247Y-101785713D02*
X130283390Y-101785713D01*
X130283390Y-101785713D02*
X130092914Y-101738094D01*
X130092914Y-101738094D02*
X129997676Y-101690475D01*
X129997676Y-101690475D02*
X129902438Y-101595237D01*
X129902438Y-101595237D02*
X129854819Y-101452380D01*
X129854819Y-101452380D02*
X129854819Y-101357142D01*
X129854819Y-101357142D02*
X129902438Y-101214285D01*
X129902438Y-101214285D02*
X129950057Y-101166666D01*
X129854819Y-100309523D02*
X129854819Y-100499999D01*
X129854819Y-100499999D02*
X129902438Y-100595237D01*
X129902438Y-100595237D02*
X129950057Y-100642856D01*
X129950057Y-100642856D02*
X130092914Y-100738094D01*
X130092914Y-100738094D02*
X130283390Y-100785713D01*
X130283390Y-100785713D02*
X130664342Y-100785713D01*
X130664342Y-100785713D02*
X130759580Y-100738094D01*
X130759580Y-100738094D02*
X130807200Y-100690475D01*
X130807200Y-100690475D02*
X130854819Y-100595237D01*
X130854819Y-100595237D02*
X130854819Y-100404761D01*
X130854819Y-100404761D02*
X130807200Y-100309523D01*
X130807200Y-100309523D02*
X130759580Y-100261904D01*
X130759580Y-100261904D02*
X130664342Y-100214285D01*
X130664342Y-100214285D02*
X130426247Y-100214285D01*
X130426247Y-100214285D02*
X130331009Y-100261904D01*
X130331009Y-100261904D02*
X130283390Y-100309523D01*
X130283390Y-100309523D02*
X130235771Y-100404761D01*
X130235771Y-100404761D02*
X130235771Y-100595237D01*
X130235771Y-100595237D02*
X130283390Y-100690475D01*
X130283390Y-100690475D02*
X130331009Y-100738094D01*
X130331009Y-100738094D02*
X130426247Y-100785713D01*
X160666666Y-136454819D02*
X160666666Y-137169104D01*
X160666666Y-137169104D02*
X160619047Y-137311961D01*
X160619047Y-137311961D02*
X160523809Y-137407200D01*
X160523809Y-137407200D02*
X160380952Y-137454819D01*
X160380952Y-137454819D02*
X160285714Y-137454819D01*
X161095238Y-136550057D02*
X161142857Y-136502438D01*
X161142857Y-136502438D02*
X161238095Y-136454819D01*
X161238095Y-136454819D02*
X161476190Y-136454819D01*
X161476190Y-136454819D02*
X161571428Y-136502438D01*
X161571428Y-136502438D02*
X161619047Y-136550057D01*
X161619047Y-136550057D02*
X161666666Y-136645295D01*
X161666666Y-136645295D02*
X161666666Y-136740533D01*
X161666666Y-136740533D02*
X161619047Y-136883390D01*
X161619047Y-136883390D02*
X161047619Y-137454819D01*
X161047619Y-137454819D02*
X161666666Y-137454819D01*
X133838095Y-94654819D02*
X133838095Y-95464342D01*
X133838095Y-95464342D02*
X133885714Y-95559580D01*
X133885714Y-95559580D02*
X133933333Y-95607200D01*
X133933333Y-95607200D02*
X134028571Y-95654819D01*
X134028571Y-95654819D02*
X134219047Y-95654819D01*
X134219047Y-95654819D02*
X134314285Y-95607200D01*
X134314285Y-95607200D02*
X134361904Y-95559580D01*
X134361904Y-95559580D02*
X134409523Y-95464342D01*
X134409523Y-95464342D02*
X134409523Y-94654819D01*
X134790476Y-94654819D02*
X135409523Y-94654819D01*
X135409523Y-94654819D02*
X135076190Y-95035771D01*
X135076190Y-95035771D02*
X135219047Y-95035771D01*
X135219047Y-95035771D02*
X135314285Y-95083390D01*
X135314285Y-95083390D02*
X135361904Y-95131009D01*
X135361904Y-95131009D02*
X135409523Y-95226247D01*
X135409523Y-95226247D02*
X135409523Y-95464342D01*
X135409523Y-95464342D02*
X135361904Y-95559580D01*
X135361904Y-95559580D02*
X135314285Y-95607200D01*
X135314285Y-95607200D02*
X135219047Y-95654819D01*
X135219047Y-95654819D02*
X134933333Y-95654819D01*
X134933333Y-95654819D02*
X134838095Y-95607200D01*
X134838095Y-95607200D02*
X134790476Y-95559580D01*
X138992800Y-131941667D02*
X138945180Y-132084524D01*
X138945180Y-132084524D02*
X138945180Y-132322619D01*
X138945180Y-132322619D02*
X138992800Y-132417857D01*
X138992800Y-132417857D02*
X139040419Y-132465476D01*
X139040419Y-132465476D02*
X139135657Y-132513095D01*
X139135657Y-132513095D02*
X139230895Y-132513095D01*
X139230895Y-132513095D02*
X139326133Y-132465476D01*
X139326133Y-132465476D02*
X139373752Y-132417857D01*
X139373752Y-132417857D02*
X139421371Y-132322619D01*
X139421371Y-132322619D02*
X139468990Y-132132143D01*
X139468990Y-132132143D02*
X139516609Y-132036905D01*
X139516609Y-132036905D02*
X139564228Y-131989286D01*
X139564228Y-131989286D02*
X139659466Y-131941667D01*
X139659466Y-131941667D02*
X139754704Y-131941667D01*
X139754704Y-131941667D02*
X139849942Y-131989286D01*
X139849942Y-131989286D02*
X139897561Y-132036905D01*
X139897561Y-132036905D02*
X139945180Y-132132143D01*
X139945180Y-132132143D02*
X139945180Y-132370238D01*
X139945180Y-132370238D02*
X139897561Y-132513095D01*
X139945180Y-132846429D02*
X138945180Y-133084524D01*
X138945180Y-133084524D02*
X139659466Y-133275000D01*
X139659466Y-133275000D02*
X138945180Y-133465476D01*
X138945180Y-133465476D02*
X139945180Y-133703572D01*
X139945180Y-133989286D02*
X139945180Y-134608333D01*
X139945180Y-134608333D02*
X139564228Y-134275000D01*
X139564228Y-134275000D02*
X139564228Y-134417857D01*
X139564228Y-134417857D02*
X139516609Y-134513095D01*
X139516609Y-134513095D02*
X139468990Y-134560714D01*
X139468990Y-134560714D02*
X139373752Y-134608333D01*
X139373752Y-134608333D02*
X139135657Y-134608333D01*
X139135657Y-134608333D02*
X139040419Y-134560714D01*
X139040419Y-134560714D02*
X138992800Y-134513095D01*
X138992800Y-134513095D02*
X138945180Y-134417857D01*
X138945180Y-134417857D02*
X138945180Y-134132143D01*
X138945180Y-134132143D02*
X138992800Y-134036905D01*
X138992800Y-134036905D02*
X139040419Y-133989286D01*
X143034580Y-106966666D02*
X143082200Y-107014285D01*
X143082200Y-107014285D02*
X143129819Y-107157142D01*
X143129819Y-107157142D02*
X143129819Y-107252380D01*
X143129819Y-107252380D02*
X143082200Y-107395237D01*
X143082200Y-107395237D02*
X142986961Y-107490475D01*
X142986961Y-107490475D02*
X142891723Y-107538094D01*
X142891723Y-107538094D02*
X142701247Y-107585713D01*
X142701247Y-107585713D02*
X142558390Y-107585713D01*
X142558390Y-107585713D02*
X142367914Y-107538094D01*
X142367914Y-107538094D02*
X142272676Y-107490475D01*
X142272676Y-107490475D02*
X142177438Y-107395237D01*
X142177438Y-107395237D02*
X142129819Y-107252380D01*
X142129819Y-107252380D02*
X142129819Y-107157142D01*
X142129819Y-107157142D02*
X142177438Y-107014285D01*
X142177438Y-107014285D02*
X142225057Y-106966666D01*
X142129819Y-106061904D02*
X142129819Y-106538094D01*
X142129819Y-106538094D02*
X142606009Y-106585713D01*
X142606009Y-106585713D02*
X142558390Y-106538094D01*
X142558390Y-106538094D02*
X142510771Y-106442856D01*
X142510771Y-106442856D02*
X142510771Y-106204761D01*
X142510771Y-106204761D02*
X142558390Y-106109523D01*
X142558390Y-106109523D02*
X142606009Y-106061904D01*
X142606009Y-106061904D02*
X142701247Y-106014285D01*
X142701247Y-106014285D02*
X142939342Y-106014285D01*
X142939342Y-106014285D02*
X143034580Y-106061904D01*
X143034580Y-106061904D02*
X143082200Y-106109523D01*
X143082200Y-106109523D02*
X143129819Y-106204761D01*
X143129819Y-106204761D02*
X143129819Y-106442856D01*
X143129819Y-106442856D02*
X143082200Y-106538094D01*
X143082200Y-106538094D02*
X143034580Y-106585713D01*
X131266666Y-111454819D02*
X131266666Y-112169104D01*
X131266666Y-112169104D02*
X131219047Y-112311961D01*
X131219047Y-112311961D02*
X131123809Y-112407200D01*
X131123809Y-112407200D02*
X130980952Y-112454819D01*
X130980952Y-112454819D02*
X130885714Y-112454819D01*
X132266666Y-112454819D02*
X131695238Y-112454819D01*
X131980952Y-112454819D02*
X131980952Y-111454819D01*
X131980952Y-111454819D02*
X131885714Y-111597676D01*
X131885714Y-111597676D02*
X131790476Y-111692914D01*
X131790476Y-111692914D02*
X131695238Y-111740533D01*
X147233333Y-125559580D02*
X147185714Y-125607200D01*
X147185714Y-125607200D02*
X147042857Y-125654819D01*
X147042857Y-125654819D02*
X146947619Y-125654819D01*
X146947619Y-125654819D02*
X146804762Y-125607200D01*
X146804762Y-125607200D02*
X146709524Y-125511961D01*
X146709524Y-125511961D02*
X146661905Y-125416723D01*
X146661905Y-125416723D02*
X146614286Y-125226247D01*
X146614286Y-125226247D02*
X146614286Y-125083390D01*
X146614286Y-125083390D02*
X146661905Y-124892914D01*
X146661905Y-124892914D02*
X146709524Y-124797676D01*
X146709524Y-124797676D02*
X146804762Y-124702438D01*
X146804762Y-124702438D02*
X146947619Y-124654819D01*
X146947619Y-124654819D02*
X147042857Y-124654819D01*
X147042857Y-124654819D02*
X147185714Y-124702438D01*
X147185714Y-124702438D02*
X147233333Y-124750057D01*
X147804762Y-125083390D02*
X147709524Y-125035771D01*
X147709524Y-125035771D02*
X147661905Y-124988152D01*
X147661905Y-124988152D02*
X147614286Y-124892914D01*
X147614286Y-124892914D02*
X147614286Y-124845295D01*
X147614286Y-124845295D02*
X147661905Y-124750057D01*
X147661905Y-124750057D02*
X147709524Y-124702438D01*
X147709524Y-124702438D02*
X147804762Y-124654819D01*
X147804762Y-124654819D02*
X147995238Y-124654819D01*
X147995238Y-124654819D02*
X148090476Y-124702438D01*
X148090476Y-124702438D02*
X148138095Y-124750057D01*
X148138095Y-124750057D02*
X148185714Y-124845295D01*
X148185714Y-124845295D02*
X148185714Y-124892914D01*
X148185714Y-124892914D02*
X148138095Y-124988152D01*
X148138095Y-124988152D02*
X148090476Y-125035771D01*
X148090476Y-125035771D02*
X147995238Y-125083390D01*
X147995238Y-125083390D02*
X147804762Y-125083390D01*
X147804762Y-125083390D02*
X147709524Y-125131009D01*
X147709524Y-125131009D02*
X147661905Y-125178628D01*
X147661905Y-125178628D02*
X147614286Y-125273866D01*
X147614286Y-125273866D02*
X147614286Y-125464342D01*
X147614286Y-125464342D02*
X147661905Y-125559580D01*
X147661905Y-125559580D02*
X147709524Y-125607200D01*
X147709524Y-125607200D02*
X147804762Y-125654819D01*
X147804762Y-125654819D02*
X147995238Y-125654819D01*
X147995238Y-125654819D02*
X148090476Y-125607200D01*
X148090476Y-125607200D02*
X148138095Y-125559580D01*
X148138095Y-125559580D02*
X148185714Y-125464342D01*
X148185714Y-125464342D02*
X148185714Y-125273866D01*
X148185714Y-125273866D02*
X148138095Y-125178628D01*
X148138095Y-125178628D02*
X148090476Y-125131009D01*
X148090476Y-125131009D02*
X147995238Y-125083390D01*
X155041833Y-133499819D02*
X154708500Y-133023628D01*
X154470405Y-133499819D02*
X154470405Y-132499819D01*
X154470405Y-132499819D02*
X154851357Y-132499819D01*
X154851357Y-132499819D02*
X154946595Y-132547438D01*
X154946595Y-132547438D02*
X154994214Y-132595057D01*
X154994214Y-132595057D02*
X155041833Y-132690295D01*
X155041833Y-132690295D02*
X155041833Y-132833152D01*
X155041833Y-132833152D02*
X154994214Y-132928390D01*
X154994214Y-132928390D02*
X154946595Y-132976009D01*
X154946595Y-132976009D02*
X154851357Y-133023628D01*
X154851357Y-133023628D02*
X154470405Y-133023628D01*
X155422786Y-132595057D02*
X155470405Y-132547438D01*
X155470405Y-132547438D02*
X155565643Y-132499819D01*
X155565643Y-132499819D02*
X155803738Y-132499819D01*
X155803738Y-132499819D02*
X155898976Y-132547438D01*
X155898976Y-132547438D02*
X155946595Y-132595057D01*
X155946595Y-132595057D02*
X155994214Y-132690295D01*
X155994214Y-132690295D02*
X155994214Y-132785533D01*
X155994214Y-132785533D02*
X155946595Y-132928390D01*
X155946595Y-132928390D02*
X155375167Y-133499819D01*
X155375167Y-133499819D02*
X155994214Y-133499819D01*
X147233333Y-130959580D02*
X147185714Y-131007200D01*
X147185714Y-131007200D02*
X147042857Y-131054819D01*
X147042857Y-131054819D02*
X146947619Y-131054819D01*
X146947619Y-131054819D02*
X146804762Y-131007200D01*
X146804762Y-131007200D02*
X146709524Y-130911961D01*
X146709524Y-130911961D02*
X146661905Y-130816723D01*
X146661905Y-130816723D02*
X146614286Y-130626247D01*
X146614286Y-130626247D02*
X146614286Y-130483390D01*
X146614286Y-130483390D02*
X146661905Y-130292914D01*
X146661905Y-130292914D02*
X146709524Y-130197676D01*
X146709524Y-130197676D02*
X146804762Y-130102438D01*
X146804762Y-130102438D02*
X146947619Y-130054819D01*
X146947619Y-130054819D02*
X147042857Y-130054819D01*
X147042857Y-130054819D02*
X147185714Y-130102438D01*
X147185714Y-130102438D02*
X147233333Y-130150057D01*
X147566667Y-130054819D02*
X148233333Y-130054819D01*
X148233333Y-130054819D02*
X147804762Y-131054819D01*
D11*
%TO.C,C9*%
X140354267Y-93724000D02*
X140061733Y-93724000D01*
X140354267Y-94744000D02*
X140061733Y-94744000D01*
%TO.C,R1*%
X160832776Y-96677500D02*
X161342224Y-96677500D01*
X160832776Y-97722500D02*
X161342224Y-97722500D01*
%TO.C,J4*%
X132820000Y-119420000D02*
X134200000Y-119420000D01*
X132820000Y-120800000D02*
X132820000Y-119420000D01*
X132820000Y-122070000D02*
X132820000Y-129800000D01*
X132820000Y-122070000D02*
X135580000Y-122070000D01*
X132820000Y-129800000D02*
X135580000Y-129800000D01*
X135580000Y-122070000D02*
X135580000Y-129800000D01*
%TO.C,SW4*%
X140400000Y-119525000D02*
X140400000Y-125925000D01*
X140400000Y-125925000D02*
X141600000Y-125925000D01*
X141600000Y-119525000D02*
X140400000Y-119525000D01*
X143200000Y-125925000D02*
X144400000Y-125925000D01*
X144400000Y-119525000D02*
X143200000Y-119525000D01*
X144400000Y-125925000D02*
X144400000Y-119525000D01*
%TO.C,U1*%
X148140000Y-105130000D02*
X148140000Y-106130000D01*
X148140000Y-123370000D02*
X148140000Y-122370000D01*
X148920000Y-105130000D02*
X148140000Y-105130000D01*
X148920000Y-123370000D02*
X148140000Y-123370000D01*
X173880000Y-105130000D02*
X167720000Y-105130000D01*
X173880000Y-105130000D02*
X173880000Y-123370000D01*
X173880000Y-123370000D02*
X167465000Y-123370000D01*
X167495000Y-105125000D02*
X166995000Y-105125000D01*
X166995000Y-104625000D01*
X167495000Y-105125000D01*
G36*
X167495000Y-105125000D02*
G01*
X166995000Y-105125000D01*
X166995000Y-104625000D01*
X167495000Y-105125000D01*
G37*
%TO.C,R3*%
X153782500Y-129032724D02*
X153782500Y-128523276D01*
X154827500Y-129032724D02*
X154827500Y-128523276D01*
%TO.C,C1*%
X161905733Y-102995000D02*
X162198267Y-102995000D01*
X161905733Y-104015000D02*
X162198267Y-104015000D01*
%TO.C,C2*%
X165334733Y-102614000D02*
X165627267Y-102614000D01*
X165334733Y-103634000D02*
X165627267Y-103634000D01*
%TO.C,C3*%
X165334733Y-100836000D02*
X165627267Y-100836000D01*
X165334733Y-101856000D02*
X165627267Y-101856000D01*
%TO.C,D1*%
X136250000Y-110500000D02*
X136250000Y-116000000D01*
X136250000Y-110500000D02*
X143250000Y-110500000D01*
X136250000Y-116000000D02*
X142800000Y-116000000D01*
X137050000Y-114150000D02*
X137050000Y-112350000D01*
X142450000Y-114150000D02*
X142450000Y-112350000D01*
X142800000Y-116000000D02*
X143250000Y-115550000D01*
X143250000Y-115550000D02*
X143250000Y-110500000D01*
%TO.C,R4*%
X130877500Y-123447224D02*
X130877500Y-122937776D01*
X131922500Y-123447224D02*
X131922500Y-122937776D01*
%TO.C,Q2*%
X157558500Y-127218000D02*
X156908500Y-127218000D01*
X157558500Y-127218000D02*
X158208500Y-127218000D01*
X157558500Y-130338000D02*
X156908500Y-130338000D01*
X157558500Y-130338000D02*
X158208500Y-130338000D01*
X156396000Y-127268000D02*
X156156000Y-126938000D01*
X156636000Y-126938000D01*
X156396000Y-127268000D01*
G36*
X156396000Y-127268000D02*
G01*
X156156000Y-126938000D01*
X156636000Y-126938000D01*
X156396000Y-127268000D01*
G37*
%TO.C,C4*%
X131290000Y-106883767D02*
X131290000Y-106591233D01*
X132310000Y-106883767D02*
X132310000Y-106591233D01*
%TO.C,Q1*%
X149290000Y-129715500D02*
X149290000Y-129065500D01*
X149290000Y-129715500D02*
X149290000Y-130365500D01*
X152410000Y-129715500D02*
X152410000Y-129065500D01*
X152410000Y-129715500D02*
X152410000Y-130365500D01*
X149340000Y-130878000D02*
X149010000Y-131118000D01*
X149010000Y-130638000D01*
X149340000Y-130878000D01*
G36*
X149340000Y-130878000D02*
G01*
X149010000Y-131118000D01*
X149010000Y-130638000D01*
X149340000Y-130878000D01*
G37*
%TO.C,J3*%
X143590000Y-96370000D02*
X143590000Y-101570000D01*
X153810000Y-96370000D02*
X143590000Y-96370000D01*
X153810000Y-96370000D02*
X153810000Y-98970000D01*
X153810000Y-98970000D02*
X156410000Y-98970000D01*
X155080000Y-96370000D02*
X156410000Y-96370000D01*
X156410000Y-96370000D02*
X156410000Y-97700000D01*
X156410000Y-98970000D02*
X156410000Y-101570000D01*
X156410000Y-101570000D02*
X143590000Y-101570000D01*
%TO.C,U2*%
X137737500Y-105290000D02*
X136937500Y-105290000D01*
X137737500Y-105290000D02*
X138537500Y-105290000D01*
X137737500Y-108410000D02*
X136937500Y-108410000D01*
X137737500Y-108410000D02*
X138537500Y-108410000D01*
X136437500Y-105340000D02*
X136197500Y-105010000D01*
X136677500Y-105010000D01*
X136437500Y-105340000D01*
G36*
X136437500Y-105340000D02*
G01*
X136197500Y-105010000D01*
X136677500Y-105010000D01*
X136437500Y-105340000D01*
G37*
%TO.C,C6*%
X131290000Y-101083767D02*
X131290000Y-100791233D01*
X132310000Y-101083767D02*
X132310000Y-100791233D01*
%TO.C,J2*%
X149870000Y-135730000D02*
X149870000Y-134400000D01*
X151200000Y-135730000D02*
X149870000Y-135730000D01*
X152470000Y-133070000D02*
X165230000Y-133070000D01*
X152470000Y-135730000D02*
X152470000Y-133070000D01*
X152470000Y-135730000D02*
X165230000Y-135730000D01*
X165230000Y-135730000D02*
X165230000Y-133070000D01*
%TO.C,U3*%
X136000000Y-96190000D02*
X139760000Y-96190000D01*
X136000000Y-103010000D02*
X139760000Y-103010000D01*
X139760000Y-96190000D02*
X139760000Y-97450000D01*
X139760000Y-103010000D02*
X139760000Y-101750000D01*
X134720000Y-96290000D02*
X134480000Y-95960000D01*
X134960000Y-95960000D01*
X134720000Y-96290000D01*
G36*
X134720000Y-96290000D02*
G01*
X134480000Y-95960000D01*
X134960000Y-95960000D01*
X134720000Y-96290000D01*
G37*
%TO.C,SW3*%
X140400000Y-130075000D02*
X140400000Y-136475000D01*
X140400000Y-136475000D02*
X141600000Y-136475000D01*
X141600000Y-130075000D02*
X140400000Y-130075000D01*
X143200000Y-136475000D02*
X144400000Y-136475000D01*
X144400000Y-130075000D02*
X143200000Y-130075000D01*
X144400000Y-136475000D02*
X144400000Y-130075000D01*
%TO.C,C5*%
X140640000Y-106616233D02*
X140640000Y-106908767D01*
X141660000Y-106616233D02*
X141660000Y-106908767D01*
%TO.C,J1*%
X130330000Y-113270000D02*
X130330000Y-115930000D01*
X132930000Y-113270000D02*
X130330000Y-113270000D01*
X132930000Y-113270000D02*
X132930000Y-115930000D01*
X132930000Y-115930000D02*
X130330000Y-115930000D01*
X134200000Y-113270000D02*
X135530000Y-113270000D01*
X135530000Y-113270000D02*
X135530000Y-114600000D01*
%TO.C,C8*%
X145090000Y-125591233D02*
X145090000Y-125883767D01*
X146110000Y-125591233D02*
X146110000Y-125883767D01*
%TO.C,R2*%
X155575724Y-130922500D02*
X155066276Y-130922500D01*
X155575724Y-131967500D02*
X155066276Y-131967500D01*
%TO.C,C7*%
X145090000Y-130408767D02*
X145090000Y-130116233D01*
X146110000Y-130408767D02*
X146110000Y-130116233D01*
%TD*%
M02*
