%TF.GenerationSoftware,KiCad,Pcbnew,9.0.1*%
%TF.CreationDate,2025-10-26T23:50:52+01:00*%
%TF.ProjectId,onyks-iot-esp32-storage-rfid,6f6e796b-732d-4696-9f74-2d6573703332,rev?*%
%TF.SameCoordinates,Original*%
%TF.FileFunction,Copper,L3,Inr*%
%TF.FilePolarity,Positive*%
%FSLAX46Y46*%
G04 Gerber Fmt 4.6, Leading zero omitted, Abs format (unit mm)*
G04 Created by KiCad (PCBNEW 9.0.1) date 2025-10-26 23:50:52*
%MOMM*%
%LPD*%
G01*
G04 APERTURE LIST*
%TA.AperFunction,ComponentPad*%
%ADD10R,1.700000X1.700000*%
%TD*%
%TA.AperFunction,ComponentPad*%
%ADD11C,1.700000*%
%TD*%
%TA.AperFunction,HeatsinkPad*%
%ADD12C,0.600000*%
%TD*%
%TA.AperFunction,ComponentPad*%
%ADD13O,1.700000X1.700000*%
%TD*%
%TA.AperFunction,ViaPad*%
%ADD14C,0.600000*%
%TD*%
%TA.AperFunction,ViaPad*%
%ADD15C,0.500000*%
%TD*%
G04 APERTURE END LIST*
D10*
%TO.N,VCC*%
%TO.C,J4*%
X134200000Y-120800000D03*
D11*
%TO.N,/ESP32/RXD*%
X134200000Y-123340000D03*
%TO.N,/ESP32/TXD*%
X134200000Y-125880000D03*
%TO.N,GND*%
X134200000Y-128420000D03*
%TD*%
D12*
%TO.N,GND*%
%TO.C,U1*%
X159250000Y-111350000D03*
X157850000Y-111350000D03*
X159950000Y-112050000D03*
X158550000Y-112050000D03*
X157150000Y-112050000D03*
X159250000Y-112725000D03*
X157850000Y-112725000D03*
X159950000Y-113450000D03*
X158550000Y-113450000D03*
X157150000Y-113450000D03*
X159250000Y-114150000D03*
X157850000Y-114150000D03*
%TD*%
D10*
%TO.N,VDD33*%
%TO.C,J3*%
X155080000Y-97700000D03*
D13*
%TO.N,GND*%
X152580000Y-97700000D03*
X150080000Y-97700000D03*
%TO.N,unconnected-(J3-Pin_4-Pad4)*%
X147580000Y-97700000D03*
%TO.N,GND*%
X145080000Y-97700000D03*
%TO.N,/ESP32/MTMS*%
X152580000Y-100200000D03*
%TO.N,/ESP32/MTCK*%
X147580000Y-100200000D03*
%TO.N,/ESP32/MTDO*%
X145080000Y-100200000D03*
%TO.N,/ESP32/MTDI*%
X150000000Y-100200000D03*
%TO.N,unconnected-(J3-Pin_10-Pad10)*%
X155080000Y-100200000D03*
%TD*%
D10*
%TO.N,VDD33*%
%TO.C,J2*%
X158700000Y-134400000D03*
D13*
%TO.N,GND*%
X151200000Y-134400000D03*
%TO.N,/ESP32/PROGRAM_RXD*%
X161200000Y-134400000D03*
%TO.N,/ESP32/PROGRAM_TXD*%
X163740000Y-134400000D03*
%TO.N,/ESP32/DTR*%
X156200000Y-134400000D03*
%TO.N,/ESP32/RTS*%
X153700000Y-134400000D03*
%TD*%
D10*
%TO.N,VCC*%
%TO.C,J1*%
X134200000Y-114600000D03*
D13*
%TO.N,GND*%
X131660000Y-114600000D03*
%TD*%
D14*
%TO.N,/ESP32/EN*%
X160608000Y-117047000D03*
X157480000Y-126838000D03*
%TO.N,GND*%
X138049000Y-95758000D03*
X151257000Y-112903000D03*
X142621000Y-104140000D03*
X136017000Y-104140000D03*
X136525000Y-134239000D03*
X136525000Y-131318000D03*
X158242000Y-100584000D03*
X166116000Y-99822000D03*
X166116000Y-95631000D03*
X166116000Y-97409000D03*
X131445000Y-129921000D03*
X136652000Y-120015000D03*
X155702000Y-102870000D03*
X151384000Y-108458000D03*
D15*
X146177000Y-95377000D03*
D14*
X151257000Y-119634000D03*
D15*
X145161000Y-92710000D03*
D14*
X154305000Y-125222000D03*
X156210000Y-125222000D03*
X140843000Y-123317000D03*
X166624000Y-115570000D03*
D15*
X135200000Y-106850000D03*
D14*
X153924000Y-112903000D03*
X129667000Y-131191000D03*
X151257000Y-115062000D03*
X138430000Y-132588000D03*
X129413000Y-110236000D03*
X146812000Y-135382000D03*
D15*
X154051000Y-92710000D03*
D14*
X160020000Y-98933000D03*
X153797000Y-110744000D03*
X166624000Y-109220000D03*
X143891000Y-105156000D03*
D15*
X151003000Y-92710000D03*
D14*
X153797000Y-114935000D03*
X144653000Y-116840000D03*
X131191000Y-127000000D03*
X136906000Y-101600000D03*
X146304000Y-122047000D03*
X160020000Y-101600000D03*
X144780000Y-120904000D03*
X166624000Y-112395000D03*
X136652000Y-122682000D03*
D15*
X142367000Y-92710000D03*
D14*
X151257000Y-117602000D03*
X144653000Y-123317000D03*
X164338000Y-125603000D03*
X158115000Y-102870000D03*
X151257000Y-110871000D03*
D15*
X160274000Y-92710000D03*
D14*
X129413000Y-114300000D03*
X139192000Y-104140000D03*
X164846000Y-116967000D03*
X158242000Y-97282000D03*
X156464000Y-108458000D03*
X138811000Y-101600000D03*
X143764000Y-102616000D03*
D15*
X157443172Y-92659738D03*
X148082000Y-92710000D03*
D14*
X163322000Y-118618000D03*
D15*
X139319000Y-92710000D03*
D14*
X138684000Y-135763000D03*
D15*
X132600000Y-98000000D03*
D14*
X166624000Y-118491000D03*
X143891000Y-107696000D03*
X142748000Y-109220000D03*
X165989000Y-127000000D03*
X137033000Y-97663000D03*
X129540000Y-128651000D03*
X146812000Y-132588000D03*
D15*
X151511000Y-95377000D03*
D14*
X164846000Y-120396000D03*
X142875000Y-121920000D03*
X164338000Y-128524000D03*
X131953000Y-117348000D03*
X129413000Y-108077000D03*
X129413000Y-117221000D03*
X153797000Y-108585000D03*
D15*
X136271000Y-92710000D03*
D14*
X145161000Y-134112000D03*
X129413000Y-120015000D03*
X153797000Y-117475000D03*
X136525000Y-137033000D03*
X129413000Y-105918000D03*
X142748000Y-106680000D03*
X145161000Y-137287000D03*
X140843000Y-121031000D03*
D15*
X166243000Y-102870000D03*
X163195000Y-92710000D03*
D14*
X165989000Y-129540000D03*
D15*
X136271000Y-94615000D03*
D14*
X144780000Y-118999000D03*
X129413000Y-122936000D03*
X136398000Y-117348000D03*
X129413000Y-103378000D03*
X129413000Y-125730000D03*
X153670000Y-119634000D03*
X131699000Y-110363000D03*
X142113000Y-116840000D03*
D15*
%TO.N,VDD33*%
X162000000Y-117600000D03*
D14*
%TO.N,/ESP32/TXD*%
X152806500Y-124993500D03*
X136652000Y-125880000D03*
%TO.N,/ESP32/RXD*%
X137287000Y-125080000D03*
X152016000Y-124584000D03*
%TD*%
M02*
