%TF.GenerationSoftware,KiCad,Pcbnew,9.0.1*%
%TF.CreationDate,2025-10-26T23:50:52+01:00*%
%TF.ProjectId,onyks-iot-esp32-storage-rfid,6f6e796b-732d-4696-9f74-2d6573703332,rev?*%
%TF.SameCoordinates,Original*%
%TF.FileFunction,Paste,Top*%
%TF.FilePolarity,Positive*%
%FSLAX46Y46*%
G04 Gerber Fmt 4.6, Leading zero omitted, Abs format (unit mm)*
G04 Created by KiCad (PCBNEW 9.0.1) date 2025-10-26 23:50:52*
%MOMM*%
%LPD*%
G01*
G04 APERTURE LIST*
G04 Aperture macros list*
%AMRoundRect*
0 Rectangle with rounded corners*
0 $1 Rounding radius*
0 $2 $3 $4 $5 $6 $7 $8 $9 X,Y pos of 4 corners*
0 Add a 4 corners polygon primitive as box body*
4,1,4,$2,$3,$4,$5,$6,$7,$8,$9,$2,$3,0*
0 Add four circle primitives for the rounded corners*
1,1,$1+$1,$2,$3*
1,1,$1+$1,$4,$5*
1,1,$1+$1,$6,$7*
1,1,$1+$1,$8,$9*
0 Add four rect primitives between the rounded corners*
20,1,$1+$1,$2,$3,$4,$5,0*
20,1,$1+$1,$4,$5,$6,$7,0*
20,1,$1+$1,$6,$7,$8,$9,0*
20,1,$1+$1,$8,$9,$2,$3,0*%
G04 Aperture macros list end*
%ADD10RoundRect,0.237500X0.300000X0.237500X-0.300000X0.237500X-0.300000X-0.237500X0.300000X-0.237500X0*%
%ADD11RoundRect,0.237500X-0.250000X-0.237500X0.250000X-0.237500X0.250000X0.237500X-0.250000X0.237500X0*%
%ADD12R,1.000000X1.250000*%
%ADD13R,0.900000X1.500000*%
%ADD14R,1.500000X0.900000*%
%ADD15R,0.900000X0.900000*%
%ADD16RoundRect,0.237500X0.237500X-0.250000X0.237500X0.250000X-0.237500X0.250000X-0.237500X-0.250000X0*%
%ADD17RoundRect,0.237500X-0.300000X-0.237500X0.300000X-0.237500X0.300000X0.237500X-0.300000X0.237500X0*%
%ADD18RoundRect,0.090000X-0.660000X-0.360000X0.660000X-0.360000X0.660000X0.360000X-0.660000X0.360000X0*%
%ADD19RoundRect,0.150000X-0.587500X-0.150000X0.587500X-0.150000X0.587500X0.150000X-0.587500X0.150000X0*%
%ADD20RoundRect,0.237500X0.237500X-0.300000X0.237500X0.300000X-0.237500X0.300000X-0.237500X-0.300000X0*%
%ADD21RoundRect,0.150000X0.150000X-0.587500X0.150000X0.587500X-0.150000X0.587500X-0.150000X-0.587500X0*%
%ADD22RoundRect,0.150000X-0.512500X-0.150000X0.512500X-0.150000X0.512500X0.150000X-0.512500X0.150000X0*%
%ADD23RoundRect,0.375000X-0.625000X-0.375000X0.625000X-0.375000X0.625000X0.375000X-0.625000X0.375000X0*%
%ADD24RoundRect,0.500000X-0.500000X-1.400000X0.500000X-1.400000X0.500000X1.400000X-0.500000X1.400000X0*%
%ADD25RoundRect,0.237500X-0.237500X0.300000X-0.237500X-0.300000X0.237500X-0.300000X0.237500X0.300000X0*%
%ADD26RoundRect,0.237500X0.250000X0.237500X-0.250000X0.237500X-0.250000X-0.237500X0.250000X-0.237500X0*%
G04 APERTURE END LIST*
D10*
%TO.C,C9*%
X141070500Y-94234000D03*
X139345500Y-94234000D03*
%TD*%
D11*
%TO.C,R1*%
X160175000Y-97200000D03*
X162000000Y-97200000D03*
%TD*%
D12*
%TO.C,SW4*%
X142400000Y-118850000D03*
X142400000Y-126600000D03*
%TD*%
D13*
%TO.C,U1*%
X166270000Y-105500000D03*
X165000000Y-105500000D03*
X163730000Y-105500000D03*
X162460000Y-105500000D03*
X161190000Y-105500000D03*
X159920000Y-105500000D03*
X158650000Y-105500000D03*
X157380000Y-105500000D03*
X156110000Y-105500000D03*
X154840000Y-105500000D03*
X153570000Y-105500000D03*
X152300000Y-105500000D03*
X151030000Y-105500000D03*
X149760000Y-105500000D03*
D14*
X148510000Y-108540000D03*
X148510000Y-109810000D03*
X148510000Y-111080000D03*
X148510000Y-112350000D03*
X148510000Y-113620000D03*
X148510000Y-114890000D03*
X148510000Y-116160000D03*
X148510000Y-117430000D03*
X148510000Y-118700000D03*
X148510000Y-119970000D03*
D13*
X149760000Y-123000000D03*
X151030000Y-123000000D03*
X152300000Y-123000000D03*
X153570000Y-123000000D03*
X154840000Y-123000000D03*
X156110000Y-123000000D03*
X157380000Y-123000000D03*
X158650000Y-123000000D03*
X159920000Y-123000000D03*
X161190000Y-123000000D03*
X162460000Y-123000000D03*
X163730000Y-123000000D03*
X165000000Y-123000000D03*
X166270000Y-123000000D03*
D15*
X159950000Y-111350000D03*
X158550000Y-111350000D03*
X157150000Y-111350000D03*
X159950000Y-112750000D03*
X158550000Y-112750000D03*
X157150000Y-112750000D03*
X159950000Y-114150000D03*
X158550000Y-114150000D03*
X157150000Y-114150000D03*
%TD*%
D16*
%TO.C,R3*%
X154305000Y-129690500D03*
X154305000Y-127865500D03*
%TD*%
D17*
%TO.C,C1*%
X161189500Y-103505000D03*
X162914500Y-103505000D03*
%TD*%
%TO.C,C2*%
X164618500Y-103124000D03*
X166343500Y-103124000D03*
%TD*%
%TO.C,C3*%
X164618500Y-101346000D03*
X166343500Y-101346000D03*
%TD*%
D18*
%TO.C,D1*%
X137300000Y-111600000D03*
X137300000Y-114900000D03*
X142200000Y-114900000D03*
X142200000Y-111600000D03*
%TD*%
D16*
%TO.C,R4*%
X131400000Y-124105000D03*
X131400000Y-122280000D03*
%TD*%
D19*
%TO.C,Q2*%
X156621000Y-127828000D03*
X156621000Y-129728000D03*
X158496000Y-128778000D03*
%TD*%
D20*
%TO.C,C4*%
X131800000Y-107600000D03*
X131800000Y-105875000D03*
%TD*%
D21*
%TO.C,Q1*%
X149900000Y-130653000D03*
X151800000Y-130653000D03*
X150850000Y-128778000D03*
%TD*%
D22*
%TO.C,U2*%
X136600000Y-105900000D03*
X136600000Y-106850000D03*
X136600000Y-107800000D03*
X138875000Y-107800000D03*
X138875000Y-105900000D03*
%TD*%
D20*
%TO.C,C6*%
X131800000Y-101800000D03*
X131800000Y-100075000D03*
%TD*%
D23*
%TO.C,U3*%
X134700000Y-97300000D03*
X134700000Y-99600000D03*
D24*
X141000000Y-99600000D03*
D23*
X134700000Y-101900000D03*
%TD*%
D12*
%TO.C,SW3*%
X142400000Y-137150000D03*
X142400000Y-129400000D03*
%TD*%
D25*
%TO.C,C5*%
X141150000Y-105900000D03*
X141150000Y-107625000D03*
%TD*%
%TO.C,C8*%
X145600000Y-124875000D03*
X145600000Y-126600000D03*
%TD*%
D26*
%TO.C,R2*%
X156233500Y-131445000D03*
X154408500Y-131445000D03*
%TD*%
D20*
%TO.C,C7*%
X145600000Y-131125000D03*
X145600000Y-129400000D03*
%TD*%
M02*
