%TF.GenerationSoftware,KiCad,Pcbnew,9.0.1*%
%TF.CreationDate,2025-10-26T23:50:52+01:00*%
%TF.ProjectId,onyks-iot-esp32-storage-rfid,6f6e796b-732d-4696-9f74-2d6573703332,rev?*%
%TF.SameCoordinates,Original*%
%TF.FileFunction,Copper,L4,Bot*%
%TF.FilePolarity,Positive*%
%FSLAX46Y46*%
G04 Gerber Fmt 4.6, Leading zero omitted, Abs format (unit mm)*
G04 Created by KiCad (PCBNEW 9.0.1) date 2025-10-26 23:50:52*
%MOMM*%
%LPD*%
G01*
G04 APERTURE LIST*
%TA.AperFunction,ComponentPad*%
%ADD10R,1.700000X1.700000*%
%TD*%
%TA.AperFunction,ComponentPad*%
%ADD11C,1.700000*%
%TD*%
%TA.AperFunction,HeatsinkPad*%
%ADD12C,0.600000*%
%TD*%
%TA.AperFunction,ComponentPad*%
%ADD13O,1.700000X1.700000*%
%TD*%
%TA.AperFunction,ViaPad*%
%ADD14C,0.600000*%
%TD*%
%TA.AperFunction,ViaPad*%
%ADD15C,0.500000*%
%TD*%
%TA.AperFunction,Conductor*%
%ADD16C,0.300000*%
%TD*%
%TA.AperFunction,Conductor*%
%ADD17C,0.400000*%
%TD*%
%TA.AperFunction,Conductor*%
%ADD18C,0.200000*%
%TD*%
G04 APERTURE END LIST*
D10*
%TO.P,J4,1,Pin_1*%
%TO.N,VCC*%
X134200000Y-120800000D03*
D11*
%TO.P,J4,2,Pin_2*%
%TO.N,/ESP32/RXD*%
X134200000Y-123340000D03*
%TO.P,J4,3,Pin_3*%
%TO.N,/ESP32/TXD*%
X134200000Y-125880000D03*
%TO.P,J4,4,Pin_4*%
%TO.N,GND*%
X134200000Y-128420000D03*
%TD*%
D12*
%TO.P,U1,39,GND*%
%TO.N,GND*%
X159250000Y-111350000D03*
X157850000Y-111350000D03*
X159950000Y-112050000D03*
X158550000Y-112050000D03*
X157150000Y-112050000D03*
X159250000Y-112725000D03*
X157850000Y-112725000D03*
X159950000Y-113450000D03*
X158550000Y-113450000D03*
X157150000Y-113450000D03*
X159250000Y-114150000D03*
X157850000Y-114150000D03*
%TD*%
D10*
%TO.P,J3,1,Pin_1*%
%TO.N,VDD33*%
X155080000Y-97700000D03*
D13*
%TO.P,J3,2,Pin_2*%
%TO.N,GND*%
X152580000Y-97700000D03*
%TO.P,J3,3,Pin_3*%
X150080000Y-97700000D03*
%TO.P,J3,4,Pin_4*%
%TO.N,unconnected-(J3-Pin_4-Pad4)*%
X147580000Y-97700000D03*
%TO.P,J3,5,Pin_5*%
%TO.N,GND*%
X145080000Y-97700000D03*
%TO.P,J3,6,Pin_6*%
%TO.N,/ESP32/MTMS*%
X152580000Y-100200000D03*
%TO.P,J3,7,Pin_7*%
%TO.N,/ESP32/MTCK*%
X147580000Y-100200000D03*
%TO.P,J3,8,Pin_8*%
%TO.N,/ESP32/MTDO*%
X145080000Y-100200000D03*
%TO.P,J3,9,Pin_9*%
%TO.N,/ESP32/MTDI*%
X150000000Y-100200000D03*
%TO.P,J3,10,Pin_10*%
%TO.N,unconnected-(J3-Pin_10-Pad10)*%
X155080000Y-100200000D03*
%TD*%
D10*
%TO.P,J2,1,Pin_1*%
%TO.N,VDD33*%
X158700000Y-134400000D03*
D13*
%TO.P,J2,2,Pin_2*%
%TO.N,GND*%
X151200000Y-134400000D03*
%TO.P,J2,3,Pin_3*%
%TO.N,/ESP32/PROGRAM_RXD*%
X161200000Y-134400000D03*
%TO.P,J2,4,Pin_4*%
%TO.N,/ESP32/PROGRAM_TXD*%
X163740000Y-134400000D03*
%TO.P,J2,5,Pin_5*%
%TO.N,/ESP32/DTR*%
X156200000Y-134400000D03*
%TO.P,J2,6,Pin_6*%
%TO.N,/ESP32/RTS*%
X153700000Y-134400000D03*
%TD*%
D10*
%TO.P,J1,1,Pin_1*%
%TO.N,VCC*%
X134200000Y-114600000D03*
D13*
%TO.P,J1,2,Pin_2*%
%TO.N,GND*%
X131660000Y-114600000D03*
%TD*%
D14*
%TO.N,/ESP32/EN*%
X160608000Y-117047000D03*
X157480000Y-126838000D03*
%TO.N,GND*%
X138049000Y-95758000D03*
X151257000Y-112903000D03*
X142621000Y-104140000D03*
X136017000Y-104140000D03*
X136525000Y-134239000D03*
X136525000Y-131318000D03*
X158242000Y-100584000D03*
X166116000Y-99822000D03*
X166116000Y-95631000D03*
X166116000Y-97409000D03*
X131445000Y-129921000D03*
X136652000Y-120015000D03*
X155702000Y-102870000D03*
X151384000Y-108458000D03*
D15*
X146177000Y-95377000D03*
D14*
X151257000Y-119634000D03*
D15*
X145161000Y-92710000D03*
D14*
X154305000Y-125222000D03*
X156210000Y-125222000D03*
X140843000Y-123317000D03*
X166624000Y-115570000D03*
D15*
X135200000Y-106850000D03*
D14*
X153924000Y-112903000D03*
X129667000Y-131191000D03*
X151257000Y-115062000D03*
X138430000Y-132588000D03*
X129413000Y-110236000D03*
X146812000Y-135382000D03*
D15*
X154051000Y-92710000D03*
D14*
X160020000Y-98933000D03*
X153797000Y-110744000D03*
X166624000Y-109220000D03*
X143891000Y-105156000D03*
D15*
X151003000Y-92710000D03*
D14*
X153797000Y-114935000D03*
X144653000Y-116840000D03*
X131191000Y-127000000D03*
X136906000Y-101600000D03*
X146304000Y-122047000D03*
X160020000Y-101600000D03*
X144780000Y-120904000D03*
X166624000Y-112395000D03*
X136652000Y-122682000D03*
D15*
X142367000Y-92710000D03*
D14*
X151257000Y-117602000D03*
X144653000Y-123317000D03*
X164338000Y-125603000D03*
X158115000Y-102870000D03*
X151257000Y-110871000D03*
D15*
X160274000Y-92710000D03*
D14*
X129413000Y-114300000D03*
X139192000Y-104140000D03*
X164846000Y-116967000D03*
X158242000Y-97282000D03*
X156464000Y-108458000D03*
X138811000Y-101600000D03*
X143764000Y-102616000D03*
D15*
X157443172Y-92659738D03*
X148082000Y-92710000D03*
D14*
X163322000Y-118618000D03*
D15*
X139319000Y-92710000D03*
D14*
X138684000Y-135763000D03*
D15*
X132600000Y-98000000D03*
D14*
X166624000Y-118491000D03*
X143891000Y-107696000D03*
X142748000Y-109220000D03*
X165989000Y-127000000D03*
X137033000Y-97663000D03*
X129540000Y-128651000D03*
X146812000Y-132588000D03*
D15*
X151511000Y-95377000D03*
D14*
X164846000Y-120396000D03*
X142875000Y-121920000D03*
X164338000Y-128524000D03*
X131953000Y-117348000D03*
X129413000Y-108077000D03*
X129413000Y-117221000D03*
X153797000Y-108585000D03*
D15*
X136271000Y-92710000D03*
D14*
X145161000Y-134112000D03*
X129413000Y-120015000D03*
X153797000Y-117475000D03*
X136525000Y-137033000D03*
X129413000Y-105918000D03*
X142748000Y-106680000D03*
X145161000Y-137287000D03*
X140843000Y-121031000D03*
D15*
X166243000Y-102870000D03*
X163195000Y-92710000D03*
D14*
X165989000Y-129540000D03*
D15*
X136271000Y-94615000D03*
D14*
X144780000Y-118999000D03*
X129413000Y-122936000D03*
X136398000Y-117348000D03*
X129413000Y-103378000D03*
X129413000Y-125730000D03*
X153670000Y-119634000D03*
X131699000Y-110363000D03*
X142113000Y-116840000D03*
D15*
%TO.N,VDD33*%
X162000000Y-117600000D03*
D14*
%TO.N,/ESP32/TXD*%
X152806500Y-124993500D03*
X136652000Y-125880000D03*
%TO.N,/ESP32/RXD*%
X137287000Y-125080000D03*
X152016000Y-124584000D03*
%TD*%
D16*
%TO.N,/ESP32/EN*%
X160655000Y-117000000D02*
X160608000Y-117047000D01*
X157480000Y-120175000D02*
X160608000Y-117047000D01*
X157480000Y-126838000D02*
X157480000Y-120175000D01*
D17*
%TO.N,VDD33*%
X158700000Y-120900000D02*
X158700000Y-134400000D01*
X162000000Y-117600000D02*
X158700000Y-120900000D01*
D18*
%TO.N,/ESP32/TXD*%
X151920000Y-125880000D02*
X136652000Y-125880000D01*
X152800000Y-125000000D02*
X151920000Y-125880000D01*
X136652000Y-125880000D02*
X136600000Y-125880000D01*
%TO.N,/ESP32/RXD*%
X137287000Y-125080000D02*
X151520000Y-125080000D01*
X151520000Y-125080000D02*
X152000000Y-124600000D01*
X137200000Y-125080000D02*
X137287000Y-125080000D01*
%TD*%
%TA.AperFunction,Conductor*%
%TO.N,GND*%
G36*
X167529191Y-92019407D02*
G01*
X167565155Y-92068907D01*
X167570000Y-92099500D01*
X167570000Y-97892466D01*
X167569999Y-97892855D01*
X167406670Y-139500889D01*
X167387535Y-139559005D01*
X167337894Y-139594774D01*
X167307671Y-139599500D01*
X130802773Y-139599500D01*
X130797222Y-139599344D01*
X130492105Y-139582208D01*
X130481073Y-139580965D01*
X130182538Y-139530243D01*
X130171716Y-139527773D01*
X130078399Y-139500889D01*
X129880724Y-139443939D01*
X129870245Y-139440272D01*
X129590476Y-139324388D01*
X129580474Y-139319571D01*
X129315444Y-139173094D01*
X129306044Y-139167188D01*
X129059069Y-138991950D01*
X129050389Y-138985027D01*
X128824600Y-138783249D01*
X128816750Y-138775399D01*
X128614972Y-138549610D01*
X128608049Y-138540930D01*
X128432811Y-138293955D01*
X128426905Y-138284555D01*
X128280428Y-138019525D01*
X128275611Y-138009523D01*
X128159727Y-137729754D01*
X128156060Y-137719275D01*
X128153072Y-137708903D01*
X128072222Y-137428270D01*
X128069759Y-137417476D01*
X128019033Y-137118921D01*
X128017791Y-137107894D01*
X128007127Y-136918012D01*
X128000656Y-136802777D01*
X128000500Y-136797226D01*
X128000500Y-136681987D01*
X128999500Y-136681987D01*
X128999500Y-136918012D01*
X129030306Y-137152006D01*
X129030306Y-137152011D01*
X129091393Y-137379992D01*
X129181713Y-137598044D01*
X129299729Y-137802453D01*
X129443402Y-137989692D01*
X129443404Y-137989694D01*
X129443408Y-137989699D01*
X129610301Y-138156592D01*
X129610305Y-138156595D01*
X129610307Y-138156597D01*
X129732033Y-138250000D01*
X129797550Y-138300273D01*
X130001951Y-138418284D01*
X130001952Y-138418284D01*
X130001955Y-138418286D01*
X130220007Y-138508606D01*
X130447986Y-138569693D01*
X130681989Y-138600500D01*
X130681990Y-138600500D01*
X130918010Y-138600500D01*
X130918011Y-138600500D01*
X131152014Y-138569693D01*
X131379993Y-138508606D01*
X131598049Y-138418284D01*
X131802450Y-138300273D01*
X131989699Y-138156592D01*
X132156592Y-137989699D01*
X132300273Y-137802450D01*
X132418284Y-137598049D01*
X132508606Y-137379993D01*
X132569693Y-137152014D01*
X132600500Y-136918011D01*
X132600500Y-136681989D01*
X132569693Y-136447986D01*
X132508606Y-136220007D01*
X132418284Y-136001951D01*
X132300273Y-135797550D01*
X132156592Y-135610301D01*
X131989699Y-135443408D01*
X131989694Y-135443404D01*
X131989692Y-135443402D01*
X131802453Y-135299729D01*
X131794035Y-135294869D01*
X131598049Y-135181716D01*
X131598044Y-135181713D01*
X131379992Y-135091393D01*
X131224277Y-135049670D01*
X131152014Y-135030307D01*
X131152011Y-135030306D01*
X131152009Y-135030306D01*
X130918012Y-134999500D01*
X130918011Y-134999500D01*
X130681989Y-134999500D01*
X130681987Y-134999500D01*
X130447993Y-135030306D01*
X130447988Y-135030306D01*
X130220007Y-135091393D01*
X130001955Y-135181713D01*
X129797546Y-135299729D01*
X129610307Y-135443402D01*
X129443402Y-135610307D01*
X129299729Y-135797546D01*
X129181713Y-136001955D01*
X129091393Y-136220007D01*
X129030306Y-136447988D01*
X129030306Y-136447993D01*
X128999500Y-136681987D01*
X128000500Y-136681987D01*
X128000500Y-134149999D01*
X150075261Y-134149999D01*
X150075261Y-134150000D01*
X150766988Y-134150000D01*
X150734075Y-134207007D01*
X150700000Y-134334174D01*
X150700000Y-134465826D01*
X150734075Y-134592993D01*
X150766988Y-134650000D01*
X150075261Y-134650000D01*
X150078317Y-134669292D01*
X150134250Y-134841440D01*
X150216431Y-135002730D01*
X150216433Y-135002734D01*
X150322824Y-135149169D01*
X150450830Y-135277175D01*
X150597265Y-135383566D01*
X150597269Y-135383568D01*
X150758559Y-135465749D01*
X150930705Y-135521682D01*
X150950000Y-135524737D01*
X150950000Y-134833012D01*
X151007007Y-134865925D01*
X151134174Y-134900000D01*
X151265826Y-134900000D01*
X151392993Y-134865925D01*
X151450000Y-134833012D01*
X151450000Y-135524737D01*
X151469294Y-135521682D01*
X151641440Y-135465749D01*
X151802730Y-135383568D01*
X151802734Y-135383566D01*
X151949169Y-135277175D01*
X152077175Y-135149169D01*
X152183566Y-135002734D01*
X152183568Y-135002730D01*
X152265749Y-134841440D01*
X152321682Y-134669292D01*
X152324739Y-134650000D01*
X151633012Y-134650000D01*
X151665925Y-134592993D01*
X151700000Y-134465826D01*
X151700000Y-134334174D01*
X151693375Y-134309450D01*
X152549500Y-134309450D01*
X152549500Y-134490549D01*
X152577828Y-134669406D01*
X152633788Y-134841637D01*
X152715871Y-135002734D01*
X152716004Y-135002994D01*
X152822447Y-135149501D01*
X152950499Y-135277553D01*
X153097006Y-135383996D01*
X153258361Y-135466211D01*
X153430591Y-135522171D01*
X153502136Y-135533502D01*
X153609451Y-135550500D01*
X153609454Y-135550500D01*
X153790549Y-135550500D01*
X153879977Y-135536335D01*
X153969409Y-135522171D01*
X154141639Y-135466211D01*
X154302994Y-135383996D01*
X154449501Y-135277553D01*
X154577553Y-135149501D01*
X154683996Y-135002994D01*
X154766211Y-134841639D01*
X154822171Y-134669409D01*
X154850500Y-134490546D01*
X154850500Y-134309454D01*
X154850500Y-134309450D01*
X155049500Y-134309450D01*
X155049500Y-134490549D01*
X155077828Y-134669406D01*
X155133788Y-134841637D01*
X155215871Y-135002734D01*
X155216004Y-135002994D01*
X155322447Y-135149501D01*
X155450499Y-135277553D01*
X155597006Y-135383996D01*
X155758361Y-135466211D01*
X155930591Y-135522171D01*
X156002136Y-135533502D01*
X156109451Y-135550500D01*
X156109454Y-135550500D01*
X156290549Y-135550500D01*
X156379977Y-135536335D01*
X156469409Y-135522171D01*
X156641639Y-135466211D01*
X156802994Y-135383996D01*
X156949501Y-135277553D01*
X157077553Y-135149501D01*
X157183996Y-135002994D01*
X157266211Y-134841639D01*
X157322171Y-134669409D01*
X157350500Y-134490546D01*
X157350500Y-134309454D01*
X157350500Y-134309450D01*
X157322171Y-134130593D01*
X157322171Y-134130591D01*
X157266211Y-133958361D01*
X157183996Y-133797006D01*
X157077553Y-133650499D01*
X156949501Y-133522447D01*
X156802994Y-133416004D01*
X156802993Y-133416003D01*
X156802991Y-133416002D01*
X156641637Y-133333788D01*
X156469406Y-133277828D01*
X156290549Y-133249500D01*
X156290546Y-133249500D01*
X156109454Y-133249500D01*
X156109451Y-133249500D01*
X155930593Y-133277828D01*
X155758362Y-133333788D01*
X155597008Y-133416002D01*
X155523752Y-133469225D01*
X155450499Y-133522447D01*
X155322447Y-133650499D01*
X155322207Y-133650830D01*
X155216002Y-133797008D01*
X155133788Y-133958362D01*
X155077828Y-134130593D01*
X155049500Y-134309450D01*
X154850500Y-134309450D01*
X154822171Y-134130593D01*
X154822171Y-134130591D01*
X154766211Y-133958361D01*
X154683996Y-133797006D01*
X154577553Y-133650499D01*
X154449501Y-133522447D01*
X154302994Y-133416004D01*
X154302993Y-133416003D01*
X154302991Y-133416002D01*
X154141637Y-133333788D01*
X153969406Y-133277828D01*
X153790549Y-133249500D01*
X153790546Y-133249500D01*
X153609454Y-133249500D01*
X153609451Y-133249500D01*
X153430593Y-133277828D01*
X153258362Y-133333788D01*
X153097008Y-133416002D01*
X153023752Y-133469225D01*
X152950499Y-133522447D01*
X152822447Y-133650499D01*
X152822207Y-133650830D01*
X152716002Y-133797008D01*
X152633788Y-133958362D01*
X152577828Y-134130593D01*
X152549500Y-134309450D01*
X151693375Y-134309450D01*
X151665925Y-134207007D01*
X151633012Y-134150000D01*
X152324739Y-134150000D01*
X152324738Y-134149999D01*
X152321682Y-134130707D01*
X152265749Y-133958559D01*
X152183568Y-133797269D01*
X152183566Y-133797265D01*
X152077175Y-133650830D01*
X151949169Y-133522824D01*
X151802734Y-133416433D01*
X151802730Y-133416431D01*
X151641440Y-133334250D01*
X151469292Y-133278317D01*
X151450000Y-133275261D01*
X151450000Y-133966988D01*
X151392993Y-133934075D01*
X151265826Y-133900000D01*
X151134174Y-133900000D01*
X151007007Y-133934075D01*
X150950000Y-133966988D01*
X150950000Y-133275261D01*
X150949999Y-133275261D01*
X150930707Y-133278317D01*
X150758559Y-133334250D01*
X150597269Y-133416431D01*
X150597265Y-133416433D01*
X150450830Y-133522824D01*
X150322824Y-133650830D01*
X150216433Y-133797265D01*
X150216431Y-133797269D01*
X150134250Y-133958559D01*
X150078317Y-134130707D01*
X150075261Y-134149999D01*
X128000500Y-134149999D01*
X128000500Y-128329489D01*
X133050000Y-128329489D01*
X133050000Y-128510510D01*
X133078316Y-128689289D01*
X133134250Y-128861440D01*
X133216432Y-129022730D01*
X133227911Y-129038531D01*
X133717036Y-128549406D01*
X133734075Y-128612993D01*
X133799901Y-128727007D01*
X133892993Y-128820099D01*
X134007007Y-128885925D01*
X134070591Y-128902962D01*
X133581466Y-129392087D01*
X133597266Y-129403566D01*
X133758559Y-129485749D01*
X133930710Y-129541683D01*
X134109490Y-129570000D01*
X134290510Y-129570000D01*
X134469289Y-129541683D01*
X134641440Y-129485749D01*
X134802730Y-129403568D01*
X134802735Y-129403564D01*
X134818532Y-129392087D01*
X134818532Y-129392086D01*
X134329408Y-128902962D01*
X134392993Y-128885925D01*
X134507007Y-128820099D01*
X134600099Y-128727007D01*
X134665925Y-128612993D01*
X134682962Y-128549408D01*
X135172086Y-129038532D01*
X135172087Y-129038532D01*
X135183564Y-129022735D01*
X135183568Y-129022730D01*
X135265749Y-128861440D01*
X135321683Y-128689289D01*
X135350000Y-128510510D01*
X135350000Y-128329489D01*
X135321683Y-128150710D01*
X135265749Y-127978559D01*
X135183566Y-127817266D01*
X135172087Y-127801466D01*
X134682962Y-128290591D01*
X134665925Y-128227007D01*
X134600099Y-128112993D01*
X134507007Y-128019901D01*
X134392993Y-127954075D01*
X134329406Y-127937036D01*
X134818532Y-127447911D01*
X134802730Y-127436432D01*
X134641440Y-127354250D01*
X134469289Y-127298316D01*
X134290510Y-127270000D01*
X134109490Y-127270000D01*
X133930710Y-127298316D01*
X133758559Y-127354250D01*
X133597264Y-127436434D01*
X133581466Y-127447911D01*
X134070592Y-127937037D01*
X134007007Y-127954075D01*
X133892993Y-128019901D01*
X133799901Y-128112993D01*
X133734075Y-128227007D01*
X133717037Y-128290592D01*
X133227911Y-127801466D01*
X133216434Y-127817264D01*
X133134250Y-127978559D01*
X133078316Y-128150710D01*
X133050000Y-128329489D01*
X128000500Y-128329489D01*
X128000500Y-125789450D01*
X133049500Y-125789450D01*
X133049500Y-125970549D01*
X133077828Y-126149406D01*
X133133788Y-126321637D01*
X133209015Y-126469279D01*
X133216004Y-126482994D01*
X133322447Y-126629501D01*
X133450499Y-126757553D01*
X133597006Y-126863996D01*
X133758361Y-126946211D01*
X133930591Y-127002171D01*
X134002136Y-127013502D01*
X134109451Y-127030500D01*
X134109454Y-127030500D01*
X134290549Y-127030500D01*
X134379977Y-127016335D01*
X134469409Y-127002171D01*
X134641639Y-126946211D01*
X134802994Y-126863996D01*
X134947588Y-126758943D01*
X156879500Y-126758943D01*
X156879500Y-126917057D01*
X156920423Y-127069784D01*
X156999480Y-127206716D01*
X157111284Y-127318520D01*
X157248216Y-127397577D01*
X157400943Y-127438500D01*
X157400945Y-127438500D01*
X157559055Y-127438500D01*
X157559057Y-127438500D01*
X157711784Y-127397577D01*
X157848716Y-127318520D01*
X157960520Y-127206716D01*
X158014764Y-127112760D01*
X158060233Y-127071821D01*
X158121083Y-127065425D01*
X158174071Y-127096018D01*
X158198958Y-127151913D01*
X158199500Y-127162262D01*
X158199500Y-133150500D01*
X158180593Y-133208691D01*
X158131093Y-133244655D01*
X158100500Y-133249500D01*
X157805139Y-133249500D01*
X157805136Y-133249501D01*
X157780009Y-133252414D01*
X157677235Y-133297794D01*
X157597794Y-133377235D01*
X157552414Y-133480011D01*
X157549500Y-133505130D01*
X157549500Y-135294860D01*
X157549501Y-135294863D01*
X157552414Y-135319990D01*
X157577756Y-135377385D01*
X157597794Y-135422765D01*
X157677235Y-135502206D01*
X157780009Y-135547585D01*
X157805135Y-135550500D01*
X159594864Y-135550499D01*
X159619991Y-135547585D01*
X159722765Y-135502206D01*
X159802206Y-135422765D01*
X159847585Y-135319991D01*
X159850500Y-135294865D01*
X159850499Y-134309450D01*
X160049500Y-134309450D01*
X160049500Y-134490549D01*
X160077828Y-134669406D01*
X160133788Y-134841637D01*
X160215871Y-135002734D01*
X160216004Y-135002994D01*
X160322447Y-135149501D01*
X160450499Y-135277553D01*
X160597006Y-135383996D01*
X160758361Y-135466211D01*
X160930591Y-135522171D01*
X161002136Y-135533502D01*
X161109451Y-135550500D01*
X161109454Y-135550500D01*
X161290549Y-135550500D01*
X161379977Y-135536335D01*
X161469409Y-135522171D01*
X161641639Y-135466211D01*
X161802994Y-135383996D01*
X161949501Y-135277553D01*
X162077553Y-135149501D01*
X162183996Y-135002994D01*
X162266211Y-134841639D01*
X162322171Y-134669409D01*
X162350500Y-134490546D01*
X162350500Y-134309454D01*
X162350500Y-134309450D01*
X162589500Y-134309450D01*
X162589500Y-134490549D01*
X162617828Y-134669406D01*
X162673788Y-134841637D01*
X162755871Y-135002734D01*
X162756004Y-135002994D01*
X162862447Y-135149501D01*
X162990499Y-135277553D01*
X163137006Y-135383996D01*
X163298361Y-135466211D01*
X163470591Y-135522171D01*
X163542136Y-135533502D01*
X163649451Y-135550500D01*
X163649454Y-135550500D01*
X163830549Y-135550500D01*
X163919977Y-135536335D01*
X164009409Y-135522171D01*
X164181639Y-135466211D01*
X164342994Y-135383996D01*
X164489501Y-135277553D01*
X164617553Y-135149501D01*
X164723996Y-135002994D01*
X164806211Y-134841639D01*
X164862171Y-134669409D01*
X164890500Y-134490546D01*
X164890500Y-134309454D01*
X164890500Y-134309450D01*
X164862171Y-134130593D01*
X164862171Y-134130591D01*
X164806211Y-133958361D01*
X164723996Y-133797006D01*
X164617553Y-133650499D01*
X164489501Y-133522447D01*
X164342994Y-133416004D01*
X164342993Y-133416003D01*
X164342991Y-133416002D01*
X164181637Y-133333788D01*
X164009406Y-133277828D01*
X163830549Y-133249500D01*
X163830546Y-133249500D01*
X163649454Y-133249500D01*
X163649451Y-133249500D01*
X163470593Y-133277828D01*
X163298362Y-133333788D01*
X163137008Y-133416002D01*
X163063752Y-133469225D01*
X162990499Y-133522447D01*
X162862447Y-133650499D01*
X162862207Y-133650830D01*
X162756002Y-133797008D01*
X162673788Y-133958362D01*
X162617828Y-134130593D01*
X162589500Y-134309450D01*
X162350500Y-134309450D01*
X162322171Y-134130593D01*
X162322171Y-134130591D01*
X162266211Y-133958361D01*
X162183996Y-133797006D01*
X162077553Y-133650499D01*
X161949501Y-133522447D01*
X161802994Y-133416004D01*
X161802993Y-133416003D01*
X161802991Y-133416002D01*
X161641637Y-133333788D01*
X161469406Y-133277828D01*
X161290549Y-133249500D01*
X161290546Y-133249500D01*
X161109454Y-133249500D01*
X161109451Y-133249500D01*
X160930593Y-133277828D01*
X160758362Y-133333788D01*
X160597008Y-133416002D01*
X160523752Y-133469225D01*
X160450499Y-133522447D01*
X160322447Y-133650499D01*
X160322207Y-133650830D01*
X160216002Y-133797008D01*
X160133788Y-133958362D01*
X160077828Y-134130593D01*
X160049500Y-134309450D01*
X159850499Y-134309450D01*
X159850499Y-133505136D01*
X159847585Y-133480009D01*
X159802206Y-133377235D01*
X159722765Y-133297794D01*
X159619991Y-133252415D01*
X159619990Y-133252414D01*
X159619988Y-133252414D01*
X159594869Y-133249500D01*
X159594865Y-133249500D01*
X159299500Y-133249500D01*
X159241309Y-133230593D01*
X159205345Y-133181093D01*
X159200500Y-133150500D01*
X159200500Y-121148321D01*
X159219407Y-121090130D01*
X159229490Y-121078323D01*
X162169611Y-118138201D01*
X162206970Y-118116637D01*
X162206486Y-118115469D01*
X162212481Y-118112985D01*
X162212480Y-118112985D01*
X162212485Y-118112984D01*
X162338015Y-118040509D01*
X162440509Y-117938015D01*
X162512984Y-117812485D01*
X162550500Y-117672475D01*
X162550500Y-117527525D01*
X162512984Y-117387515D01*
X162512982Y-117387512D01*
X162512982Y-117387510D01*
X162440512Y-117261989D01*
X162440510Y-117261987D01*
X162440509Y-117261985D01*
X162338015Y-117159491D01*
X162338012Y-117159489D01*
X162338010Y-117159487D01*
X162212488Y-117087017D01*
X162212489Y-117087017D01*
X162182896Y-117079087D01*
X162072475Y-117049500D01*
X161927525Y-117049500D01*
X161865790Y-117066041D01*
X161787510Y-117087017D01*
X161661989Y-117159487D01*
X161559490Y-117261986D01*
X161487014Y-117387519D01*
X161484533Y-117393510D01*
X161483369Y-117393027D01*
X161461798Y-117430386D01*
X158392686Y-120499500D01*
X158392685Y-120499499D01*
X158299500Y-120592685D01*
X158299496Y-120592690D01*
X158233609Y-120706809D01*
X158199500Y-120834109D01*
X158199500Y-126513737D01*
X158198275Y-126517507D01*
X158199206Y-126521360D01*
X158188926Y-126546280D01*
X158180593Y-126571928D01*
X158177385Y-126574258D01*
X158175874Y-126577922D01*
X158152910Y-126592040D01*
X158131093Y-126607892D01*
X158127129Y-126607892D01*
X158123752Y-126609968D01*
X158096870Y-126607892D01*
X158069907Y-126607892D01*
X158066700Y-126605562D01*
X158062749Y-126605257D01*
X158045546Y-126590193D01*
X158020407Y-126571928D01*
X158016165Y-126565588D01*
X158015437Y-126564403D01*
X157960520Y-126469284D01*
X157951265Y-126460029D01*
X157945165Y-126450107D01*
X157940580Y-126431132D01*
X157931717Y-126413734D01*
X157930500Y-126398256D01*
X157930500Y-120402611D01*
X157949407Y-120344420D01*
X157959496Y-120332607D01*
X160615607Y-117676496D01*
X160670124Y-117648719D01*
X160685611Y-117647500D01*
X160687055Y-117647500D01*
X160687057Y-117647500D01*
X160839784Y-117606577D01*
X160976716Y-117527520D01*
X161088520Y-117415716D01*
X161167577Y-117278784D01*
X161208500Y-117126057D01*
X161208500Y-116967943D01*
X161167577Y-116815216D01*
X161088520Y-116678284D01*
X160976716Y-116566480D01*
X160839784Y-116487423D01*
X160687057Y-116446500D01*
X160528943Y-116446500D01*
X160376216Y-116487423D01*
X160239284Y-116566480D01*
X160127480Y-116678284D01*
X160048423Y-116815216D01*
X160007500Y-116967944D01*
X160007500Y-116969389D01*
X160007180Y-116970373D01*
X160006653Y-116974377D01*
X160005911Y-116974279D01*
X159988593Y-117027580D01*
X159978504Y-117039393D01*
X157119507Y-119898390D01*
X157060200Y-120001112D01*
X157060200Y-120001113D01*
X157060201Y-120001114D01*
X157029500Y-120115692D01*
X157029500Y-126398256D01*
X157010593Y-126456447D01*
X157000510Y-126468253D01*
X156999483Y-126469279D01*
X156999480Y-126469283D01*
X156999480Y-126469284D01*
X156920423Y-126606216D01*
X156879500Y-126758943D01*
X134947588Y-126758943D01*
X134949501Y-126757553D01*
X135077553Y-126629501D01*
X135183996Y-126482994D01*
X135266211Y-126321639D01*
X135322171Y-126149409D01*
X135350500Y-125970546D01*
X135350500Y-125800943D01*
X136051500Y-125800943D01*
X136051500Y-125959057D01*
X136092423Y-126111784D01*
X136171480Y-126248716D01*
X136283284Y-126360520D01*
X136420216Y-126439577D01*
X136572943Y-126480500D01*
X136572945Y-126480500D01*
X136731055Y-126480500D01*
X136731057Y-126480500D01*
X136883784Y-126439577D01*
X137020716Y-126360520D01*
X137046229Y-126335006D01*
X137071741Y-126309496D01*
X137126258Y-126281719D01*
X137141744Y-126280500D01*
X151972725Y-126280500D01*
X151972727Y-126280500D01*
X152074588Y-126253207D01*
X152074590Y-126253205D01*
X152074592Y-126253205D01*
X152165908Y-126200483D01*
X152165908Y-126200482D01*
X152165913Y-126200480D01*
X152743397Y-125622996D01*
X152797914Y-125595219D01*
X152813401Y-125594000D01*
X152885555Y-125594000D01*
X152885557Y-125594000D01*
X153038284Y-125553077D01*
X153175216Y-125474020D01*
X153287020Y-125362216D01*
X153366077Y-125225284D01*
X153407000Y-125072557D01*
X153407000Y-124914443D01*
X153366077Y-124761716D01*
X153287020Y-124624784D01*
X153175216Y-124512980D01*
X153038284Y-124433923D01*
X152885557Y-124393000D01*
X152727443Y-124393000D01*
X152727440Y-124393000D01*
X152689689Y-124403115D01*
X152628587Y-124399912D01*
X152581038Y-124361405D01*
X152578331Y-124356988D01*
X152575577Y-124352219D01*
X152575577Y-124352216D01*
X152496520Y-124215284D01*
X152384716Y-124103480D01*
X152247784Y-124024423D01*
X152095057Y-123983500D01*
X151936943Y-123983500D01*
X151784216Y-124024423D01*
X151647284Y-124103480D01*
X151535480Y-124215284D01*
X151456423Y-124352216D01*
X151422318Y-124479500D01*
X151415500Y-124504944D01*
X151415500Y-124577099D01*
X151413031Y-124584696D01*
X151414281Y-124592586D01*
X151403756Y-124613241D01*
X151396593Y-124635290D01*
X151386504Y-124647103D01*
X151383103Y-124650504D01*
X151328586Y-124678281D01*
X151313099Y-124679500D01*
X137776744Y-124679500D01*
X137718553Y-124660593D01*
X137706741Y-124650504D01*
X137655718Y-124599482D01*
X137655716Y-124599480D01*
X137518784Y-124520423D01*
X137366057Y-124479500D01*
X137207943Y-124479500D01*
X137112985Y-124504944D01*
X137055216Y-124520423D01*
X136918284Y-124599480D01*
X136806480Y-124711284D01*
X136727423Y-124848216D01*
X136686500Y-125000944D01*
X136686500Y-125159057D01*
X136687347Y-125165491D01*
X136684807Y-125165825D01*
X136682174Y-125215987D01*
X136643664Y-125263533D01*
X136589753Y-125279500D01*
X136572943Y-125279500D01*
X136420216Y-125320423D01*
X136283284Y-125399480D01*
X136171480Y-125511284D01*
X136092423Y-125648216D01*
X136051500Y-125800943D01*
X135350500Y-125800943D01*
X135350500Y-125789454D01*
X135350500Y-125789450D01*
X135322171Y-125610593D01*
X135322171Y-125610591D01*
X135266211Y-125438361D01*
X135183996Y-125277006D01*
X135077553Y-125130499D01*
X134949501Y-125002447D01*
X134802994Y-124896004D01*
X134802993Y-124896003D01*
X134802991Y-124896002D01*
X134641637Y-124813788D01*
X134469406Y-124757828D01*
X134290549Y-124729500D01*
X134290546Y-124729500D01*
X134109454Y-124729500D01*
X134109451Y-124729500D01*
X133930593Y-124757828D01*
X133758362Y-124813788D01*
X133597008Y-124896002D01*
X133571625Y-124914444D01*
X133450499Y-125002447D01*
X133322447Y-125130499D01*
X133283213Y-125184500D01*
X133216002Y-125277008D01*
X133133788Y-125438362D01*
X133077828Y-125610593D01*
X133049500Y-125789450D01*
X128000500Y-125789450D01*
X128000500Y-123249450D01*
X133049500Y-123249450D01*
X133049500Y-123430549D01*
X133077828Y-123609406D01*
X133077829Y-123609409D01*
X133133789Y-123781639D01*
X133216004Y-123942994D01*
X133322447Y-124089501D01*
X133450499Y-124217553D01*
X133597006Y-124323996D01*
X133758361Y-124406211D01*
X133930591Y-124462171D01*
X134002136Y-124473502D01*
X134109451Y-124490500D01*
X134109454Y-124490500D01*
X134290549Y-124490500D01*
X134379977Y-124476335D01*
X134469409Y-124462171D01*
X134641639Y-124406211D01*
X134802994Y-124323996D01*
X134949501Y-124217553D01*
X135077553Y-124089501D01*
X135183996Y-123942994D01*
X135266211Y-123781639D01*
X135322171Y-123609409D01*
X135350500Y-123430546D01*
X135350500Y-123249454D01*
X135350500Y-123249450D01*
X135322171Y-123070593D01*
X135322171Y-123070591D01*
X135266211Y-122898361D01*
X135183996Y-122737006D01*
X135077553Y-122590499D01*
X134949501Y-122462447D01*
X134802994Y-122356004D01*
X134802993Y-122356003D01*
X134802991Y-122356002D01*
X134641637Y-122273788D01*
X134469406Y-122217828D01*
X134290549Y-122189500D01*
X134290546Y-122189500D01*
X134109454Y-122189500D01*
X134109451Y-122189500D01*
X133930593Y-122217828D01*
X133758362Y-122273788D01*
X133597008Y-122356002D01*
X133523752Y-122409225D01*
X133450499Y-122462447D01*
X133322447Y-122590499D01*
X133269225Y-122663752D01*
X133216002Y-122737008D01*
X133133788Y-122898362D01*
X133077828Y-123070593D01*
X133049500Y-123249450D01*
X128000500Y-123249450D01*
X128000500Y-119905130D01*
X133049500Y-119905130D01*
X133049500Y-121694860D01*
X133049501Y-121694863D01*
X133052414Y-121719990D01*
X133077756Y-121777385D01*
X133097794Y-121822765D01*
X133177235Y-121902206D01*
X133280009Y-121947585D01*
X133305135Y-121950500D01*
X135094864Y-121950499D01*
X135119991Y-121947585D01*
X135222765Y-121902206D01*
X135302206Y-121822765D01*
X135347585Y-121719991D01*
X135350500Y-121694865D01*
X135350499Y-119905136D01*
X135347585Y-119880009D01*
X135302206Y-119777235D01*
X135222765Y-119697794D01*
X135119991Y-119652415D01*
X135119990Y-119652414D01*
X135119988Y-119652414D01*
X135094868Y-119649500D01*
X133305139Y-119649500D01*
X133305136Y-119649501D01*
X133280009Y-119652414D01*
X133177235Y-119697794D01*
X133097794Y-119777235D01*
X133052414Y-119880011D01*
X133049500Y-119905130D01*
X128000500Y-119905130D01*
X128000500Y-114349999D01*
X130535261Y-114349999D01*
X130535261Y-114350000D01*
X131226988Y-114350000D01*
X131194075Y-114407007D01*
X131160000Y-114534174D01*
X131160000Y-114665826D01*
X131194075Y-114792993D01*
X131226988Y-114850000D01*
X130535261Y-114850000D01*
X130538317Y-114869292D01*
X130594250Y-115041440D01*
X130676431Y-115202730D01*
X130676433Y-115202734D01*
X130782824Y-115349169D01*
X130910830Y-115477175D01*
X131057265Y-115583566D01*
X131057269Y-115583568D01*
X131218559Y-115665749D01*
X131390705Y-115721682D01*
X131410000Y-115724737D01*
X131410000Y-115033012D01*
X131467007Y-115065925D01*
X131594174Y-115100000D01*
X131725826Y-115100000D01*
X131852993Y-115065925D01*
X131910000Y-115033012D01*
X131910000Y-115724737D01*
X131929294Y-115721682D01*
X132101440Y-115665749D01*
X132262730Y-115583568D01*
X132262734Y-115583566D01*
X132409169Y-115477175D01*
X132537175Y-115349169D01*
X132643566Y-115202734D01*
X132643568Y-115202730D01*
X132725749Y-115041440D01*
X132781682Y-114869292D01*
X132784739Y-114850000D01*
X132093012Y-114850000D01*
X132125925Y-114792993D01*
X132160000Y-114665826D01*
X132160000Y-114534174D01*
X132125925Y-114407007D01*
X132093012Y-114350000D01*
X132784739Y-114350000D01*
X132784738Y-114349999D01*
X132781682Y-114330707D01*
X132725749Y-114158559D01*
X132643568Y-113997269D01*
X132643566Y-113997265D01*
X132537175Y-113850830D01*
X132409169Y-113722824D01*
X132384815Y-113705130D01*
X133049500Y-113705130D01*
X133049500Y-115494860D01*
X133049501Y-115494863D01*
X133052414Y-115519990D01*
X133077756Y-115577385D01*
X133097794Y-115622765D01*
X133177235Y-115702206D01*
X133280009Y-115747585D01*
X133305135Y-115750500D01*
X135094864Y-115750499D01*
X135119991Y-115747585D01*
X135222765Y-115702206D01*
X135302206Y-115622765D01*
X135347585Y-115519991D01*
X135350500Y-115494865D01*
X135350499Y-113705136D01*
X135347585Y-113680009D01*
X135302206Y-113577235D01*
X135222765Y-113497794D01*
X135119991Y-113452415D01*
X135119990Y-113452414D01*
X135119988Y-113452414D01*
X135094868Y-113449500D01*
X133305139Y-113449500D01*
X133305136Y-113449501D01*
X133280009Y-113452414D01*
X133177235Y-113497794D01*
X133097794Y-113577235D01*
X133052414Y-113680011D01*
X133049500Y-113705130D01*
X132384815Y-113705130D01*
X132262734Y-113616433D01*
X132262730Y-113616431D01*
X132101440Y-113534250D01*
X131929292Y-113478317D01*
X131910000Y-113475261D01*
X131910000Y-114166988D01*
X131852993Y-114134075D01*
X131725826Y-114100000D01*
X131594174Y-114100000D01*
X131467007Y-114134075D01*
X131410000Y-114166988D01*
X131410000Y-113475261D01*
X131409999Y-113475261D01*
X131390707Y-113478317D01*
X131218559Y-113534250D01*
X131057269Y-113616431D01*
X131057265Y-113616433D01*
X130910830Y-113722824D01*
X130782824Y-113850830D01*
X130676433Y-113997265D01*
X130676431Y-113997269D01*
X130594250Y-114158559D01*
X130538317Y-114330707D01*
X130535261Y-114349999D01*
X128000500Y-114349999D01*
X128000500Y-100109450D01*
X143929500Y-100109450D01*
X143929500Y-100290549D01*
X143957828Y-100469406D01*
X143957829Y-100469409D01*
X144013789Y-100641639D01*
X144096004Y-100802994D01*
X144202447Y-100949501D01*
X144330499Y-101077553D01*
X144477006Y-101183996D01*
X144638361Y-101266211D01*
X144810591Y-101322171D01*
X144882136Y-101333502D01*
X144989451Y-101350500D01*
X144989454Y-101350500D01*
X145170549Y-101350500D01*
X145259977Y-101336335D01*
X145349409Y-101322171D01*
X145521639Y-101266211D01*
X145682994Y-101183996D01*
X145829501Y-101077553D01*
X145957553Y-100949501D01*
X146063996Y-100802994D01*
X146146211Y-100641639D01*
X146202171Y-100469409D01*
X146230500Y-100290546D01*
X146230500Y-100109454D01*
X146230500Y-100109450D01*
X146429500Y-100109450D01*
X146429500Y-100290549D01*
X146457828Y-100469406D01*
X146457829Y-100469409D01*
X146513789Y-100641639D01*
X146596004Y-100802994D01*
X146702447Y-100949501D01*
X146830499Y-101077553D01*
X146977006Y-101183996D01*
X147138361Y-101266211D01*
X147310591Y-101322171D01*
X147382136Y-101333502D01*
X147489451Y-101350500D01*
X147489454Y-101350500D01*
X147670549Y-101350500D01*
X147759977Y-101336335D01*
X147849409Y-101322171D01*
X148021639Y-101266211D01*
X148182994Y-101183996D01*
X148329501Y-101077553D01*
X148457553Y-100949501D01*
X148563996Y-100802994D01*
X148646211Y-100641639D01*
X148695845Y-100488879D01*
X148731809Y-100439379D01*
X148789999Y-100420471D01*
X148848190Y-100439378D01*
X148884154Y-100488878D01*
X148884155Y-100488879D01*
X148933789Y-100641639D01*
X149016004Y-100802994D01*
X149122447Y-100949501D01*
X149250499Y-101077553D01*
X149397006Y-101183996D01*
X149558361Y-101266211D01*
X149730591Y-101322171D01*
X149802136Y-101333502D01*
X149909451Y-101350500D01*
X149909454Y-101350500D01*
X150090549Y-101350500D01*
X150179977Y-101336335D01*
X150269409Y-101322171D01*
X150441639Y-101266211D01*
X150602994Y-101183996D01*
X150749501Y-101077553D01*
X150877553Y-100949501D01*
X150983996Y-100802994D01*
X151066211Y-100641639D01*
X151122171Y-100469409D01*
X151150500Y-100290546D01*
X151150500Y-100109454D01*
X151150500Y-100109450D01*
X151429500Y-100109450D01*
X151429500Y-100290549D01*
X151457828Y-100469406D01*
X151457829Y-100469409D01*
X151513789Y-100641639D01*
X151596004Y-100802994D01*
X151702447Y-100949501D01*
X151830499Y-101077553D01*
X151977006Y-101183996D01*
X152138361Y-101266211D01*
X152310591Y-101322171D01*
X152382136Y-101333502D01*
X152489451Y-101350500D01*
X152489454Y-101350500D01*
X152670549Y-101350500D01*
X152759977Y-101336335D01*
X152849409Y-101322171D01*
X153021639Y-101266211D01*
X153182994Y-101183996D01*
X153329501Y-101077553D01*
X153457553Y-100949501D01*
X153563996Y-100802994D01*
X153646211Y-100641639D01*
X153702171Y-100469409D01*
X153730500Y-100290546D01*
X153730500Y-100109454D01*
X153730500Y-100109450D01*
X153929500Y-100109450D01*
X153929500Y-100290549D01*
X153957828Y-100469406D01*
X153957829Y-100469409D01*
X154013789Y-100641639D01*
X154096004Y-100802994D01*
X154202447Y-100949501D01*
X154330499Y-101077553D01*
X154477006Y-101183996D01*
X154638361Y-101266211D01*
X154810591Y-101322171D01*
X154882136Y-101333502D01*
X154989451Y-101350500D01*
X154989454Y-101350500D01*
X155170549Y-101350500D01*
X155259977Y-101336335D01*
X155349409Y-101322171D01*
X155521639Y-101266211D01*
X155682994Y-101183996D01*
X155829501Y-101077553D01*
X155957553Y-100949501D01*
X156063996Y-100802994D01*
X156146211Y-100641639D01*
X156202171Y-100469409D01*
X156230500Y-100290546D01*
X156230500Y-100109454D01*
X156230500Y-100109450D01*
X156202171Y-99930593D01*
X156202171Y-99930591D01*
X156146211Y-99758361D01*
X156063996Y-99597006D01*
X155957553Y-99450499D01*
X155829501Y-99322447D01*
X155682994Y-99216004D01*
X155682993Y-99216003D01*
X155682991Y-99216002D01*
X155521637Y-99133788D01*
X155349406Y-99077828D01*
X155170549Y-99049500D01*
X155170546Y-99049500D01*
X154989454Y-99049500D01*
X154989451Y-99049500D01*
X154810593Y-99077828D01*
X154638362Y-99133788D01*
X154477008Y-99216002D01*
X154403752Y-99269225D01*
X154330499Y-99322447D01*
X154202447Y-99450499D01*
X154149225Y-99523752D01*
X154096002Y-99597008D01*
X154013788Y-99758362D01*
X153957828Y-99930593D01*
X153929500Y-100109450D01*
X153730500Y-100109450D01*
X153702171Y-99930593D01*
X153702171Y-99930591D01*
X153646211Y-99758361D01*
X153563996Y-99597006D01*
X153457553Y-99450499D01*
X153329501Y-99322447D01*
X153182994Y-99216004D01*
X153182993Y-99216003D01*
X153182991Y-99216002D01*
X153021637Y-99133788D01*
X152849406Y-99077828D01*
X152670549Y-99049500D01*
X152670546Y-99049500D01*
X152489454Y-99049500D01*
X152489451Y-99049500D01*
X152310593Y-99077828D01*
X152138362Y-99133788D01*
X151977008Y-99216002D01*
X151903752Y-99269225D01*
X151830499Y-99322447D01*
X151702447Y-99450499D01*
X151649225Y-99523752D01*
X151596002Y-99597008D01*
X151513788Y-99758362D01*
X151457828Y-99930593D01*
X151429500Y-100109450D01*
X151150500Y-100109450D01*
X151122171Y-99930593D01*
X151122171Y-99930591D01*
X151066211Y-99758361D01*
X150983996Y-99597006D01*
X150877553Y-99450499D01*
X150749501Y-99322447D01*
X150602994Y-99216004D01*
X150602993Y-99216003D01*
X150602991Y-99216002D01*
X150441637Y-99133788D01*
X150269406Y-99077828D01*
X150090549Y-99049500D01*
X150090546Y-99049500D01*
X149909454Y-99049500D01*
X149909451Y-99049500D01*
X149730593Y-99077828D01*
X149558362Y-99133788D01*
X149397008Y-99216002D01*
X149323752Y-99269225D01*
X149250499Y-99322447D01*
X149122447Y-99450499D01*
X149069225Y-99523752D01*
X149016002Y-99597008D01*
X148933788Y-99758362D01*
X148884155Y-99911120D01*
X148848191Y-99960620D01*
X148790000Y-99979528D01*
X148731810Y-99960621D01*
X148695846Y-99911121D01*
X148695845Y-99911120D01*
X148646211Y-99758362D01*
X148646211Y-99758361D01*
X148563996Y-99597006D01*
X148457553Y-99450499D01*
X148329501Y-99322447D01*
X148182994Y-99216004D01*
X148182993Y-99216003D01*
X148182991Y-99216002D01*
X148021637Y-99133788D01*
X147849406Y-99077828D01*
X147670549Y-99049500D01*
X147670546Y-99049500D01*
X147489454Y-99049500D01*
X147489451Y-99049500D01*
X147310593Y-99077828D01*
X147138362Y-99133788D01*
X146977008Y-99216002D01*
X146903752Y-99269225D01*
X146830499Y-99322447D01*
X146702447Y-99450499D01*
X146649225Y-99523752D01*
X146596002Y-99597008D01*
X146513788Y-99758362D01*
X146457828Y-99930593D01*
X146429500Y-100109450D01*
X146230500Y-100109450D01*
X146202171Y-99930593D01*
X146202171Y-99930591D01*
X146146211Y-99758361D01*
X146063996Y-99597006D01*
X145957553Y-99450499D01*
X145829501Y-99322447D01*
X145682994Y-99216004D01*
X145682993Y-99216003D01*
X145682991Y-99216002D01*
X145521637Y-99133788D01*
X145349406Y-99077828D01*
X145170549Y-99049500D01*
X145170546Y-99049500D01*
X144989454Y-99049500D01*
X144989451Y-99049500D01*
X144810593Y-99077828D01*
X144638362Y-99133788D01*
X144477008Y-99216002D01*
X144403752Y-99269225D01*
X144330499Y-99322447D01*
X144202447Y-99450499D01*
X144149225Y-99523752D01*
X144096002Y-99597008D01*
X144013788Y-99758362D01*
X143957828Y-99930593D01*
X143929500Y-100109450D01*
X128000500Y-100109450D01*
X128000500Y-97449999D01*
X143955261Y-97449999D01*
X143955261Y-97450000D01*
X144646988Y-97450000D01*
X144614075Y-97507007D01*
X144580000Y-97634174D01*
X144580000Y-97765826D01*
X144614075Y-97892993D01*
X144646988Y-97950000D01*
X143955261Y-97950000D01*
X143958317Y-97969292D01*
X144014250Y-98141440D01*
X144096431Y-98302730D01*
X144096433Y-98302734D01*
X144202824Y-98449169D01*
X144330830Y-98577175D01*
X144477265Y-98683566D01*
X144477269Y-98683568D01*
X144638559Y-98765749D01*
X144810705Y-98821682D01*
X144830000Y-98824737D01*
X144830000Y-98133012D01*
X144887007Y-98165925D01*
X145014174Y-98200000D01*
X145145826Y-98200000D01*
X145272993Y-98165925D01*
X145330000Y-98133012D01*
X145330000Y-98824737D01*
X145349294Y-98821682D01*
X145521440Y-98765749D01*
X145682730Y-98683568D01*
X145682734Y-98683566D01*
X145829169Y-98577175D01*
X145957175Y-98449169D01*
X146063566Y-98302734D01*
X146063568Y-98302730D01*
X146145749Y-98141440D01*
X146201682Y-97969292D01*
X146204739Y-97950000D01*
X145513012Y-97950000D01*
X145545925Y-97892993D01*
X145580000Y-97765826D01*
X145580000Y-97634174D01*
X145573375Y-97609450D01*
X146429500Y-97609450D01*
X146429500Y-97790549D01*
X146457828Y-97969406D01*
X146513788Y-98141637D01*
X146595871Y-98302734D01*
X146596004Y-98302994D01*
X146702447Y-98449501D01*
X146830499Y-98577553D01*
X146977006Y-98683996D01*
X147138361Y-98766211D01*
X147310591Y-98822171D01*
X147382136Y-98833502D01*
X147489451Y-98850500D01*
X147489454Y-98850500D01*
X147670549Y-98850500D01*
X147759977Y-98836335D01*
X147849409Y-98822171D01*
X148021639Y-98766211D01*
X148182994Y-98683996D01*
X148329501Y-98577553D01*
X148457553Y-98449501D01*
X148563996Y-98302994D01*
X148646211Y-98141639D01*
X148702171Y-97969409D01*
X148706597Y-97941460D01*
X148712385Y-97904924D01*
X148730500Y-97790549D01*
X148730500Y-97609450D01*
X148712385Y-97495076D01*
X148705245Y-97449999D01*
X148955261Y-97449999D01*
X148955261Y-97450000D01*
X149646988Y-97450000D01*
X149614075Y-97507007D01*
X149580000Y-97634174D01*
X149580000Y-97765826D01*
X149614075Y-97892993D01*
X149646988Y-97950000D01*
X148955261Y-97950000D01*
X148958317Y-97969292D01*
X149014250Y-98141440D01*
X149096431Y-98302730D01*
X149096433Y-98302734D01*
X149202824Y-98449169D01*
X149330830Y-98577175D01*
X149477265Y-98683566D01*
X149477269Y-98683568D01*
X149638559Y-98765749D01*
X149810705Y-98821682D01*
X149830000Y-98824737D01*
X149830000Y-98133012D01*
X149887007Y-98165925D01*
X150014174Y-98200000D01*
X150145826Y-98200000D01*
X150272993Y-98165925D01*
X150330000Y-98133012D01*
X150330000Y-98824737D01*
X150349294Y-98821682D01*
X150521440Y-98765749D01*
X150682730Y-98683568D01*
X150682734Y-98683566D01*
X150829169Y-98577175D01*
X150957175Y-98449169D01*
X151063566Y-98302734D01*
X151063568Y-98302730D01*
X151145749Y-98141440D01*
X151201682Y-97969292D01*
X151204739Y-97950000D01*
X150513012Y-97950000D01*
X150545925Y-97892993D01*
X150580000Y-97765826D01*
X150580000Y-97634174D01*
X150545925Y-97507007D01*
X150513012Y-97450000D01*
X151204739Y-97450000D01*
X151204738Y-97449999D01*
X151455261Y-97449999D01*
X151455261Y-97450000D01*
X152146988Y-97450000D01*
X152114075Y-97507007D01*
X152080000Y-97634174D01*
X152080000Y-97765826D01*
X152114075Y-97892993D01*
X152146988Y-97950000D01*
X151455261Y-97950000D01*
X151458317Y-97969292D01*
X151514250Y-98141440D01*
X151596431Y-98302730D01*
X151596433Y-98302734D01*
X151702824Y-98449169D01*
X151830830Y-98577175D01*
X151977265Y-98683566D01*
X151977269Y-98683568D01*
X152138559Y-98765749D01*
X152310705Y-98821682D01*
X152330000Y-98824737D01*
X152330000Y-98133012D01*
X152387007Y-98165925D01*
X152514174Y-98200000D01*
X152645826Y-98200000D01*
X152772993Y-98165925D01*
X152830000Y-98133012D01*
X152830000Y-98824737D01*
X152849294Y-98821682D01*
X153021440Y-98765749D01*
X153182730Y-98683568D01*
X153182734Y-98683566D01*
X153329169Y-98577175D01*
X153457175Y-98449169D01*
X153563566Y-98302734D01*
X153563568Y-98302730D01*
X153645749Y-98141440D01*
X153701682Y-97969292D01*
X153704739Y-97950000D01*
X153013012Y-97950000D01*
X153045925Y-97892993D01*
X153080000Y-97765826D01*
X153080000Y-97634174D01*
X153045925Y-97507007D01*
X153013012Y-97450000D01*
X153704739Y-97450000D01*
X153704738Y-97449999D01*
X153701682Y-97430707D01*
X153645749Y-97258559D01*
X153563568Y-97097269D01*
X153563566Y-97097265D01*
X153457175Y-96950830D01*
X153329169Y-96822824D01*
X153304815Y-96805130D01*
X153929500Y-96805130D01*
X153929500Y-98594860D01*
X153929501Y-98594863D01*
X153932414Y-98619990D01*
X153957756Y-98677385D01*
X153977794Y-98722765D01*
X154057235Y-98802206D01*
X154160009Y-98847585D01*
X154185135Y-98850500D01*
X155974864Y-98850499D01*
X155999991Y-98847585D01*
X156102765Y-98802206D01*
X156182206Y-98722765D01*
X156227585Y-98619991D01*
X156230500Y-98594865D01*
X156230499Y-96805136D01*
X156227585Y-96780009D01*
X156182206Y-96677235D01*
X156102765Y-96597794D01*
X155999991Y-96552415D01*
X155999990Y-96552414D01*
X155999988Y-96552414D01*
X155974868Y-96549500D01*
X154185139Y-96549500D01*
X154185136Y-96549501D01*
X154160009Y-96552414D01*
X154057235Y-96597794D01*
X153977794Y-96677235D01*
X153932414Y-96780011D01*
X153929500Y-96805130D01*
X153304815Y-96805130D01*
X153182734Y-96716433D01*
X153182730Y-96716431D01*
X153021440Y-96634250D01*
X152849292Y-96578317D01*
X152830000Y-96575261D01*
X152830000Y-97266988D01*
X152772993Y-97234075D01*
X152645826Y-97200000D01*
X152514174Y-97200000D01*
X152387007Y-97234075D01*
X152330000Y-97266988D01*
X152330000Y-96575261D01*
X152329999Y-96575261D01*
X152310707Y-96578317D01*
X152138559Y-96634250D01*
X151977269Y-96716431D01*
X151977265Y-96716433D01*
X151830830Y-96822824D01*
X151702824Y-96950830D01*
X151596433Y-97097265D01*
X151596431Y-97097269D01*
X151514250Y-97258559D01*
X151458317Y-97430707D01*
X151455261Y-97449999D01*
X151204738Y-97449999D01*
X151201682Y-97430707D01*
X151145749Y-97258559D01*
X151063568Y-97097269D01*
X151063566Y-97097265D01*
X150957175Y-96950830D01*
X150829169Y-96822824D01*
X150682734Y-96716433D01*
X150682730Y-96716431D01*
X150521440Y-96634250D01*
X150349292Y-96578317D01*
X150330000Y-96575261D01*
X150330000Y-97266988D01*
X150272993Y-97234075D01*
X150145826Y-97200000D01*
X150014174Y-97200000D01*
X149887007Y-97234075D01*
X149830000Y-97266988D01*
X149830000Y-96575261D01*
X149829999Y-96575261D01*
X149810707Y-96578317D01*
X149638559Y-96634250D01*
X149477269Y-96716431D01*
X149477265Y-96716433D01*
X149330830Y-96822824D01*
X149202824Y-96950830D01*
X149096433Y-97097265D01*
X149096431Y-97097269D01*
X149014250Y-97258559D01*
X148958317Y-97430707D01*
X148955261Y-97449999D01*
X148705245Y-97449999D01*
X148702171Y-97430593D01*
X148702171Y-97430591D01*
X148646211Y-97258361D01*
X148563996Y-97097006D01*
X148457553Y-96950499D01*
X148329501Y-96822447D01*
X148182994Y-96716004D01*
X148182993Y-96716003D01*
X148182991Y-96716002D01*
X148021637Y-96633788D01*
X147849406Y-96577828D01*
X147670549Y-96549500D01*
X147670546Y-96549500D01*
X147489454Y-96549500D01*
X147489451Y-96549500D01*
X147310593Y-96577828D01*
X147138362Y-96633788D01*
X146977008Y-96716002D01*
X146903752Y-96769225D01*
X146830499Y-96822447D01*
X146702447Y-96950499D01*
X146702207Y-96950830D01*
X146596002Y-97097008D01*
X146513788Y-97258362D01*
X146457828Y-97430593D01*
X146429500Y-97609450D01*
X145573375Y-97609450D01*
X145545925Y-97507007D01*
X145513012Y-97450000D01*
X146204739Y-97450000D01*
X146204738Y-97449999D01*
X146201682Y-97430707D01*
X146145749Y-97258559D01*
X146063568Y-97097269D01*
X146063566Y-97097265D01*
X145957175Y-96950830D01*
X145829169Y-96822824D01*
X145682734Y-96716433D01*
X145682730Y-96716431D01*
X145521440Y-96634250D01*
X145349292Y-96578317D01*
X145330000Y-96575261D01*
X145330000Y-97266988D01*
X145272993Y-97234075D01*
X145145826Y-97200000D01*
X145014174Y-97200000D01*
X144887007Y-97234075D01*
X144830000Y-97266988D01*
X144830000Y-96575261D01*
X144829999Y-96575261D01*
X144810707Y-96578317D01*
X144638559Y-96634250D01*
X144477269Y-96716431D01*
X144477265Y-96716433D01*
X144330830Y-96822824D01*
X144202824Y-96950830D01*
X144096433Y-97097265D01*
X144096431Y-97097269D01*
X144014250Y-97258559D01*
X143958317Y-97430707D01*
X143955261Y-97449999D01*
X128000500Y-97449999D01*
X128000500Y-94802773D01*
X128000656Y-94797222D01*
X128002740Y-94760118D01*
X128007128Y-94681987D01*
X128999500Y-94681987D01*
X128999500Y-94918012D01*
X129030306Y-95152006D01*
X129030306Y-95152011D01*
X129091393Y-95379992D01*
X129181713Y-95598044D01*
X129299729Y-95802453D01*
X129443402Y-95989692D01*
X129443404Y-95989694D01*
X129443408Y-95989699D01*
X129610301Y-96156592D01*
X129610305Y-96156595D01*
X129610307Y-96156597D01*
X129797546Y-96300270D01*
X129797550Y-96300273D01*
X130001951Y-96418284D01*
X130001952Y-96418284D01*
X130001955Y-96418286D01*
X130220007Y-96508606D01*
X130447986Y-96569693D01*
X130681989Y-96600500D01*
X130681990Y-96600500D01*
X130918010Y-96600500D01*
X130918011Y-96600500D01*
X131152014Y-96569693D01*
X131379993Y-96508606D01*
X131598049Y-96418284D01*
X131802450Y-96300273D01*
X131989699Y-96156592D01*
X132156592Y-95989699D01*
X132300273Y-95802450D01*
X132418284Y-95598049D01*
X132508606Y-95379993D01*
X132569693Y-95152014D01*
X132600500Y-94918011D01*
X132600500Y-94681989D01*
X132569693Y-94447986D01*
X132508606Y-94220007D01*
X132418284Y-94001951D01*
X132300273Y-93797550D01*
X132252900Y-93735812D01*
X132156597Y-93610307D01*
X132156595Y-93610305D01*
X132156592Y-93610301D01*
X131989699Y-93443408D01*
X131989694Y-93443404D01*
X131989692Y-93443402D01*
X131802453Y-93299729D01*
X131598044Y-93181713D01*
X131379992Y-93091393D01*
X131224277Y-93049670D01*
X131152014Y-93030307D01*
X131152011Y-93030306D01*
X131152009Y-93030306D01*
X130918012Y-92999500D01*
X130918011Y-92999500D01*
X130681989Y-92999500D01*
X130681987Y-92999500D01*
X130447993Y-93030306D01*
X130447988Y-93030306D01*
X130220007Y-93091393D01*
X130001955Y-93181713D01*
X129797546Y-93299729D01*
X129610307Y-93443402D01*
X129443402Y-93610307D01*
X129299729Y-93797546D01*
X129181713Y-94001955D01*
X129091393Y-94220007D01*
X129030306Y-94447988D01*
X129030306Y-94447993D01*
X128999500Y-94681987D01*
X128007128Y-94681987D01*
X128017791Y-94492099D01*
X128019034Y-94481073D01*
X128020356Y-94473293D01*
X128069760Y-94182519D01*
X128072221Y-94171733D01*
X128156063Y-93880714D01*
X128159723Y-93870254D01*
X128275614Y-93590469D01*
X128280428Y-93580474D01*
X128356182Y-93443408D01*
X128426909Y-93315436D01*
X128432806Y-93306051D01*
X128608053Y-93059063D01*
X128614967Y-93050394D01*
X128816757Y-92824592D01*
X128824592Y-92816757D01*
X129050394Y-92614967D01*
X129059063Y-92608053D01*
X129306051Y-92432806D01*
X129315436Y-92426909D01*
X129580480Y-92280424D01*
X129590469Y-92275614D01*
X129870254Y-92159723D01*
X129880714Y-92156063D01*
X130171733Y-92072221D01*
X130182519Y-92069760D01*
X130481080Y-92019033D01*
X130492099Y-92017791D01*
X130797222Y-92000655D01*
X130802773Y-92000500D01*
X130839882Y-92000500D01*
X167471000Y-92000500D01*
X167529191Y-92019407D01*
G37*
%TD.AperFunction*%
%TD*%
M02*
