%TF.GenerationSoftware,KiCad,Pcbnew,9.0.1*%
%TF.CreationDate,2025-10-26T23:58:12+01:00*%
%TF.ProjectId,onyks-iot-esp32-storage-rfid,6f6e796b-732d-4696-9f74-2d6573703332,rev?*%
%TF.SameCoordinates,Original*%
%TF.FileFunction,Drillmap*%
%TF.FilePolarity,Positive*%
%FSLAX45Y45*%
G04 Gerber Fmt 4.5, Leading zero omitted, Abs format (unit mm)*
G04 Created by KiCad (PCBNEW 9.0.1) date 2025-10-26 23:58:12*
%MOMM*%
%LPD*%
G01*
G04 APERTURE LIST*
%ADD10C,0.050000*%
%ADD11C,0.200000*%
%ADD12C,0.100000*%
G04 APERTURE END LIST*
D10*
X13240000Y-13680000D02*
G75*
G02*
X12920000Y-13680000I-160000J0D01*
G01*
X12920000Y-13680000D02*
G75*
G02*
X13240000Y-13680000I160000J0D01*
G01*
X17460000Y-9480000D02*
X17460000Y-13680000D01*
X13080000Y-13980000D02*
G75*
G02*
X12780000Y-13680000I0J300000D01*
G01*
X17460000Y-13680000D02*
G75*
G02*
X17160000Y-13980000I-300000J0D01*
G01*
X13080000Y-9180000D02*
X17160000Y-9180000D01*
X13240000Y-9480000D02*
G75*
G02*
X12920000Y-9480000I-160000J0D01*
G01*
X12920000Y-9480000D02*
G75*
G02*
X13240000Y-9480000I160000J0D01*
G01*
X17160000Y-13980000D02*
X13080000Y-13980000D01*
X12780000Y-13680000D02*
X12780000Y-9480000D01*
X17160000Y-9180000D02*
G75*
G02*
X17460000Y-9480000I0J-300000D01*
G01*
X12780000Y-9480000D02*
G75*
G02*
X13080000Y-9180000I300000J0D01*
G01*
D11*
D12*
X15705000Y-11195000D02*
X15725000Y-11215000D01*
X15725000Y-11195000D02*
X15705000Y-11215000D01*
X15705000Y-11335000D02*
X15725000Y-11355000D01*
X15725000Y-11335000D02*
X15705000Y-11355000D01*
X15775000Y-11125000D02*
X15795000Y-11145000D01*
X15795000Y-11125000D02*
X15775000Y-11145000D01*
X15775000Y-11262500D02*
X15795000Y-11282500D01*
X15795000Y-11262500D02*
X15775000Y-11282500D01*
X15775000Y-11405000D02*
X15795000Y-11425000D01*
X15795000Y-11405000D02*
X15775000Y-11425000D01*
X15845000Y-11195000D02*
X15865000Y-11215000D01*
X15865000Y-11195000D02*
X15845000Y-11215000D01*
X15845000Y-11335000D02*
X15865000Y-11355000D01*
X15865000Y-11335000D02*
X15845000Y-11355000D01*
X15915000Y-11125000D02*
X15935000Y-11145000D01*
X15935000Y-11125000D02*
X15915000Y-11145000D01*
X15915000Y-11262500D02*
X15935000Y-11282500D01*
X15935000Y-11262500D02*
X15915000Y-11282500D01*
X15915000Y-11405000D02*
X15935000Y-11425000D01*
X15935000Y-11405000D02*
X15915000Y-11425000D01*
X15985000Y-11195000D02*
X16005000Y-11215000D01*
X16005000Y-11195000D02*
X15985000Y-11215000D01*
X15985000Y-11335000D02*
X16005000Y-11355000D01*
X16005000Y-11335000D02*
X15985000Y-11355000D01*
X12956300Y-10337800D02*
G75*
G02*
X12926300Y-10337800I-15000J0D01*
G01*
X12926300Y-10337800D02*
G75*
G02*
X12956300Y-10337800I15000J0D01*
G01*
X12956300Y-10591800D02*
G75*
G02*
X12926300Y-10591800I-15000J0D01*
G01*
X12926300Y-10591800D02*
G75*
G02*
X12956300Y-10591800I15000J0D01*
G01*
X12956300Y-10807700D02*
G75*
G02*
X12926300Y-10807700I-15000J0D01*
G01*
X12926300Y-10807700D02*
G75*
G02*
X12956300Y-10807700I15000J0D01*
G01*
X12956300Y-11023600D02*
G75*
G02*
X12926300Y-11023600I-15000J0D01*
G01*
X12926300Y-11023600D02*
G75*
G02*
X12956300Y-11023600I15000J0D01*
G01*
X12956300Y-11430000D02*
G75*
G02*
X12926300Y-11430000I-15000J0D01*
G01*
X12926300Y-11430000D02*
G75*
G02*
X12956300Y-11430000I15000J0D01*
G01*
X12956300Y-11722100D02*
G75*
G02*
X12926300Y-11722100I-15000J0D01*
G01*
X12926300Y-11722100D02*
G75*
G02*
X12956300Y-11722100I15000J0D01*
G01*
X12956300Y-12001500D02*
G75*
G02*
X12926300Y-12001500I-15000J0D01*
G01*
X12926300Y-12001500D02*
G75*
G02*
X12956300Y-12001500I15000J0D01*
G01*
X12956300Y-12293600D02*
G75*
G02*
X12926300Y-12293600I-15000J0D01*
G01*
X12926300Y-12293600D02*
G75*
G02*
X12956300Y-12293600I15000J0D01*
G01*
X12956300Y-12573000D02*
G75*
G02*
X12926300Y-12573000I-15000J0D01*
G01*
X12926300Y-12573000D02*
G75*
G02*
X12956300Y-12573000I15000J0D01*
G01*
X12969000Y-12865100D02*
G75*
G02*
X12939000Y-12865100I-15000J0D01*
G01*
X12939000Y-12865100D02*
G75*
G02*
X12969000Y-12865100I15000J0D01*
G01*
X12981700Y-13119100D02*
G75*
G02*
X12951700Y-13119100I-15000J0D01*
G01*
X12951700Y-13119100D02*
G75*
G02*
X12981700Y-13119100I15000J0D01*
G01*
X13134100Y-12700000D02*
G75*
G02*
X13104100Y-12700000I-15000J0D01*
G01*
X13104100Y-12700000D02*
G75*
G02*
X13134100Y-12700000I15000J0D01*
G01*
X13159500Y-12992100D02*
G75*
G02*
X13129500Y-12992100I-15000J0D01*
G01*
X13129500Y-12992100D02*
G75*
G02*
X13159500Y-12992100I15000J0D01*
G01*
X13184900Y-11036300D02*
G75*
G02*
X13154900Y-11036300I-15000J0D01*
G01*
X13154900Y-11036300D02*
G75*
G02*
X13184900Y-11036300I15000J0D01*
G01*
X13210300Y-11734800D02*
G75*
G02*
X13180300Y-11734800I-15000J0D01*
G01*
X13180300Y-11734800D02*
G75*
G02*
X13210300Y-11734800I15000J0D01*
G01*
X13275000Y-9800000D02*
G75*
G02*
X13245000Y-9800000I-15000J0D01*
G01*
X13245000Y-9800000D02*
G75*
G02*
X13275000Y-9800000I15000J0D01*
G01*
X13535000Y-10685000D02*
G75*
G02*
X13505000Y-10685000I-15000J0D01*
G01*
X13505000Y-10685000D02*
G75*
G02*
X13535000Y-10685000I15000J0D01*
G01*
X13616700Y-10414000D02*
G75*
G02*
X13586700Y-10414000I-15000J0D01*
G01*
X13586700Y-10414000D02*
G75*
G02*
X13616700Y-10414000I15000J0D01*
G01*
X13642100Y-9271000D02*
G75*
G02*
X13612100Y-9271000I-15000J0D01*
G01*
X13612100Y-9271000D02*
G75*
G02*
X13642100Y-9271000I15000J0D01*
G01*
X13642100Y-9461500D02*
G75*
G02*
X13612100Y-9461500I-15000J0D01*
G01*
X13612100Y-9461500D02*
G75*
G02*
X13642100Y-9461500I15000J0D01*
G01*
X13654800Y-11734800D02*
G75*
G02*
X13624800Y-11734800I-15000J0D01*
G01*
X13624800Y-11734800D02*
G75*
G02*
X13654800Y-11734800I15000J0D01*
G01*
X13667500Y-13131800D02*
G75*
G02*
X13637500Y-13131800I-15000J0D01*
G01*
X13637500Y-13131800D02*
G75*
G02*
X13667500Y-13131800I15000J0D01*
G01*
X13667500Y-13423900D02*
G75*
G02*
X13637500Y-13423900I-15000J0D01*
G01*
X13637500Y-13423900D02*
G75*
G02*
X13667500Y-13423900I15000J0D01*
G01*
X13667500Y-13703300D02*
G75*
G02*
X13637500Y-13703300I-15000J0D01*
G01*
X13637500Y-13703300D02*
G75*
G02*
X13667500Y-13703300I15000J0D01*
G01*
X13680200Y-12001500D02*
G75*
G02*
X13650200Y-12001500I-15000J0D01*
G01*
X13650200Y-12001500D02*
G75*
G02*
X13680200Y-12001500I15000J0D01*
G01*
X13680200Y-12268200D02*
G75*
G02*
X13650200Y-12268200I-15000J0D01*
G01*
X13650200Y-12268200D02*
G75*
G02*
X13680200Y-12268200I15000J0D01*
G01*
X13680200Y-12588000D02*
G75*
G02*
X13650200Y-12588000I-15000J0D01*
G01*
X13650200Y-12588000D02*
G75*
G02*
X13680200Y-12588000I15000J0D01*
G01*
X13705600Y-10160000D02*
G75*
G02*
X13675600Y-10160000I-15000J0D01*
G01*
X13675600Y-10160000D02*
G75*
G02*
X13705600Y-10160000I15000J0D01*
G01*
X13718300Y-9766300D02*
G75*
G02*
X13688300Y-9766300I-15000J0D01*
G01*
X13688300Y-9766300D02*
G75*
G02*
X13718300Y-9766300I15000J0D01*
G01*
X13743700Y-12508000D02*
G75*
G02*
X13713700Y-12508000I-15000J0D01*
G01*
X13713700Y-12508000D02*
G75*
G02*
X13743700Y-12508000I15000J0D01*
G01*
X13819900Y-9575800D02*
G75*
G02*
X13789900Y-9575800I-15000J0D01*
G01*
X13789900Y-9575800D02*
G75*
G02*
X13819900Y-9575800I15000J0D01*
G01*
X13858000Y-13258800D02*
G75*
G02*
X13828000Y-13258800I-15000J0D01*
G01*
X13828000Y-13258800D02*
G75*
G02*
X13858000Y-13258800I15000J0D01*
G01*
X13883400Y-13576300D02*
G75*
G02*
X13853400Y-13576300I-15000J0D01*
G01*
X13853400Y-13576300D02*
G75*
G02*
X13883400Y-13576300I15000J0D01*
G01*
X13896100Y-10160000D02*
G75*
G02*
X13866100Y-10160000I-15000J0D01*
G01*
X13866100Y-10160000D02*
G75*
G02*
X13896100Y-10160000I15000J0D01*
G01*
X13934200Y-10414000D02*
G75*
G02*
X13904200Y-10414000I-15000J0D01*
G01*
X13904200Y-10414000D02*
G75*
G02*
X13934200Y-10414000I15000J0D01*
G01*
X13946900Y-9271000D02*
G75*
G02*
X13916900Y-9271000I-15000J0D01*
G01*
X13916900Y-9271000D02*
G75*
G02*
X13946900Y-9271000I15000J0D01*
G01*
X14099300Y-12103100D02*
G75*
G02*
X14069300Y-12103100I-15000J0D01*
G01*
X14069300Y-12103100D02*
G75*
G02*
X14099300Y-12103100I15000J0D01*
G01*
X14099300Y-12331700D02*
G75*
G02*
X14069300Y-12331700I-15000J0D01*
G01*
X14069300Y-12331700D02*
G75*
G02*
X14099300Y-12331700I15000J0D01*
G01*
X14226300Y-11684000D02*
G75*
G02*
X14196300Y-11684000I-15000J0D01*
G01*
X14196300Y-11684000D02*
G75*
G02*
X14226300Y-11684000I15000J0D01*
G01*
X14251700Y-9271000D02*
G75*
G02*
X14221700Y-9271000I-15000J0D01*
G01*
X14221700Y-9271000D02*
G75*
G02*
X14251700Y-9271000I15000J0D01*
G01*
X14277100Y-10414000D02*
G75*
G02*
X14247100Y-10414000I-15000J0D01*
G01*
X14247100Y-10414000D02*
G75*
G02*
X14277100Y-10414000I15000J0D01*
G01*
X14289800Y-10668000D02*
G75*
G02*
X14259800Y-10668000I-15000J0D01*
G01*
X14259800Y-10668000D02*
G75*
G02*
X14289800Y-10668000I15000J0D01*
G01*
X14289800Y-10922000D02*
G75*
G02*
X14259800Y-10922000I-15000J0D01*
G01*
X14259800Y-10922000D02*
G75*
G02*
X14289800Y-10922000I15000J0D01*
G01*
X14302500Y-12192000D02*
G75*
G02*
X14272500Y-12192000I-15000J0D01*
G01*
X14272500Y-12192000D02*
G75*
G02*
X14302500Y-12192000I15000J0D01*
G01*
X14391400Y-10261600D02*
G75*
G02*
X14361400Y-10261600I-15000J0D01*
G01*
X14361400Y-10261600D02*
G75*
G02*
X14391400Y-10261600I15000J0D01*
G01*
X14404100Y-10515600D02*
G75*
G02*
X14374100Y-10515600I-15000J0D01*
G01*
X14374100Y-10515600D02*
G75*
G02*
X14404100Y-10515600I15000J0D01*
G01*
X14404100Y-10769600D02*
G75*
G02*
X14374100Y-10769600I-15000J0D01*
G01*
X14374100Y-10769600D02*
G75*
G02*
X14404100Y-10769600I15000J0D01*
G01*
X14480300Y-11684000D02*
G75*
G02*
X14450300Y-11684000I-15000J0D01*
G01*
X14450300Y-11684000D02*
G75*
G02*
X14480300Y-11684000I15000J0D01*
G01*
X14480300Y-12331700D02*
G75*
G02*
X14450300Y-12331700I-15000J0D01*
G01*
X14450300Y-12331700D02*
G75*
G02*
X14480300Y-12331700I15000J0D01*
G01*
X14493000Y-11899900D02*
G75*
G02*
X14463000Y-11899900I-15000J0D01*
G01*
X14463000Y-11899900D02*
G75*
G02*
X14493000Y-11899900I15000J0D01*
G01*
X14493000Y-12090400D02*
G75*
G02*
X14463000Y-12090400I-15000J0D01*
G01*
X14463000Y-12090400D02*
G75*
G02*
X14493000Y-12090400I15000J0D01*
G01*
X14531100Y-9271000D02*
G75*
G02*
X14501100Y-9271000I-15000J0D01*
G01*
X14501100Y-9271000D02*
G75*
G02*
X14531100Y-9271000I15000J0D01*
G01*
X14531100Y-13411200D02*
G75*
G02*
X14501100Y-13411200I-15000J0D01*
G01*
X14501100Y-13411200D02*
G75*
G02*
X14531100Y-13411200I15000J0D01*
G01*
X14531100Y-13728700D02*
G75*
G02*
X14501100Y-13728700I-15000J0D01*
G01*
X14501100Y-13728700D02*
G75*
G02*
X14531100Y-13728700I15000J0D01*
G01*
X14632700Y-9537700D02*
G75*
G02*
X14602700Y-9537700I-15000J0D01*
G01*
X14602700Y-9537700D02*
G75*
G02*
X14632700Y-9537700I15000J0D01*
G01*
X14645400Y-12204700D02*
G75*
G02*
X14615400Y-12204700I-15000J0D01*
G01*
X14615400Y-12204700D02*
G75*
G02*
X14645400Y-12204700I15000J0D01*
G01*
X14696200Y-13258800D02*
G75*
G02*
X14666200Y-13258800I-15000J0D01*
G01*
X14666200Y-13258800D02*
G75*
G02*
X14696200Y-13258800I15000J0D01*
G01*
X14696200Y-13538200D02*
G75*
G02*
X14666200Y-13538200I-15000J0D01*
G01*
X14666200Y-13538200D02*
G75*
G02*
X14696200Y-13538200I15000J0D01*
G01*
X14823200Y-9271000D02*
G75*
G02*
X14793200Y-9271000I-15000J0D01*
G01*
X14793200Y-9271000D02*
G75*
G02*
X14823200Y-9271000I15000J0D01*
G01*
X15115300Y-9271000D02*
G75*
G02*
X15085300Y-9271000I-15000J0D01*
G01*
X15085300Y-9271000D02*
G75*
G02*
X15115300Y-9271000I15000J0D01*
G01*
X15140700Y-11087100D02*
G75*
G02*
X15110700Y-11087100I-15000J0D01*
G01*
X15110700Y-11087100D02*
G75*
G02*
X15140700Y-11087100I15000J0D01*
G01*
X15140700Y-11290300D02*
G75*
G02*
X15110700Y-11290300I-15000J0D01*
G01*
X15110700Y-11290300D02*
G75*
G02*
X15140700Y-11290300I15000J0D01*
G01*
X15140700Y-11506200D02*
G75*
G02*
X15110700Y-11506200I-15000J0D01*
G01*
X15110700Y-11506200D02*
G75*
G02*
X15140700Y-11506200I15000J0D01*
G01*
X15140700Y-11760200D02*
G75*
G02*
X15110700Y-11760200I-15000J0D01*
G01*
X15110700Y-11760200D02*
G75*
G02*
X15140700Y-11760200I15000J0D01*
G01*
X15140700Y-11963400D02*
G75*
G02*
X15110700Y-11963400I-15000J0D01*
G01*
X15110700Y-11963400D02*
G75*
G02*
X15140700Y-11963400I15000J0D01*
G01*
X15153400Y-10845800D02*
G75*
G02*
X15123400Y-10845800I-15000J0D01*
G01*
X15123400Y-10845800D02*
G75*
G02*
X15153400Y-10845800I15000J0D01*
G01*
X15166100Y-9537700D02*
G75*
G02*
X15136100Y-9537700I-15000J0D01*
G01*
X15136100Y-9537700D02*
G75*
G02*
X15166100Y-9537700I15000J0D01*
G01*
X15216600Y-12458400D02*
G75*
G02*
X15186600Y-12458400I-15000J0D01*
G01*
X15186600Y-12458400D02*
G75*
G02*
X15216600Y-12458400I15000J0D01*
G01*
X15295650Y-12499350D02*
G75*
G02*
X15265650Y-12499350I-15000J0D01*
G01*
X15265650Y-12499350D02*
G75*
G02*
X15295650Y-12499350I15000J0D01*
G01*
X15382000Y-11963400D02*
G75*
G02*
X15352000Y-11963400I-15000J0D01*
G01*
X15352000Y-11963400D02*
G75*
G02*
X15382000Y-11963400I15000J0D01*
G01*
X15394700Y-10858500D02*
G75*
G02*
X15364700Y-10858500I-15000J0D01*
G01*
X15364700Y-10858500D02*
G75*
G02*
X15394700Y-10858500I15000J0D01*
G01*
X15394700Y-11074400D02*
G75*
G02*
X15364700Y-11074400I-15000J0D01*
G01*
X15364700Y-11074400D02*
G75*
G02*
X15394700Y-11074400I15000J0D01*
G01*
X15394700Y-11493500D02*
G75*
G02*
X15364700Y-11493500I-15000J0D01*
G01*
X15364700Y-11493500D02*
G75*
G02*
X15394700Y-11493500I15000J0D01*
G01*
X15394700Y-11747500D02*
G75*
G02*
X15364700Y-11747500I-15000J0D01*
G01*
X15364700Y-11747500D02*
G75*
G02*
X15394700Y-11747500I15000J0D01*
G01*
X15407400Y-11290300D02*
G75*
G02*
X15377400Y-11290300I-15000J0D01*
G01*
X15377400Y-11290300D02*
G75*
G02*
X15407400Y-11290300I15000J0D01*
G01*
X15420100Y-9271000D02*
G75*
G02*
X15390100Y-9271000I-15000J0D01*
G01*
X15390100Y-9271000D02*
G75*
G02*
X15420100Y-9271000I15000J0D01*
G01*
X15445500Y-12522200D02*
G75*
G02*
X15415500Y-12522200I-15000J0D01*
G01*
X15415500Y-12522200D02*
G75*
G02*
X15445500Y-12522200I15000J0D01*
G01*
X15585200Y-10287000D02*
G75*
G02*
X15555200Y-10287000I-15000J0D01*
G01*
X15555200Y-10287000D02*
G75*
G02*
X15585200Y-10287000I15000J0D01*
G01*
X15636000Y-12522200D02*
G75*
G02*
X15606000Y-12522200I-15000J0D01*
G01*
X15606000Y-12522200D02*
G75*
G02*
X15636000Y-12522200I15000J0D01*
G01*
X15661400Y-10845800D02*
G75*
G02*
X15631400Y-10845800I-15000J0D01*
G01*
X15631400Y-10845800D02*
G75*
G02*
X15661400Y-10845800I15000J0D01*
G01*
X15759317Y-9265974D02*
G75*
G02*
X15729317Y-9265974I-15000J0D01*
G01*
X15729317Y-9265974D02*
G75*
G02*
X15759317Y-9265974I15000J0D01*
G01*
X15763000Y-12683800D02*
G75*
G02*
X15733000Y-12683800I-15000J0D01*
G01*
X15733000Y-12683800D02*
G75*
G02*
X15763000Y-12683800I15000J0D01*
G01*
X15826500Y-10287000D02*
G75*
G02*
X15796500Y-10287000I-15000J0D01*
G01*
X15796500Y-10287000D02*
G75*
G02*
X15826500Y-10287000I15000J0D01*
G01*
X15839200Y-9728200D02*
G75*
G02*
X15809200Y-9728200I-15000J0D01*
G01*
X15809200Y-9728200D02*
G75*
G02*
X15839200Y-9728200I15000J0D01*
G01*
X15839200Y-10058400D02*
G75*
G02*
X15809200Y-10058400I-15000J0D01*
G01*
X15809200Y-10058400D02*
G75*
G02*
X15839200Y-10058400I15000J0D01*
G01*
X16017000Y-9893300D02*
G75*
G02*
X15987000Y-9893300I-15000J0D01*
G01*
X15987000Y-9893300D02*
G75*
G02*
X16017000Y-9893300I15000J0D01*
G01*
X16017000Y-10160000D02*
G75*
G02*
X15987000Y-10160000I-15000J0D01*
G01*
X15987000Y-10160000D02*
G75*
G02*
X16017000Y-10160000I15000J0D01*
G01*
X16042400Y-9271000D02*
G75*
G02*
X16012400Y-9271000I-15000J0D01*
G01*
X16012400Y-9271000D02*
G75*
G02*
X16042400Y-9271000I15000J0D01*
G01*
X16075800Y-11704700D02*
G75*
G02*
X16045800Y-11704700I-15000J0D01*
G01*
X16045800Y-11704700D02*
G75*
G02*
X16075800Y-11704700I15000J0D01*
G01*
X16215000Y-11760000D02*
G75*
G02*
X16185000Y-11760000I-15000J0D01*
G01*
X16185000Y-11760000D02*
G75*
G02*
X16215000Y-11760000I15000J0D01*
G01*
X16334500Y-9271000D02*
G75*
G02*
X16304500Y-9271000I-15000J0D01*
G01*
X16304500Y-9271000D02*
G75*
G02*
X16334500Y-9271000I15000J0D01*
G01*
X16347200Y-11861800D02*
G75*
G02*
X16317200Y-11861800I-15000J0D01*
G01*
X16317200Y-11861800D02*
G75*
G02*
X16347200Y-11861800I15000J0D01*
G01*
X16448800Y-12560300D02*
G75*
G02*
X16418800Y-12560300I-15000J0D01*
G01*
X16418800Y-12560300D02*
G75*
G02*
X16448800Y-12560300I15000J0D01*
G01*
X16448800Y-12852400D02*
G75*
G02*
X16418800Y-12852400I-15000J0D01*
G01*
X16418800Y-12852400D02*
G75*
G02*
X16448800Y-12852400I15000J0D01*
G01*
X16499600Y-11696700D02*
G75*
G02*
X16469600Y-11696700I-15000J0D01*
G01*
X16469600Y-11696700D02*
G75*
G02*
X16499600Y-11696700I15000J0D01*
G01*
X16499600Y-12039600D02*
G75*
G02*
X16469600Y-12039600I-15000J0D01*
G01*
X16469600Y-12039600D02*
G75*
G02*
X16499600Y-12039600I15000J0D01*
G01*
X16613900Y-12700000D02*
G75*
G02*
X16583900Y-12700000I-15000J0D01*
G01*
X16583900Y-12700000D02*
G75*
G02*
X16613900Y-12700000I15000J0D01*
G01*
X16613900Y-12954000D02*
G75*
G02*
X16583900Y-12954000I-15000J0D01*
G01*
X16583900Y-12954000D02*
G75*
G02*
X16613900Y-12954000I15000J0D01*
G01*
X16626600Y-9563100D02*
G75*
G02*
X16596600Y-9563100I-15000J0D01*
G01*
X16596600Y-9563100D02*
G75*
G02*
X16626600Y-9563100I15000J0D01*
G01*
X16626600Y-9740900D02*
G75*
G02*
X16596600Y-9740900I-15000J0D01*
G01*
X16596600Y-9740900D02*
G75*
G02*
X16626600Y-9740900I15000J0D01*
G01*
X16626600Y-9982200D02*
G75*
G02*
X16596600Y-9982200I-15000J0D01*
G01*
X16596600Y-9982200D02*
G75*
G02*
X16626600Y-9982200I15000J0D01*
G01*
X16639300Y-10287000D02*
G75*
G02*
X16609300Y-10287000I-15000J0D01*
G01*
X16609300Y-10287000D02*
G75*
G02*
X16639300Y-10287000I15000J0D01*
G01*
X16677400Y-10922000D02*
G75*
G02*
X16647400Y-10922000I-15000J0D01*
G01*
X16647400Y-10922000D02*
G75*
G02*
X16677400Y-10922000I15000J0D01*
G01*
X16677400Y-11239500D02*
G75*
G02*
X16647400Y-11239500I-15000J0D01*
G01*
X16647400Y-11239500D02*
G75*
G02*
X16677400Y-11239500I15000J0D01*
G01*
X16677400Y-11557000D02*
G75*
G02*
X16647400Y-11557000I-15000J0D01*
G01*
X16647400Y-11557000D02*
G75*
G02*
X16677400Y-11557000I15000J0D01*
G01*
X16677400Y-11849100D02*
G75*
G02*
X16647400Y-11849100I-15000J0D01*
G01*
X16647400Y-11849100D02*
G75*
G02*
X16677400Y-11849100I15000J0D01*
G01*
X13166000Y-11410000D02*
X13166000Y-11510000D01*
X13116000Y-11460000D02*
X13216000Y-11460000D01*
X13420000Y-11410000D02*
X13420000Y-11510000D01*
X13370000Y-11460000D02*
X13470000Y-11460000D01*
X13420000Y-12030000D02*
X13420000Y-12130000D01*
X13370000Y-12080000D02*
X13470000Y-12080000D01*
X13420000Y-12284000D02*
X13420000Y-12384000D01*
X13370000Y-12334000D02*
X13470000Y-12334000D01*
X13420000Y-12538000D02*
X13420000Y-12638000D01*
X13370000Y-12588000D02*
X13470000Y-12588000D01*
X13420000Y-12792000D02*
X13420000Y-12892000D01*
X13370000Y-12842000D02*
X13470000Y-12842000D01*
X14508000Y-9720000D02*
X14508000Y-9820000D01*
X14458000Y-9770000D02*
X14558000Y-9770000D01*
X14508000Y-9970000D02*
X14508000Y-10070000D01*
X14458000Y-10020000D02*
X14558000Y-10020000D01*
X14758000Y-9720000D02*
X14758000Y-9820000D01*
X14708000Y-9770000D02*
X14808000Y-9770000D01*
X14758000Y-9970000D02*
X14758000Y-10070000D01*
X14708000Y-10020000D02*
X14808000Y-10020000D01*
X15000000Y-9970000D02*
X15000000Y-10070000D01*
X14950000Y-10020000D02*
X15050000Y-10020000D01*
X15008000Y-9720000D02*
X15008000Y-9820000D01*
X14958000Y-9770000D02*
X15058000Y-9770000D01*
X15120000Y-13390000D02*
X15120000Y-13490000D01*
X15070000Y-13440000D02*
X15170000Y-13440000D01*
X15258000Y-9720000D02*
X15258000Y-9820000D01*
X15208000Y-9770000D02*
X15308000Y-9770000D01*
X15258000Y-9970000D02*
X15258000Y-10070000D01*
X15208000Y-10020000D02*
X15308000Y-10020000D01*
X15370000Y-13390000D02*
X15370000Y-13490000D01*
X15320000Y-13440000D02*
X15420000Y-13440000D01*
X15508000Y-9720000D02*
X15508000Y-9820000D01*
X15458000Y-9770000D02*
X15558000Y-9770000D01*
X15508000Y-9970000D02*
X15508000Y-10070000D01*
X15458000Y-10020000D02*
X15558000Y-10020000D01*
X15620000Y-13390000D02*
X15620000Y-13490000D01*
X15570000Y-13440000D02*
X15670000Y-13440000D01*
X15870000Y-13390000D02*
X15870000Y-13490000D01*
X15820000Y-13440000D02*
X15920000Y-13440000D01*
X16120000Y-13390000D02*
X16120000Y-13490000D01*
X16070000Y-13440000D02*
X16170000Y-13440000D01*
X16374000Y-13390000D02*
X16374000Y-13490000D01*
X16324000Y-13440000D02*
X16424000Y-13440000D01*
D11*
X13038277Y-14293984D02*
X13038277Y-14093984D01*
X13038277Y-14093984D02*
X13085896Y-14093984D01*
X13085896Y-14093984D02*
X13114467Y-14103508D01*
X13114467Y-14103508D02*
X13133515Y-14122555D01*
X13133515Y-14122555D02*
X13143039Y-14141603D01*
X13143039Y-14141603D02*
X13152562Y-14179698D01*
X13152562Y-14179698D02*
X13152562Y-14208269D01*
X13152562Y-14208269D02*
X13143039Y-14246365D01*
X13143039Y-14246365D02*
X13133515Y-14265412D01*
X13133515Y-14265412D02*
X13114467Y-14284460D01*
X13114467Y-14284460D02*
X13085896Y-14293984D01*
X13085896Y-14293984D02*
X13038277Y-14293984D01*
X13238277Y-14293984D02*
X13238277Y-14160650D01*
X13238277Y-14198746D02*
X13247801Y-14179698D01*
X13247801Y-14179698D02*
X13257324Y-14170174D01*
X13257324Y-14170174D02*
X13276372Y-14160650D01*
X13276372Y-14160650D02*
X13295420Y-14160650D01*
X13362086Y-14293984D02*
X13362086Y-14160650D01*
X13362086Y-14093984D02*
X13352562Y-14103508D01*
X13352562Y-14103508D02*
X13362086Y-14113031D01*
X13362086Y-14113031D02*
X13371610Y-14103508D01*
X13371610Y-14103508D02*
X13362086Y-14093984D01*
X13362086Y-14093984D02*
X13362086Y-14113031D01*
X13485896Y-14293984D02*
X13466848Y-14284460D01*
X13466848Y-14284460D02*
X13457324Y-14265412D01*
X13457324Y-14265412D02*
X13457324Y-14093984D01*
X13590658Y-14293984D02*
X13571610Y-14284460D01*
X13571610Y-14284460D02*
X13562086Y-14265412D01*
X13562086Y-14265412D02*
X13562086Y-14093984D01*
X13819229Y-14293984D02*
X13819229Y-14093984D01*
X13819229Y-14093984D02*
X13885896Y-14236841D01*
X13885896Y-14236841D02*
X13952562Y-14093984D01*
X13952562Y-14093984D02*
X13952562Y-14293984D01*
X14133515Y-14293984D02*
X14133515Y-14189222D01*
X14133515Y-14189222D02*
X14123991Y-14170174D01*
X14123991Y-14170174D02*
X14104943Y-14160650D01*
X14104943Y-14160650D02*
X14066848Y-14160650D01*
X14066848Y-14160650D02*
X14047801Y-14170174D01*
X14133515Y-14284460D02*
X14114467Y-14293984D01*
X14114467Y-14293984D02*
X14066848Y-14293984D01*
X14066848Y-14293984D02*
X14047801Y-14284460D01*
X14047801Y-14284460D02*
X14038277Y-14265412D01*
X14038277Y-14265412D02*
X14038277Y-14246365D01*
X14038277Y-14246365D02*
X14047801Y-14227317D01*
X14047801Y-14227317D02*
X14066848Y-14217793D01*
X14066848Y-14217793D02*
X14114467Y-14217793D01*
X14114467Y-14217793D02*
X14133515Y-14208269D01*
X14228753Y-14160650D02*
X14228753Y-14360650D01*
X14228753Y-14170174D02*
X14247801Y-14160650D01*
X14247801Y-14160650D02*
X14285896Y-14160650D01*
X14285896Y-14160650D02*
X14304943Y-14170174D01*
X14304943Y-14170174D02*
X14314467Y-14179698D01*
X14314467Y-14179698D02*
X14323991Y-14198746D01*
X14323991Y-14198746D02*
X14323991Y-14255888D01*
X14323991Y-14255888D02*
X14314467Y-14274936D01*
X14314467Y-14274936D02*
X14304943Y-14284460D01*
X14304943Y-14284460D02*
X14285896Y-14293984D01*
X14285896Y-14293984D02*
X14247801Y-14293984D01*
X14247801Y-14293984D02*
X14228753Y-14284460D01*
X14409705Y-14274936D02*
X14419229Y-14284460D01*
X14419229Y-14284460D02*
X14409705Y-14293984D01*
X14409705Y-14293984D02*
X14400182Y-14284460D01*
X14400182Y-14284460D02*
X14409705Y-14274936D01*
X14409705Y-14274936D02*
X14409705Y-14293984D01*
X14409705Y-14170174D02*
X14419229Y-14179698D01*
X14419229Y-14179698D02*
X14409705Y-14189222D01*
X14409705Y-14189222D02*
X14400182Y-14179698D01*
X14400182Y-14179698D02*
X14409705Y-14170174D01*
X14409705Y-14170174D02*
X14409705Y-14189222D01*
D12*
X12757500Y-14612500D02*
X12777500Y-14632500D01*
X12777500Y-14612500D02*
X12757500Y-14632500D01*
D11*
X13076372Y-14513984D02*
X13095420Y-14513984D01*
X13095420Y-14513984D02*
X13114467Y-14523508D01*
X13114467Y-14523508D02*
X13123991Y-14533031D01*
X13123991Y-14533031D02*
X13133515Y-14552079D01*
X13133515Y-14552079D02*
X13143039Y-14590174D01*
X13143039Y-14590174D02*
X13143039Y-14637793D01*
X13143039Y-14637793D02*
X13133515Y-14675888D01*
X13133515Y-14675888D02*
X13123991Y-14694936D01*
X13123991Y-14694936D02*
X13114467Y-14704460D01*
X13114467Y-14704460D02*
X13095420Y-14713984D01*
X13095420Y-14713984D02*
X13076372Y-14713984D01*
X13076372Y-14713984D02*
X13057324Y-14704460D01*
X13057324Y-14704460D02*
X13047801Y-14694936D01*
X13047801Y-14694936D02*
X13038277Y-14675888D01*
X13038277Y-14675888D02*
X13028753Y-14637793D01*
X13028753Y-14637793D02*
X13028753Y-14590174D01*
X13028753Y-14590174D02*
X13038277Y-14552079D01*
X13038277Y-14552079D02*
X13047801Y-14533031D01*
X13047801Y-14533031D02*
X13057324Y-14523508D01*
X13057324Y-14523508D02*
X13076372Y-14513984D01*
X13228753Y-14694936D02*
X13238277Y-14704460D01*
X13238277Y-14704460D02*
X13228753Y-14713984D01*
X13228753Y-14713984D02*
X13219229Y-14704460D01*
X13219229Y-14704460D02*
X13228753Y-14694936D01*
X13228753Y-14694936D02*
X13228753Y-14713984D01*
X13314467Y-14533031D02*
X13323991Y-14523508D01*
X13323991Y-14523508D02*
X13343039Y-14513984D01*
X13343039Y-14513984D02*
X13390658Y-14513984D01*
X13390658Y-14513984D02*
X13409705Y-14523508D01*
X13409705Y-14523508D02*
X13419229Y-14533031D01*
X13419229Y-14533031D02*
X13428753Y-14552079D01*
X13428753Y-14552079D02*
X13428753Y-14571127D01*
X13428753Y-14571127D02*
X13419229Y-14599698D01*
X13419229Y-14599698D02*
X13304943Y-14713984D01*
X13304943Y-14713984D02*
X13428753Y-14713984D01*
X13552562Y-14513984D02*
X13571610Y-14513984D01*
X13571610Y-14513984D02*
X13590658Y-14523508D01*
X13590658Y-14523508D02*
X13600182Y-14533031D01*
X13600182Y-14533031D02*
X13609705Y-14552079D01*
X13609705Y-14552079D02*
X13619229Y-14590174D01*
X13619229Y-14590174D02*
X13619229Y-14637793D01*
X13619229Y-14637793D02*
X13609705Y-14675888D01*
X13609705Y-14675888D02*
X13600182Y-14694936D01*
X13600182Y-14694936D02*
X13590658Y-14704460D01*
X13590658Y-14704460D02*
X13571610Y-14713984D01*
X13571610Y-14713984D02*
X13552562Y-14713984D01*
X13552562Y-14713984D02*
X13533515Y-14704460D01*
X13533515Y-14704460D02*
X13523991Y-14694936D01*
X13523991Y-14694936D02*
X13514467Y-14675888D01*
X13514467Y-14675888D02*
X13504943Y-14637793D01*
X13504943Y-14637793D02*
X13504943Y-14590174D01*
X13504943Y-14590174D02*
X13514467Y-14552079D01*
X13514467Y-14552079D02*
X13523991Y-14533031D01*
X13523991Y-14533031D02*
X13533515Y-14523508D01*
X13533515Y-14523508D02*
X13552562Y-14513984D01*
X13743039Y-14513984D02*
X13762086Y-14513984D01*
X13762086Y-14513984D02*
X13781134Y-14523508D01*
X13781134Y-14523508D02*
X13790658Y-14533031D01*
X13790658Y-14533031D02*
X13800182Y-14552079D01*
X13800182Y-14552079D02*
X13809705Y-14590174D01*
X13809705Y-14590174D02*
X13809705Y-14637793D01*
X13809705Y-14637793D02*
X13800182Y-14675888D01*
X13800182Y-14675888D02*
X13790658Y-14694936D01*
X13790658Y-14694936D02*
X13781134Y-14704460D01*
X13781134Y-14704460D02*
X13762086Y-14713984D01*
X13762086Y-14713984D02*
X13743039Y-14713984D01*
X13743039Y-14713984D02*
X13723991Y-14704460D01*
X13723991Y-14704460D02*
X13714467Y-14694936D01*
X13714467Y-14694936D02*
X13704943Y-14675888D01*
X13704943Y-14675888D02*
X13695420Y-14637793D01*
X13695420Y-14637793D02*
X13695420Y-14590174D01*
X13695420Y-14590174D02*
X13704943Y-14552079D01*
X13704943Y-14552079D02*
X13714467Y-14533031D01*
X13714467Y-14533031D02*
X13723991Y-14523508D01*
X13723991Y-14523508D02*
X13743039Y-14513984D01*
X13895420Y-14713984D02*
X13895420Y-14580650D01*
X13895420Y-14599698D02*
X13904943Y-14590174D01*
X13904943Y-14590174D02*
X13923991Y-14580650D01*
X13923991Y-14580650D02*
X13952563Y-14580650D01*
X13952563Y-14580650D02*
X13971610Y-14590174D01*
X13971610Y-14590174D02*
X13981134Y-14609222D01*
X13981134Y-14609222D02*
X13981134Y-14713984D01*
X13981134Y-14609222D02*
X13990658Y-14590174D01*
X13990658Y-14590174D02*
X14009705Y-14580650D01*
X14009705Y-14580650D02*
X14038277Y-14580650D01*
X14038277Y-14580650D02*
X14057324Y-14590174D01*
X14057324Y-14590174D02*
X14066848Y-14609222D01*
X14066848Y-14609222D02*
X14066848Y-14713984D01*
X14162086Y-14713984D02*
X14162086Y-14580650D01*
X14162086Y-14599698D02*
X14171610Y-14590174D01*
X14171610Y-14590174D02*
X14190658Y-14580650D01*
X14190658Y-14580650D02*
X14219229Y-14580650D01*
X14219229Y-14580650D02*
X14238277Y-14590174D01*
X14238277Y-14590174D02*
X14247801Y-14609222D01*
X14247801Y-14609222D02*
X14247801Y-14713984D01*
X14247801Y-14609222D02*
X14257324Y-14590174D01*
X14257324Y-14590174D02*
X14276372Y-14580650D01*
X14276372Y-14580650D02*
X14304943Y-14580650D01*
X14304943Y-14580650D02*
X14323991Y-14590174D01*
X14323991Y-14590174D02*
X14333515Y-14609222D01*
X14333515Y-14609222D02*
X14333515Y-14713984D01*
X14723991Y-14504460D02*
X14552563Y-14761603D01*
X14981134Y-14513984D02*
X15000182Y-14513984D01*
X15000182Y-14513984D02*
X15019229Y-14523508D01*
X15019229Y-14523508D02*
X15028753Y-14533031D01*
X15028753Y-14533031D02*
X15038277Y-14552079D01*
X15038277Y-14552079D02*
X15047801Y-14590174D01*
X15047801Y-14590174D02*
X15047801Y-14637793D01*
X15047801Y-14637793D02*
X15038277Y-14675888D01*
X15038277Y-14675888D02*
X15028753Y-14694936D01*
X15028753Y-14694936D02*
X15019229Y-14704460D01*
X15019229Y-14704460D02*
X15000182Y-14713984D01*
X15000182Y-14713984D02*
X14981134Y-14713984D01*
X14981134Y-14713984D02*
X14962086Y-14704460D01*
X14962086Y-14704460D02*
X14952563Y-14694936D01*
X14952563Y-14694936D02*
X14943039Y-14675888D01*
X14943039Y-14675888D02*
X14933515Y-14637793D01*
X14933515Y-14637793D02*
X14933515Y-14590174D01*
X14933515Y-14590174D02*
X14943039Y-14552079D01*
X14943039Y-14552079D02*
X14952563Y-14533031D01*
X14952563Y-14533031D02*
X14962086Y-14523508D01*
X14962086Y-14523508D02*
X14981134Y-14513984D01*
X15133515Y-14694936D02*
X15143039Y-14704460D01*
X15143039Y-14704460D02*
X15133515Y-14713984D01*
X15133515Y-14713984D02*
X15123991Y-14704460D01*
X15123991Y-14704460D02*
X15133515Y-14694936D01*
X15133515Y-14694936D02*
X15133515Y-14713984D01*
X15266848Y-14513984D02*
X15285896Y-14513984D01*
X15285896Y-14513984D02*
X15304944Y-14523508D01*
X15304944Y-14523508D02*
X15314467Y-14533031D01*
X15314467Y-14533031D02*
X15323991Y-14552079D01*
X15323991Y-14552079D02*
X15333515Y-14590174D01*
X15333515Y-14590174D02*
X15333515Y-14637793D01*
X15333515Y-14637793D02*
X15323991Y-14675888D01*
X15323991Y-14675888D02*
X15314467Y-14694936D01*
X15314467Y-14694936D02*
X15304944Y-14704460D01*
X15304944Y-14704460D02*
X15285896Y-14713984D01*
X15285896Y-14713984D02*
X15266848Y-14713984D01*
X15266848Y-14713984D02*
X15247801Y-14704460D01*
X15247801Y-14704460D02*
X15238277Y-14694936D01*
X15238277Y-14694936D02*
X15228753Y-14675888D01*
X15228753Y-14675888D02*
X15219229Y-14637793D01*
X15219229Y-14637793D02*
X15219229Y-14590174D01*
X15219229Y-14590174D02*
X15228753Y-14552079D01*
X15228753Y-14552079D02*
X15238277Y-14533031D01*
X15238277Y-14533031D02*
X15247801Y-14523508D01*
X15247801Y-14523508D02*
X15266848Y-14513984D01*
X15457325Y-14513984D02*
X15476372Y-14513984D01*
X15476372Y-14513984D02*
X15495420Y-14523508D01*
X15495420Y-14523508D02*
X15504944Y-14533031D01*
X15504944Y-14533031D02*
X15514467Y-14552079D01*
X15514467Y-14552079D02*
X15523991Y-14590174D01*
X15523991Y-14590174D02*
X15523991Y-14637793D01*
X15523991Y-14637793D02*
X15514467Y-14675888D01*
X15514467Y-14675888D02*
X15504944Y-14694936D01*
X15504944Y-14694936D02*
X15495420Y-14704460D01*
X15495420Y-14704460D02*
X15476372Y-14713984D01*
X15476372Y-14713984D02*
X15457325Y-14713984D01*
X15457325Y-14713984D02*
X15438277Y-14704460D01*
X15438277Y-14704460D02*
X15428753Y-14694936D01*
X15428753Y-14694936D02*
X15419229Y-14675888D01*
X15419229Y-14675888D02*
X15409706Y-14637793D01*
X15409706Y-14637793D02*
X15409706Y-14590174D01*
X15409706Y-14590174D02*
X15419229Y-14552079D01*
X15419229Y-14552079D02*
X15428753Y-14533031D01*
X15428753Y-14533031D02*
X15438277Y-14523508D01*
X15438277Y-14523508D02*
X15457325Y-14513984D01*
X15590658Y-14513984D02*
X15723991Y-14513984D01*
X15723991Y-14513984D02*
X15638277Y-14713984D01*
X15809706Y-14713984D02*
X15847801Y-14713984D01*
X15847801Y-14713984D02*
X15866848Y-14704460D01*
X15866848Y-14704460D02*
X15876372Y-14694936D01*
X15876372Y-14694936D02*
X15895420Y-14666365D01*
X15895420Y-14666365D02*
X15904944Y-14628269D01*
X15904944Y-14628269D02*
X15904944Y-14552079D01*
X15904944Y-14552079D02*
X15895420Y-14533031D01*
X15895420Y-14533031D02*
X15885896Y-14523508D01*
X15885896Y-14523508D02*
X15866848Y-14513984D01*
X15866848Y-14513984D02*
X15828753Y-14513984D01*
X15828753Y-14513984D02*
X15809706Y-14523508D01*
X15809706Y-14523508D02*
X15800182Y-14533031D01*
X15800182Y-14533031D02*
X15790658Y-14552079D01*
X15790658Y-14552079D02*
X15790658Y-14599698D01*
X15790658Y-14599698D02*
X15800182Y-14618746D01*
X15800182Y-14618746D02*
X15809706Y-14628269D01*
X15809706Y-14628269D02*
X15828753Y-14637793D01*
X15828753Y-14637793D02*
X15866848Y-14637793D01*
X15866848Y-14637793D02*
X15885896Y-14628269D01*
X15885896Y-14628269D02*
X15895420Y-14618746D01*
X15895420Y-14618746D02*
X15904944Y-14599698D01*
X15981134Y-14513984D02*
X15981134Y-14552079D01*
X16057325Y-14513984D02*
X16057325Y-14552079D01*
X16352563Y-14790174D02*
X16343039Y-14780650D01*
X16343039Y-14780650D02*
X16323991Y-14752079D01*
X16323991Y-14752079D02*
X16314468Y-14733031D01*
X16314468Y-14733031D02*
X16304944Y-14704460D01*
X16304944Y-14704460D02*
X16295420Y-14656841D01*
X16295420Y-14656841D02*
X16295420Y-14618746D01*
X16295420Y-14618746D02*
X16304944Y-14571127D01*
X16304944Y-14571127D02*
X16314468Y-14542555D01*
X16314468Y-14542555D02*
X16323991Y-14523508D01*
X16323991Y-14523508D02*
X16343039Y-14494936D01*
X16343039Y-14494936D02*
X16352563Y-14485412D01*
X16533515Y-14713984D02*
X16419229Y-14713984D01*
X16476372Y-14713984D02*
X16476372Y-14513984D01*
X16476372Y-14513984D02*
X16457325Y-14542555D01*
X16457325Y-14542555D02*
X16438277Y-14561603D01*
X16438277Y-14561603D02*
X16419229Y-14571127D01*
X16609706Y-14533031D02*
X16619229Y-14523508D01*
X16619229Y-14523508D02*
X16638277Y-14513984D01*
X16638277Y-14513984D02*
X16685896Y-14513984D01*
X16685896Y-14513984D02*
X16704944Y-14523508D01*
X16704944Y-14523508D02*
X16714468Y-14533031D01*
X16714468Y-14533031D02*
X16723991Y-14552079D01*
X16723991Y-14552079D02*
X16723991Y-14571127D01*
X16723991Y-14571127D02*
X16714468Y-14599698D01*
X16714468Y-14599698D02*
X16600182Y-14713984D01*
X16600182Y-14713984D02*
X16723991Y-14713984D01*
X16962087Y-14713984D02*
X16962087Y-14513984D01*
X17047801Y-14713984D02*
X17047801Y-14609222D01*
X17047801Y-14609222D02*
X17038277Y-14590174D01*
X17038277Y-14590174D02*
X17019230Y-14580650D01*
X17019230Y-14580650D02*
X16990658Y-14580650D01*
X16990658Y-14580650D02*
X16971611Y-14590174D01*
X16971611Y-14590174D02*
X16962087Y-14599698D01*
X17171611Y-14713984D02*
X17152563Y-14704460D01*
X17152563Y-14704460D02*
X17143039Y-14694936D01*
X17143039Y-14694936D02*
X17133515Y-14675888D01*
X17133515Y-14675888D02*
X17133515Y-14618746D01*
X17133515Y-14618746D02*
X17143039Y-14599698D01*
X17143039Y-14599698D02*
X17152563Y-14590174D01*
X17152563Y-14590174D02*
X17171611Y-14580650D01*
X17171611Y-14580650D02*
X17200182Y-14580650D01*
X17200182Y-14580650D02*
X17219230Y-14590174D01*
X17219230Y-14590174D02*
X17228753Y-14599698D01*
X17228753Y-14599698D02*
X17238277Y-14618746D01*
X17238277Y-14618746D02*
X17238277Y-14675888D01*
X17238277Y-14675888D02*
X17228753Y-14694936D01*
X17228753Y-14694936D02*
X17219230Y-14704460D01*
X17219230Y-14704460D02*
X17200182Y-14713984D01*
X17200182Y-14713984D02*
X17171611Y-14713984D01*
X17352563Y-14713984D02*
X17333515Y-14704460D01*
X17333515Y-14704460D02*
X17323992Y-14685412D01*
X17323992Y-14685412D02*
X17323992Y-14513984D01*
X17504944Y-14704460D02*
X17485896Y-14713984D01*
X17485896Y-14713984D02*
X17447801Y-14713984D01*
X17447801Y-14713984D02*
X17428753Y-14704460D01*
X17428753Y-14704460D02*
X17419230Y-14685412D01*
X17419230Y-14685412D02*
X17419230Y-14609222D01*
X17419230Y-14609222D02*
X17428753Y-14590174D01*
X17428753Y-14590174D02*
X17447801Y-14580650D01*
X17447801Y-14580650D02*
X17485896Y-14580650D01*
X17485896Y-14580650D02*
X17504944Y-14590174D01*
X17504944Y-14590174D02*
X17514468Y-14609222D01*
X17514468Y-14609222D02*
X17514468Y-14628269D01*
X17514468Y-14628269D02*
X17419230Y-14647317D01*
X17590658Y-14704460D02*
X17609706Y-14713984D01*
X17609706Y-14713984D02*
X17647801Y-14713984D01*
X17647801Y-14713984D02*
X17666849Y-14704460D01*
X17666849Y-14704460D02*
X17676373Y-14685412D01*
X17676373Y-14685412D02*
X17676373Y-14675888D01*
X17676373Y-14675888D02*
X17666849Y-14656841D01*
X17666849Y-14656841D02*
X17647801Y-14647317D01*
X17647801Y-14647317D02*
X17619230Y-14647317D01*
X17619230Y-14647317D02*
X17600182Y-14637793D01*
X17600182Y-14637793D02*
X17590658Y-14618746D01*
X17590658Y-14618746D02*
X17590658Y-14609222D01*
X17590658Y-14609222D02*
X17600182Y-14590174D01*
X17600182Y-14590174D02*
X17619230Y-14580650D01*
X17619230Y-14580650D02*
X17647801Y-14580650D01*
X17647801Y-14580650D02*
X17666849Y-14590174D01*
X17743039Y-14790174D02*
X17752563Y-14780650D01*
X17752563Y-14780650D02*
X17771611Y-14752079D01*
X17771611Y-14752079D02*
X17781134Y-14733031D01*
X17781134Y-14733031D02*
X17790658Y-14704460D01*
X17790658Y-14704460D02*
X17800182Y-14656841D01*
X17800182Y-14656841D02*
X17800182Y-14618746D01*
X17800182Y-14618746D02*
X17790658Y-14571127D01*
X17790658Y-14571127D02*
X17781134Y-14542555D01*
X17781134Y-14542555D02*
X17771611Y-14523508D01*
X17771611Y-14523508D02*
X17752563Y-14494936D01*
X17752563Y-14494936D02*
X17743039Y-14485412D01*
D12*
X12777500Y-14886500D02*
G75*
G02*
X12747500Y-14886500I-15000J0D01*
G01*
X12747500Y-14886500D02*
G75*
G02*
X12777500Y-14886500I15000J0D01*
G01*
D11*
X13076372Y-14777984D02*
X13095420Y-14777984D01*
X13095420Y-14777984D02*
X13114467Y-14787508D01*
X13114467Y-14787508D02*
X13123991Y-14797031D01*
X13123991Y-14797031D02*
X13133515Y-14816079D01*
X13133515Y-14816079D02*
X13143039Y-14854174D01*
X13143039Y-14854174D02*
X13143039Y-14901793D01*
X13143039Y-14901793D02*
X13133515Y-14939888D01*
X13133515Y-14939888D02*
X13123991Y-14958936D01*
X13123991Y-14958936D02*
X13114467Y-14968460D01*
X13114467Y-14968460D02*
X13095420Y-14977984D01*
X13095420Y-14977984D02*
X13076372Y-14977984D01*
X13076372Y-14977984D02*
X13057324Y-14968460D01*
X13057324Y-14968460D02*
X13047801Y-14958936D01*
X13047801Y-14958936D02*
X13038277Y-14939888D01*
X13038277Y-14939888D02*
X13028753Y-14901793D01*
X13028753Y-14901793D02*
X13028753Y-14854174D01*
X13028753Y-14854174D02*
X13038277Y-14816079D01*
X13038277Y-14816079D02*
X13047801Y-14797031D01*
X13047801Y-14797031D02*
X13057324Y-14787508D01*
X13057324Y-14787508D02*
X13076372Y-14777984D01*
X13228753Y-14958936D02*
X13238277Y-14968460D01*
X13238277Y-14968460D02*
X13228753Y-14977984D01*
X13228753Y-14977984D02*
X13219229Y-14968460D01*
X13219229Y-14968460D02*
X13228753Y-14958936D01*
X13228753Y-14958936D02*
X13228753Y-14977984D01*
X13304943Y-14777984D02*
X13428753Y-14777984D01*
X13428753Y-14777984D02*
X13362086Y-14854174D01*
X13362086Y-14854174D02*
X13390658Y-14854174D01*
X13390658Y-14854174D02*
X13409705Y-14863698D01*
X13409705Y-14863698D02*
X13419229Y-14873222D01*
X13419229Y-14873222D02*
X13428753Y-14892269D01*
X13428753Y-14892269D02*
X13428753Y-14939888D01*
X13428753Y-14939888D02*
X13419229Y-14958936D01*
X13419229Y-14958936D02*
X13409705Y-14968460D01*
X13409705Y-14968460D02*
X13390658Y-14977984D01*
X13390658Y-14977984D02*
X13333515Y-14977984D01*
X13333515Y-14977984D02*
X13314467Y-14968460D01*
X13314467Y-14968460D02*
X13304943Y-14958936D01*
X13552562Y-14777984D02*
X13571610Y-14777984D01*
X13571610Y-14777984D02*
X13590658Y-14787508D01*
X13590658Y-14787508D02*
X13600182Y-14797031D01*
X13600182Y-14797031D02*
X13609705Y-14816079D01*
X13609705Y-14816079D02*
X13619229Y-14854174D01*
X13619229Y-14854174D02*
X13619229Y-14901793D01*
X13619229Y-14901793D02*
X13609705Y-14939888D01*
X13609705Y-14939888D02*
X13600182Y-14958936D01*
X13600182Y-14958936D02*
X13590658Y-14968460D01*
X13590658Y-14968460D02*
X13571610Y-14977984D01*
X13571610Y-14977984D02*
X13552562Y-14977984D01*
X13552562Y-14977984D02*
X13533515Y-14968460D01*
X13533515Y-14968460D02*
X13523991Y-14958936D01*
X13523991Y-14958936D02*
X13514467Y-14939888D01*
X13514467Y-14939888D02*
X13504943Y-14901793D01*
X13504943Y-14901793D02*
X13504943Y-14854174D01*
X13504943Y-14854174D02*
X13514467Y-14816079D01*
X13514467Y-14816079D02*
X13523991Y-14797031D01*
X13523991Y-14797031D02*
X13533515Y-14787508D01*
X13533515Y-14787508D02*
X13552562Y-14777984D01*
X13743039Y-14777984D02*
X13762086Y-14777984D01*
X13762086Y-14777984D02*
X13781134Y-14787508D01*
X13781134Y-14787508D02*
X13790658Y-14797031D01*
X13790658Y-14797031D02*
X13800182Y-14816079D01*
X13800182Y-14816079D02*
X13809705Y-14854174D01*
X13809705Y-14854174D02*
X13809705Y-14901793D01*
X13809705Y-14901793D02*
X13800182Y-14939888D01*
X13800182Y-14939888D02*
X13790658Y-14958936D01*
X13790658Y-14958936D02*
X13781134Y-14968460D01*
X13781134Y-14968460D02*
X13762086Y-14977984D01*
X13762086Y-14977984D02*
X13743039Y-14977984D01*
X13743039Y-14977984D02*
X13723991Y-14968460D01*
X13723991Y-14968460D02*
X13714467Y-14958936D01*
X13714467Y-14958936D02*
X13704943Y-14939888D01*
X13704943Y-14939888D02*
X13695420Y-14901793D01*
X13695420Y-14901793D02*
X13695420Y-14854174D01*
X13695420Y-14854174D02*
X13704943Y-14816079D01*
X13704943Y-14816079D02*
X13714467Y-14797031D01*
X13714467Y-14797031D02*
X13723991Y-14787508D01*
X13723991Y-14787508D02*
X13743039Y-14777984D01*
X13895420Y-14977984D02*
X13895420Y-14844650D01*
X13895420Y-14863698D02*
X13904943Y-14854174D01*
X13904943Y-14854174D02*
X13923991Y-14844650D01*
X13923991Y-14844650D02*
X13952563Y-14844650D01*
X13952563Y-14844650D02*
X13971610Y-14854174D01*
X13971610Y-14854174D02*
X13981134Y-14873222D01*
X13981134Y-14873222D02*
X13981134Y-14977984D01*
X13981134Y-14873222D02*
X13990658Y-14854174D01*
X13990658Y-14854174D02*
X14009705Y-14844650D01*
X14009705Y-14844650D02*
X14038277Y-14844650D01*
X14038277Y-14844650D02*
X14057324Y-14854174D01*
X14057324Y-14854174D02*
X14066848Y-14873222D01*
X14066848Y-14873222D02*
X14066848Y-14977984D01*
X14162086Y-14977984D02*
X14162086Y-14844650D01*
X14162086Y-14863698D02*
X14171610Y-14854174D01*
X14171610Y-14854174D02*
X14190658Y-14844650D01*
X14190658Y-14844650D02*
X14219229Y-14844650D01*
X14219229Y-14844650D02*
X14238277Y-14854174D01*
X14238277Y-14854174D02*
X14247801Y-14873222D01*
X14247801Y-14873222D02*
X14247801Y-14977984D01*
X14247801Y-14873222D02*
X14257324Y-14854174D01*
X14257324Y-14854174D02*
X14276372Y-14844650D01*
X14276372Y-14844650D02*
X14304943Y-14844650D01*
X14304943Y-14844650D02*
X14323991Y-14854174D01*
X14323991Y-14854174D02*
X14333515Y-14873222D01*
X14333515Y-14873222D02*
X14333515Y-14977984D01*
X14723991Y-14768460D02*
X14552563Y-15025603D01*
X14981134Y-14777984D02*
X15000182Y-14777984D01*
X15000182Y-14777984D02*
X15019229Y-14787508D01*
X15019229Y-14787508D02*
X15028753Y-14797031D01*
X15028753Y-14797031D02*
X15038277Y-14816079D01*
X15038277Y-14816079D02*
X15047801Y-14854174D01*
X15047801Y-14854174D02*
X15047801Y-14901793D01*
X15047801Y-14901793D02*
X15038277Y-14939888D01*
X15038277Y-14939888D02*
X15028753Y-14958936D01*
X15028753Y-14958936D02*
X15019229Y-14968460D01*
X15019229Y-14968460D02*
X15000182Y-14977984D01*
X15000182Y-14977984D02*
X14981134Y-14977984D01*
X14981134Y-14977984D02*
X14962086Y-14968460D01*
X14962086Y-14968460D02*
X14952563Y-14958936D01*
X14952563Y-14958936D02*
X14943039Y-14939888D01*
X14943039Y-14939888D02*
X14933515Y-14901793D01*
X14933515Y-14901793D02*
X14933515Y-14854174D01*
X14933515Y-14854174D02*
X14943039Y-14816079D01*
X14943039Y-14816079D02*
X14952563Y-14797031D01*
X14952563Y-14797031D02*
X14962086Y-14787508D01*
X14962086Y-14787508D02*
X14981134Y-14777984D01*
X15133515Y-14958936D02*
X15143039Y-14968460D01*
X15143039Y-14968460D02*
X15133515Y-14977984D01*
X15133515Y-14977984D02*
X15123991Y-14968460D01*
X15123991Y-14968460D02*
X15133515Y-14958936D01*
X15133515Y-14958936D02*
X15133515Y-14977984D01*
X15266848Y-14777984D02*
X15285896Y-14777984D01*
X15285896Y-14777984D02*
X15304944Y-14787508D01*
X15304944Y-14787508D02*
X15314467Y-14797031D01*
X15314467Y-14797031D02*
X15323991Y-14816079D01*
X15323991Y-14816079D02*
X15333515Y-14854174D01*
X15333515Y-14854174D02*
X15333515Y-14901793D01*
X15333515Y-14901793D02*
X15323991Y-14939888D01*
X15323991Y-14939888D02*
X15314467Y-14958936D01*
X15314467Y-14958936D02*
X15304944Y-14968460D01*
X15304944Y-14968460D02*
X15285896Y-14977984D01*
X15285896Y-14977984D02*
X15266848Y-14977984D01*
X15266848Y-14977984D02*
X15247801Y-14968460D01*
X15247801Y-14968460D02*
X15238277Y-14958936D01*
X15238277Y-14958936D02*
X15228753Y-14939888D01*
X15228753Y-14939888D02*
X15219229Y-14901793D01*
X15219229Y-14901793D02*
X15219229Y-14854174D01*
X15219229Y-14854174D02*
X15228753Y-14816079D01*
X15228753Y-14816079D02*
X15238277Y-14797031D01*
X15238277Y-14797031D02*
X15247801Y-14787508D01*
X15247801Y-14787508D02*
X15266848Y-14777984D01*
X15523991Y-14977984D02*
X15409706Y-14977984D01*
X15466848Y-14977984D02*
X15466848Y-14777984D01*
X15466848Y-14777984D02*
X15447801Y-14806555D01*
X15447801Y-14806555D02*
X15428753Y-14825603D01*
X15428753Y-14825603D02*
X15409706Y-14835127D01*
X15714467Y-14977984D02*
X15600182Y-14977984D01*
X15657325Y-14977984D02*
X15657325Y-14777984D01*
X15657325Y-14777984D02*
X15638277Y-14806555D01*
X15638277Y-14806555D02*
X15619229Y-14825603D01*
X15619229Y-14825603D02*
X15600182Y-14835127D01*
X15828753Y-14863698D02*
X15809706Y-14854174D01*
X15809706Y-14854174D02*
X15800182Y-14844650D01*
X15800182Y-14844650D02*
X15790658Y-14825603D01*
X15790658Y-14825603D02*
X15790658Y-14816079D01*
X15790658Y-14816079D02*
X15800182Y-14797031D01*
X15800182Y-14797031D02*
X15809706Y-14787508D01*
X15809706Y-14787508D02*
X15828753Y-14777984D01*
X15828753Y-14777984D02*
X15866848Y-14777984D01*
X15866848Y-14777984D02*
X15885896Y-14787508D01*
X15885896Y-14787508D02*
X15895420Y-14797031D01*
X15895420Y-14797031D02*
X15904944Y-14816079D01*
X15904944Y-14816079D02*
X15904944Y-14825603D01*
X15904944Y-14825603D02*
X15895420Y-14844650D01*
X15895420Y-14844650D02*
X15885896Y-14854174D01*
X15885896Y-14854174D02*
X15866848Y-14863698D01*
X15866848Y-14863698D02*
X15828753Y-14863698D01*
X15828753Y-14863698D02*
X15809706Y-14873222D01*
X15809706Y-14873222D02*
X15800182Y-14882746D01*
X15800182Y-14882746D02*
X15790658Y-14901793D01*
X15790658Y-14901793D02*
X15790658Y-14939888D01*
X15790658Y-14939888D02*
X15800182Y-14958936D01*
X15800182Y-14958936D02*
X15809706Y-14968460D01*
X15809706Y-14968460D02*
X15828753Y-14977984D01*
X15828753Y-14977984D02*
X15866848Y-14977984D01*
X15866848Y-14977984D02*
X15885896Y-14968460D01*
X15885896Y-14968460D02*
X15895420Y-14958936D01*
X15895420Y-14958936D02*
X15904944Y-14939888D01*
X15904944Y-14939888D02*
X15904944Y-14901793D01*
X15904944Y-14901793D02*
X15895420Y-14882746D01*
X15895420Y-14882746D02*
X15885896Y-14873222D01*
X15885896Y-14873222D02*
X15866848Y-14863698D01*
X15981134Y-14777984D02*
X15981134Y-14816079D01*
X16057325Y-14777984D02*
X16057325Y-14816079D01*
X16352563Y-15054174D02*
X16343039Y-15044650D01*
X16343039Y-15044650D02*
X16323991Y-15016079D01*
X16323991Y-15016079D02*
X16314468Y-14997031D01*
X16314468Y-14997031D02*
X16304944Y-14968460D01*
X16304944Y-14968460D02*
X16295420Y-14920841D01*
X16295420Y-14920841D02*
X16295420Y-14882746D01*
X16295420Y-14882746D02*
X16304944Y-14835127D01*
X16304944Y-14835127D02*
X16314468Y-14806555D01*
X16314468Y-14806555D02*
X16323991Y-14787508D01*
X16323991Y-14787508D02*
X16343039Y-14758936D01*
X16343039Y-14758936D02*
X16352563Y-14749412D01*
X16533515Y-14977984D02*
X16419229Y-14977984D01*
X16476372Y-14977984D02*
X16476372Y-14777984D01*
X16476372Y-14777984D02*
X16457325Y-14806555D01*
X16457325Y-14806555D02*
X16438277Y-14825603D01*
X16438277Y-14825603D02*
X16419229Y-14835127D01*
X16657325Y-14777984D02*
X16676372Y-14777984D01*
X16676372Y-14777984D02*
X16695420Y-14787508D01*
X16695420Y-14787508D02*
X16704944Y-14797031D01*
X16704944Y-14797031D02*
X16714468Y-14816079D01*
X16714468Y-14816079D02*
X16723991Y-14854174D01*
X16723991Y-14854174D02*
X16723991Y-14901793D01*
X16723991Y-14901793D02*
X16714468Y-14939888D01*
X16714468Y-14939888D02*
X16704944Y-14958936D01*
X16704944Y-14958936D02*
X16695420Y-14968460D01*
X16695420Y-14968460D02*
X16676372Y-14977984D01*
X16676372Y-14977984D02*
X16657325Y-14977984D01*
X16657325Y-14977984D02*
X16638277Y-14968460D01*
X16638277Y-14968460D02*
X16628753Y-14958936D01*
X16628753Y-14958936D02*
X16619229Y-14939888D01*
X16619229Y-14939888D02*
X16609706Y-14901793D01*
X16609706Y-14901793D02*
X16609706Y-14854174D01*
X16609706Y-14854174D02*
X16619229Y-14816079D01*
X16619229Y-14816079D02*
X16628753Y-14797031D01*
X16628753Y-14797031D02*
X16638277Y-14787508D01*
X16638277Y-14787508D02*
X16657325Y-14777984D01*
X16895420Y-14777984D02*
X16857325Y-14777984D01*
X16857325Y-14777984D02*
X16838277Y-14787508D01*
X16838277Y-14787508D02*
X16828753Y-14797031D01*
X16828753Y-14797031D02*
X16809706Y-14825603D01*
X16809706Y-14825603D02*
X16800182Y-14863698D01*
X16800182Y-14863698D02*
X16800182Y-14939888D01*
X16800182Y-14939888D02*
X16809706Y-14958936D01*
X16809706Y-14958936D02*
X16819230Y-14968460D01*
X16819230Y-14968460D02*
X16838277Y-14977984D01*
X16838277Y-14977984D02*
X16876372Y-14977984D01*
X16876372Y-14977984D02*
X16895420Y-14968460D01*
X16895420Y-14968460D02*
X16904944Y-14958936D01*
X16904944Y-14958936D02*
X16914468Y-14939888D01*
X16914468Y-14939888D02*
X16914468Y-14892269D01*
X16914468Y-14892269D02*
X16904944Y-14873222D01*
X16904944Y-14873222D02*
X16895420Y-14863698D01*
X16895420Y-14863698D02*
X16876372Y-14854174D01*
X16876372Y-14854174D02*
X16838277Y-14854174D01*
X16838277Y-14854174D02*
X16819230Y-14863698D01*
X16819230Y-14863698D02*
X16809706Y-14873222D01*
X16809706Y-14873222D02*
X16800182Y-14892269D01*
X17152563Y-14977984D02*
X17152563Y-14777984D01*
X17238277Y-14977984D02*
X17238277Y-14873222D01*
X17238277Y-14873222D02*
X17228753Y-14854174D01*
X17228753Y-14854174D02*
X17209706Y-14844650D01*
X17209706Y-14844650D02*
X17181134Y-14844650D01*
X17181134Y-14844650D02*
X17162087Y-14854174D01*
X17162087Y-14854174D02*
X17152563Y-14863698D01*
X17362087Y-14977984D02*
X17343039Y-14968460D01*
X17343039Y-14968460D02*
X17333515Y-14958936D01*
X17333515Y-14958936D02*
X17323992Y-14939888D01*
X17323992Y-14939888D02*
X17323992Y-14882746D01*
X17323992Y-14882746D02*
X17333515Y-14863698D01*
X17333515Y-14863698D02*
X17343039Y-14854174D01*
X17343039Y-14854174D02*
X17362087Y-14844650D01*
X17362087Y-14844650D02*
X17390658Y-14844650D01*
X17390658Y-14844650D02*
X17409706Y-14854174D01*
X17409706Y-14854174D02*
X17419230Y-14863698D01*
X17419230Y-14863698D02*
X17428753Y-14882746D01*
X17428753Y-14882746D02*
X17428753Y-14939888D01*
X17428753Y-14939888D02*
X17419230Y-14958936D01*
X17419230Y-14958936D02*
X17409706Y-14968460D01*
X17409706Y-14968460D02*
X17390658Y-14977984D01*
X17390658Y-14977984D02*
X17362087Y-14977984D01*
X17543039Y-14977984D02*
X17523992Y-14968460D01*
X17523992Y-14968460D02*
X17514468Y-14949412D01*
X17514468Y-14949412D02*
X17514468Y-14777984D01*
X17695420Y-14968460D02*
X17676373Y-14977984D01*
X17676373Y-14977984D02*
X17638277Y-14977984D01*
X17638277Y-14977984D02*
X17619230Y-14968460D01*
X17619230Y-14968460D02*
X17609706Y-14949412D01*
X17609706Y-14949412D02*
X17609706Y-14873222D01*
X17609706Y-14873222D02*
X17619230Y-14854174D01*
X17619230Y-14854174D02*
X17638277Y-14844650D01*
X17638277Y-14844650D02*
X17676373Y-14844650D01*
X17676373Y-14844650D02*
X17695420Y-14854174D01*
X17695420Y-14854174D02*
X17704944Y-14873222D01*
X17704944Y-14873222D02*
X17704944Y-14892269D01*
X17704944Y-14892269D02*
X17609706Y-14911317D01*
X17781134Y-14968460D02*
X17800182Y-14977984D01*
X17800182Y-14977984D02*
X17838277Y-14977984D01*
X17838277Y-14977984D02*
X17857325Y-14968460D01*
X17857325Y-14968460D02*
X17866849Y-14949412D01*
X17866849Y-14949412D02*
X17866849Y-14939888D01*
X17866849Y-14939888D02*
X17857325Y-14920841D01*
X17857325Y-14920841D02*
X17838277Y-14911317D01*
X17838277Y-14911317D02*
X17809706Y-14911317D01*
X17809706Y-14911317D02*
X17790658Y-14901793D01*
X17790658Y-14901793D02*
X17781134Y-14882746D01*
X17781134Y-14882746D02*
X17781134Y-14873222D01*
X17781134Y-14873222D02*
X17790658Y-14854174D01*
X17790658Y-14854174D02*
X17809706Y-14844650D01*
X17809706Y-14844650D02*
X17838277Y-14844650D01*
X17838277Y-14844650D02*
X17857325Y-14854174D01*
X17933515Y-15054174D02*
X17943039Y-15044650D01*
X17943039Y-15044650D02*
X17962087Y-15016079D01*
X17962087Y-15016079D02*
X17971611Y-14997031D01*
X17971611Y-14997031D02*
X17981134Y-14968460D01*
X17981134Y-14968460D02*
X17990658Y-14920841D01*
X17990658Y-14920841D02*
X17990658Y-14882746D01*
X17990658Y-14882746D02*
X17981134Y-14835127D01*
X17981134Y-14835127D02*
X17971611Y-14806555D01*
X17971611Y-14806555D02*
X17962087Y-14787508D01*
X17962087Y-14787508D02*
X17943039Y-14758936D01*
X17943039Y-14758936D02*
X17933515Y-14749412D01*
D12*
X12727500Y-15100500D02*
X12727500Y-15200500D01*
X12677500Y-15150500D02*
X12777500Y-15150500D01*
D11*
X13143039Y-15241984D02*
X13028753Y-15241984D01*
X13085896Y-15241984D02*
X13085896Y-15041984D01*
X13085896Y-15041984D02*
X13066848Y-15070555D01*
X13066848Y-15070555D02*
X13047801Y-15089603D01*
X13047801Y-15089603D02*
X13028753Y-15099127D01*
X13228753Y-15222936D02*
X13238277Y-15232460D01*
X13238277Y-15232460D02*
X13228753Y-15241984D01*
X13228753Y-15241984D02*
X13219229Y-15232460D01*
X13219229Y-15232460D02*
X13228753Y-15222936D01*
X13228753Y-15222936D02*
X13228753Y-15241984D01*
X13362086Y-15041984D02*
X13381134Y-15041984D01*
X13381134Y-15041984D02*
X13400182Y-15051508D01*
X13400182Y-15051508D02*
X13409705Y-15061031D01*
X13409705Y-15061031D02*
X13419229Y-15080079D01*
X13419229Y-15080079D02*
X13428753Y-15118174D01*
X13428753Y-15118174D02*
X13428753Y-15165793D01*
X13428753Y-15165793D02*
X13419229Y-15203888D01*
X13419229Y-15203888D02*
X13409705Y-15222936D01*
X13409705Y-15222936D02*
X13400182Y-15232460D01*
X13400182Y-15232460D02*
X13381134Y-15241984D01*
X13381134Y-15241984D02*
X13362086Y-15241984D01*
X13362086Y-15241984D02*
X13343039Y-15232460D01*
X13343039Y-15232460D02*
X13333515Y-15222936D01*
X13333515Y-15222936D02*
X13323991Y-15203888D01*
X13323991Y-15203888D02*
X13314467Y-15165793D01*
X13314467Y-15165793D02*
X13314467Y-15118174D01*
X13314467Y-15118174D02*
X13323991Y-15080079D01*
X13323991Y-15080079D02*
X13333515Y-15061031D01*
X13333515Y-15061031D02*
X13343039Y-15051508D01*
X13343039Y-15051508D02*
X13362086Y-15041984D01*
X13552562Y-15041984D02*
X13571610Y-15041984D01*
X13571610Y-15041984D02*
X13590658Y-15051508D01*
X13590658Y-15051508D02*
X13600182Y-15061031D01*
X13600182Y-15061031D02*
X13609705Y-15080079D01*
X13609705Y-15080079D02*
X13619229Y-15118174D01*
X13619229Y-15118174D02*
X13619229Y-15165793D01*
X13619229Y-15165793D02*
X13609705Y-15203888D01*
X13609705Y-15203888D02*
X13600182Y-15222936D01*
X13600182Y-15222936D02*
X13590658Y-15232460D01*
X13590658Y-15232460D02*
X13571610Y-15241984D01*
X13571610Y-15241984D02*
X13552562Y-15241984D01*
X13552562Y-15241984D02*
X13533515Y-15232460D01*
X13533515Y-15232460D02*
X13523991Y-15222936D01*
X13523991Y-15222936D02*
X13514467Y-15203888D01*
X13514467Y-15203888D02*
X13504943Y-15165793D01*
X13504943Y-15165793D02*
X13504943Y-15118174D01*
X13504943Y-15118174D02*
X13514467Y-15080079D01*
X13514467Y-15080079D02*
X13523991Y-15061031D01*
X13523991Y-15061031D02*
X13533515Y-15051508D01*
X13533515Y-15051508D02*
X13552562Y-15041984D01*
X13743039Y-15041984D02*
X13762086Y-15041984D01*
X13762086Y-15041984D02*
X13781134Y-15051508D01*
X13781134Y-15051508D02*
X13790658Y-15061031D01*
X13790658Y-15061031D02*
X13800182Y-15080079D01*
X13800182Y-15080079D02*
X13809705Y-15118174D01*
X13809705Y-15118174D02*
X13809705Y-15165793D01*
X13809705Y-15165793D02*
X13800182Y-15203888D01*
X13800182Y-15203888D02*
X13790658Y-15222936D01*
X13790658Y-15222936D02*
X13781134Y-15232460D01*
X13781134Y-15232460D02*
X13762086Y-15241984D01*
X13762086Y-15241984D02*
X13743039Y-15241984D01*
X13743039Y-15241984D02*
X13723991Y-15232460D01*
X13723991Y-15232460D02*
X13714467Y-15222936D01*
X13714467Y-15222936D02*
X13704943Y-15203888D01*
X13704943Y-15203888D02*
X13695420Y-15165793D01*
X13695420Y-15165793D02*
X13695420Y-15118174D01*
X13695420Y-15118174D02*
X13704943Y-15080079D01*
X13704943Y-15080079D02*
X13714467Y-15061031D01*
X13714467Y-15061031D02*
X13723991Y-15051508D01*
X13723991Y-15051508D02*
X13743039Y-15041984D01*
X13895420Y-15241984D02*
X13895420Y-15108650D01*
X13895420Y-15127698D02*
X13904943Y-15118174D01*
X13904943Y-15118174D02*
X13923991Y-15108650D01*
X13923991Y-15108650D02*
X13952563Y-15108650D01*
X13952563Y-15108650D02*
X13971610Y-15118174D01*
X13971610Y-15118174D02*
X13981134Y-15137222D01*
X13981134Y-15137222D02*
X13981134Y-15241984D01*
X13981134Y-15137222D02*
X13990658Y-15118174D01*
X13990658Y-15118174D02*
X14009705Y-15108650D01*
X14009705Y-15108650D02*
X14038277Y-15108650D01*
X14038277Y-15108650D02*
X14057324Y-15118174D01*
X14057324Y-15118174D02*
X14066848Y-15137222D01*
X14066848Y-15137222D02*
X14066848Y-15241984D01*
X14162086Y-15241984D02*
X14162086Y-15108650D01*
X14162086Y-15127698D02*
X14171610Y-15118174D01*
X14171610Y-15118174D02*
X14190658Y-15108650D01*
X14190658Y-15108650D02*
X14219229Y-15108650D01*
X14219229Y-15108650D02*
X14238277Y-15118174D01*
X14238277Y-15118174D02*
X14247801Y-15137222D01*
X14247801Y-15137222D02*
X14247801Y-15241984D01*
X14247801Y-15137222D02*
X14257324Y-15118174D01*
X14257324Y-15118174D02*
X14276372Y-15108650D01*
X14276372Y-15108650D02*
X14304943Y-15108650D01*
X14304943Y-15108650D02*
X14323991Y-15118174D01*
X14323991Y-15118174D02*
X14333515Y-15137222D01*
X14333515Y-15137222D02*
X14333515Y-15241984D01*
X14723991Y-15032460D02*
X14552563Y-15289603D01*
X14981134Y-15041984D02*
X15000182Y-15041984D01*
X15000182Y-15041984D02*
X15019229Y-15051508D01*
X15019229Y-15051508D02*
X15028753Y-15061031D01*
X15028753Y-15061031D02*
X15038277Y-15080079D01*
X15038277Y-15080079D02*
X15047801Y-15118174D01*
X15047801Y-15118174D02*
X15047801Y-15165793D01*
X15047801Y-15165793D02*
X15038277Y-15203888D01*
X15038277Y-15203888D02*
X15028753Y-15222936D01*
X15028753Y-15222936D02*
X15019229Y-15232460D01*
X15019229Y-15232460D02*
X15000182Y-15241984D01*
X15000182Y-15241984D02*
X14981134Y-15241984D01*
X14981134Y-15241984D02*
X14962086Y-15232460D01*
X14962086Y-15232460D02*
X14952563Y-15222936D01*
X14952563Y-15222936D02*
X14943039Y-15203888D01*
X14943039Y-15203888D02*
X14933515Y-15165793D01*
X14933515Y-15165793D02*
X14933515Y-15118174D01*
X14933515Y-15118174D02*
X14943039Y-15080079D01*
X14943039Y-15080079D02*
X14952563Y-15061031D01*
X14952563Y-15061031D02*
X14962086Y-15051508D01*
X14962086Y-15051508D02*
X14981134Y-15041984D01*
X15133515Y-15222936D02*
X15143039Y-15232460D01*
X15143039Y-15232460D02*
X15133515Y-15241984D01*
X15133515Y-15241984D02*
X15123991Y-15232460D01*
X15123991Y-15232460D02*
X15133515Y-15222936D01*
X15133515Y-15222936D02*
X15133515Y-15241984D01*
X15266848Y-15041984D02*
X15285896Y-15041984D01*
X15285896Y-15041984D02*
X15304944Y-15051508D01*
X15304944Y-15051508D02*
X15314467Y-15061031D01*
X15314467Y-15061031D02*
X15323991Y-15080079D01*
X15323991Y-15080079D02*
X15333515Y-15118174D01*
X15333515Y-15118174D02*
X15333515Y-15165793D01*
X15333515Y-15165793D02*
X15323991Y-15203888D01*
X15323991Y-15203888D02*
X15314467Y-15222936D01*
X15314467Y-15222936D02*
X15304944Y-15232460D01*
X15304944Y-15232460D02*
X15285896Y-15241984D01*
X15285896Y-15241984D02*
X15266848Y-15241984D01*
X15266848Y-15241984D02*
X15247801Y-15232460D01*
X15247801Y-15232460D02*
X15238277Y-15222936D01*
X15238277Y-15222936D02*
X15228753Y-15203888D01*
X15228753Y-15203888D02*
X15219229Y-15165793D01*
X15219229Y-15165793D02*
X15219229Y-15118174D01*
X15219229Y-15118174D02*
X15228753Y-15080079D01*
X15228753Y-15080079D02*
X15238277Y-15061031D01*
X15238277Y-15061031D02*
X15247801Y-15051508D01*
X15247801Y-15051508D02*
X15266848Y-15041984D01*
X15400182Y-15041984D02*
X15523991Y-15041984D01*
X15523991Y-15041984D02*
X15457325Y-15118174D01*
X15457325Y-15118174D02*
X15485896Y-15118174D01*
X15485896Y-15118174D02*
X15504944Y-15127698D01*
X15504944Y-15127698D02*
X15514467Y-15137222D01*
X15514467Y-15137222D02*
X15523991Y-15156269D01*
X15523991Y-15156269D02*
X15523991Y-15203888D01*
X15523991Y-15203888D02*
X15514467Y-15222936D01*
X15514467Y-15222936D02*
X15504944Y-15232460D01*
X15504944Y-15232460D02*
X15485896Y-15241984D01*
X15485896Y-15241984D02*
X15428753Y-15241984D01*
X15428753Y-15241984D02*
X15409706Y-15232460D01*
X15409706Y-15232460D02*
X15400182Y-15222936D01*
X15619229Y-15241984D02*
X15657325Y-15241984D01*
X15657325Y-15241984D02*
X15676372Y-15232460D01*
X15676372Y-15232460D02*
X15685896Y-15222936D01*
X15685896Y-15222936D02*
X15704944Y-15194365D01*
X15704944Y-15194365D02*
X15714467Y-15156269D01*
X15714467Y-15156269D02*
X15714467Y-15080079D01*
X15714467Y-15080079D02*
X15704944Y-15061031D01*
X15704944Y-15061031D02*
X15695420Y-15051508D01*
X15695420Y-15051508D02*
X15676372Y-15041984D01*
X15676372Y-15041984D02*
X15638277Y-15041984D01*
X15638277Y-15041984D02*
X15619229Y-15051508D01*
X15619229Y-15051508D02*
X15609706Y-15061031D01*
X15609706Y-15061031D02*
X15600182Y-15080079D01*
X15600182Y-15080079D02*
X15600182Y-15127698D01*
X15600182Y-15127698D02*
X15609706Y-15146746D01*
X15609706Y-15146746D02*
X15619229Y-15156269D01*
X15619229Y-15156269D02*
X15638277Y-15165793D01*
X15638277Y-15165793D02*
X15676372Y-15165793D01*
X15676372Y-15165793D02*
X15695420Y-15156269D01*
X15695420Y-15156269D02*
X15704944Y-15146746D01*
X15704944Y-15146746D02*
X15714467Y-15127698D01*
X15885896Y-15108650D02*
X15885896Y-15241984D01*
X15838277Y-15032460D02*
X15790658Y-15175317D01*
X15790658Y-15175317D02*
X15914467Y-15175317D01*
X15981134Y-15041984D02*
X15981134Y-15080079D01*
X16057325Y-15041984D02*
X16057325Y-15080079D01*
X16352563Y-15318174D02*
X16343039Y-15308650D01*
X16343039Y-15308650D02*
X16323991Y-15280079D01*
X16323991Y-15280079D02*
X16314468Y-15261031D01*
X16314468Y-15261031D02*
X16304944Y-15232460D01*
X16304944Y-15232460D02*
X16295420Y-15184841D01*
X16295420Y-15184841D02*
X16295420Y-15146746D01*
X16295420Y-15146746D02*
X16304944Y-15099127D01*
X16304944Y-15099127D02*
X16314468Y-15070555D01*
X16314468Y-15070555D02*
X16323991Y-15051508D01*
X16323991Y-15051508D02*
X16343039Y-15022936D01*
X16343039Y-15022936D02*
X16352563Y-15013412D01*
X16419229Y-15061031D02*
X16428753Y-15051508D01*
X16428753Y-15051508D02*
X16447801Y-15041984D01*
X16447801Y-15041984D02*
X16495420Y-15041984D01*
X16495420Y-15041984D02*
X16514468Y-15051508D01*
X16514468Y-15051508D02*
X16523991Y-15061031D01*
X16523991Y-15061031D02*
X16533515Y-15080079D01*
X16533515Y-15080079D02*
X16533515Y-15099127D01*
X16533515Y-15099127D02*
X16523991Y-15127698D01*
X16523991Y-15127698D02*
X16409706Y-15241984D01*
X16409706Y-15241984D02*
X16533515Y-15241984D01*
X16609706Y-15061031D02*
X16619229Y-15051508D01*
X16619229Y-15051508D02*
X16638277Y-15041984D01*
X16638277Y-15041984D02*
X16685896Y-15041984D01*
X16685896Y-15041984D02*
X16704944Y-15051508D01*
X16704944Y-15051508D02*
X16714468Y-15061031D01*
X16714468Y-15061031D02*
X16723991Y-15080079D01*
X16723991Y-15080079D02*
X16723991Y-15099127D01*
X16723991Y-15099127D02*
X16714468Y-15127698D01*
X16714468Y-15127698D02*
X16600182Y-15241984D01*
X16600182Y-15241984D02*
X16723991Y-15241984D01*
X16962087Y-15241984D02*
X16962087Y-15041984D01*
X17047801Y-15241984D02*
X17047801Y-15137222D01*
X17047801Y-15137222D02*
X17038277Y-15118174D01*
X17038277Y-15118174D02*
X17019230Y-15108650D01*
X17019230Y-15108650D02*
X16990658Y-15108650D01*
X16990658Y-15108650D02*
X16971611Y-15118174D01*
X16971611Y-15118174D02*
X16962087Y-15127698D01*
X17171611Y-15241984D02*
X17152563Y-15232460D01*
X17152563Y-15232460D02*
X17143039Y-15222936D01*
X17143039Y-15222936D02*
X17133515Y-15203888D01*
X17133515Y-15203888D02*
X17133515Y-15146746D01*
X17133515Y-15146746D02*
X17143039Y-15127698D01*
X17143039Y-15127698D02*
X17152563Y-15118174D01*
X17152563Y-15118174D02*
X17171611Y-15108650D01*
X17171611Y-15108650D02*
X17200182Y-15108650D01*
X17200182Y-15108650D02*
X17219230Y-15118174D01*
X17219230Y-15118174D02*
X17228753Y-15127698D01*
X17228753Y-15127698D02*
X17238277Y-15146746D01*
X17238277Y-15146746D02*
X17238277Y-15203888D01*
X17238277Y-15203888D02*
X17228753Y-15222936D01*
X17228753Y-15222936D02*
X17219230Y-15232460D01*
X17219230Y-15232460D02*
X17200182Y-15241984D01*
X17200182Y-15241984D02*
X17171611Y-15241984D01*
X17352563Y-15241984D02*
X17333515Y-15232460D01*
X17333515Y-15232460D02*
X17323992Y-15213412D01*
X17323992Y-15213412D02*
X17323992Y-15041984D01*
X17504944Y-15232460D02*
X17485896Y-15241984D01*
X17485896Y-15241984D02*
X17447801Y-15241984D01*
X17447801Y-15241984D02*
X17428753Y-15232460D01*
X17428753Y-15232460D02*
X17419230Y-15213412D01*
X17419230Y-15213412D02*
X17419230Y-15137222D01*
X17419230Y-15137222D02*
X17428753Y-15118174D01*
X17428753Y-15118174D02*
X17447801Y-15108650D01*
X17447801Y-15108650D02*
X17485896Y-15108650D01*
X17485896Y-15108650D02*
X17504944Y-15118174D01*
X17504944Y-15118174D02*
X17514468Y-15137222D01*
X17514468Y-15137222D02*
X17514468Y-15156269D01*
X17514468Y-15156269D02*
X17419230Y-15175317D01*
X17590658Y-15232460D02*
X17609706Y-15241984D01*
X17609706Y-15241984D02*
X17647801Y-15241984D01*
X17647801Y-15241984D02*
X17666849Y-15232460D01*
X17666849Y-15232460D02*
X17676373Y-15213412D01*
X17676373Y-15213412D02*
X17676373Y-15203888D01*
X17676373Y-15203888D02*
X17666849Y-15184841D01*
X17666849Y-15184841D02*
X17647801Y-15175317D01*
X17647801Y-15175317D02*
X17619230Y-15175317D01*
X17619230Y-15175317D02*
X17600182Y-15165793D01*
X17600182Y-15165793D02*
X17590658Y-15146746D01*
X17590658Y-15146746D02*
X17590658Y-15137222D01*
X17590658Y-15137222D02*
X17600182Y-15118174D01*
X17600182Y-15118174D02*
X17619230Y-15108650D01*
X17619230Y-15108650D02*
X17647801Y-15108650D01*
X17647801Y-15108650D02*
X17666849Y-15118174D01*
X17743039Y-15318174D02*
X17752563Y-15308650D01*
X17752563Y-15308650D02*
X17771611Y-15280079D01*
X17771611Y-15280079D02*
X17781134Y-15261031D01*
X17781134Y-15261031D02*
X17790658Y-15232460D01*
X17790658Y-15232460D02*
X17800182Y-15184841D01*
X17800182Y-15184841D02*
X17800182Y-15146746D01*
X17800182Y-15146746D02*
X17790658Y-15099127D01*
X17790658Y-15099127D02*
X17781134Y-15070555D01*
X17781134Y-15070555D02*
X17771611Y-15051508D01*
X17771611Y-15051508D02*
X17752563Y-15022936D01*
X17752563Y-15022936D02*
X17743039Y-15013412D01*
M02*
