M48
; DRILL file {KiCad 9.0.1} date 2025-10-26T23:58:12+0100
; FORMAT={-:-/ absolute / metric / decimal}
; #@! TF.CreationDate,2025-10-26T23:58:12+01:00
; #@! TF.GenerationSoftware,Kicad,Pcbnew,9.0.1
; #@! TF.FileFunction,Plated,1,4,PTH
FMAT,2
METRIC
; #@! TA.AperFunction,Plated,PTH,ComponentDrill
T1C0.200
; #@! TA.AperFunction,Plated,PTH,ViaDrill
T2C0.300
; #@! TA.AperFunction,Plated,PTH,ComponentDrill
T3C1.000
%
G90
G05
T1
X157.15Y-112.05
X157.15Y-113.45
X157.85Y-111.35
X157.85Y-112.725
X157.85Y-114.15
X158.55Y-112.05
X158.55Y-113.45
X159.25Y-111.35
X159.25Y-112.725
X159.25Y-114.15
X159.95Y-112.05
X159.95Y-113.45
T2
X129.413Y-103.378
X129.413Y-105.918
X129.413Y-108.077
X129.413Y-110.236
X129.413Y-114.3
X129.413Y-117.221
X129.413Y-120.015
X129.413Y-122.936
X129.413Y-125.73
X129.54Y-128.651
X129.667Y-131.191
X131.191Y-127.0
X131.445Y-129.921
X131.699Y-110.363
X131.953Y-117.348
X132.6Y-98.0
X135.2Y-106.85
X136.017Y-104.14
X136.271Y-92.71
X136.271Y-94.615
X136.398Y-117.348
X136.525Y-131.318
X136.525Y-134.239
X136.525Y-137.033
X136.652Y-120.015
X136.652Y-122.682
X136.652Y-125.88
X136.906Y-101.6
X137.033Y-97.663
X137.287Y-125.08
X138.049Y-95.758
X138.43Y-132.588
X138.684Y-135.763
X138.811Y-101.6
X139.192Y-104.14
X139.319Y-92.71
X140.843Y-121.031
X140.843Y-123.317
X142.113Y-116.84
X142.367Y-92.71
X142.621Y-104.14
X142.748Y-106.68
X142.748Y-109.22
X142.875Y-121.92
X143.764Y-102.616
X143.891Y-105.156
X143.891Y-107.696
X144.653Y-116.84
X144.653Y-123.317
X144.78Y-118.999
X144.78Y-120.904
X145.161Y-92.71
X145.161Y-134.112
X145.161Y-137.287
X146.177Y-95.377
X146.304Y-122.047
X146.812Y-132.588
X146.812Y-135.382
X148.082Y-92.71
X151.003Y-92.71
X151.257Y-110.871
X151.257Y-112.903
X151.257Y-115.062
X151.257Y-117.602
X151.257Y-119.634
X151.384Y-108.458
X151.511Y-95.377
X152.016Y-124.584
X152.806Y-124.993
X153.67Y-119.634
X153.797Y-108.585
X153.797Y-110.744
X153.797Y-114.935
X153.797Y-117.475
X153.924Y-112.903
X154.051Y-92.71
X154.305Y-125.222
X155.702Y-102.87
X156.21Y-125.222
X156.464Y-108.458
X157.443Y-92.66
X157.48Y-126.838
X158.115Y-102.87
X158.242Y-97.282
X158.242Y-100.584
X160.02Y-98.933
X160.02Y-101.6
X160.274Y-92.71
X160.608Y-117.047
X162.0Y-117.6
X163.195Y-92.71
X163.322Y-118.618
X164.338Y-125.603
X164.338Y-128.524
X164.846Y-116.967
X164.846Y-120.396
X165.989Y-127.0
X165.989Y-129.54
X166.116Y-95.631
X166.116Y-97.409
X166.116Y-99.822
X166.243Y-102.87
X166.624Y-109.22
X166.624Y-112.395
X166.624Y-115.57
X166.624Y-118.491
T3
X131.66Y-114.6
X134.2Y-114.6
X134.2Y-120.8
X134.2Y-123.34
X134.2Y-125.88
X134.2Y-128.42
X145.08Y-97.7
X145.08Y-100.2
X147.58Y-97.7
X147.58Y-100.2
X150.0Y-100.2
X150.08Y-97.7
X151.2Y-134.4
X152.58Y-97.7
X152.58Y-100.2
X153.7Y-134.4
X155.08Y-97.7
X155.08Y-100.2
X156.2Y-134.4
X158.7Y-134.4
X161.2Y-134.4
X163.74Y-134.4
M30
